G75*
%MOIN*%
%OFA0B0*%
%FSLAX25Y25*%
%IPPOS*%
%LPD*%
%AMOC8*
5,1,8,0,0,1.08239X$1,22.5*
%
%ADD10C,0.11250*%
%ADD11C,0.07800*%
%ADD12C,0.05200*%
%ADD13OC8,0.06600*%
%ADD14C,0.06000*%
%ADD15R,0.05315X0.05315*%
%ADD16C,0.05315*%
%ADD17C,0.03200*%
%ADD18C,0.00600*%
D10*
X0095377Y0235906D03*
X0146377Y0235906D03*
D11*
X0031733Y0244861D02*
X0023933Y0244861D01*
X0023933Y0225061D02*
X0031733Y0225061D01*
X0031694Y0195139D02*
X0023894Y0195139D01*
X0023894Y0175439D02*
X0031694Y0175439D01*
X0031694Y0155839D02*
X0023894Y0155839D01*
X0023894Y0136039D02*
X0031694Y0136039D01*
X0031694Y0116339D02*
X0023894Y0116339D01*
X0023894Y0096639D02*
X0031694Y0096639D01*
X0031694Y0076839D02*
X0023894Y0076839D01*
X0023894Y0057239D02*
X0031694Y0057239D01*
X0031694Y0037539D02*
X0023894Y0037539D01*
X0274485Y0031404D02*
X0282285Y0031404D01*
X0282285Y0051104D02*
X0274485Y0051104D01*
X0274485Y0070804D02*
X0282285Y0070804D01*
X0282285Y0090604D02*
X0274485Y0090604D01*
X0274485Y0110304D02*
X0282285Y0110304D01*
X0282285Y0130004D02*
X0274485Y0130004D01*
X0274485Y0149604D02*
X0282285Y0149604D01*
X0282285Y0169304D02*
X0274485Y0169304D01*
X0274485Y0189004D02*
X0282285Y0189004D01*
X0282285Y0208804D02*
X0274485Y0208804D01*
X0274485Y0228504D02*
X0282285Y0228504D01*
X0282285Y0248204D02*
X0274485Y0248204D01*
D12*
X0228268Y0240158D02*
X0223068Y0240158D01*
X0223068Y0230158D02*
X0228268Y0230158D01*
X0228268Y0220158D02*
X0223068Y0220158D01*
X0223068Y0210158D02*
X0228268Y0210158D01*
X0228268Y0200158D02*
X0223068Y0200158D01*
X0223068Y0190158D02*
X0228268Y0190158D01*
X0228268Y0180158D02*
X0223068Y0180158D01*
X0198268Y0180158D02*
X0193068Y0180158D01*
X0193068Y0190158D02*
X0198268Y0190158D01*
X0198268Y0200158D02*
X0193068Y0200158D01*
X0193068Y0210158D02*
X0198268Y0210158D01*
X0198268Y0220158D02*
X0193068Y0220158D01*
X0193068Y0230158D02*
X0198268Y0230158D01*
X0198268Y0240158D02*
X0193068Y0240158D01*
D13*
X0237873Y0240709D03*
X0237873Y0210709D03*
X0256377Y0208820D03*
X0256377Y0178820D03*
X0224841Y0167520D03*
X0224841Y0155394D03*
X0194841Y0155394D03*
X0194841Y0167520D03*
X0255589Y0121812D03*
X0255589Y0091812D03*
X0255589Y0081261D03*
X0255589Y0051261D03*
X0239487Y0017048D03*
X0209487Y0017048D03*
D14*
X0120314Y0018828D02*
X0120314Y0012828D01*
X0110314Y0012828D02*
X0110314Y0018828D01*
X0100314Y0018828D02*
X0100314Y0012828D01*
D15*
X0199251Y0029646D03*
D16*
X0209251Y0029646D03*
X0219251Y0029646D03*
X0229251Y0029646D03*
D17*
X0216613Y0039095D02*
X0257164Y0039095D01*
X0264855Y0031404D01*
X0278385Y0031404D01*
X0288449Y0031404D01*
X0296928Y0039883D01*
X0296928Y0066261D01*
X0292385Y0070804D01*
X0297715Y0076135D01*
X0297715Y0124922D01*
X0292633Y0130004D01*
X0298109Y0135480D01*
X0298109Y0185552D01*
X0294657Y0189004D01*
X0294474Y0189004D01*
X0298503Y0193032D01*
X0298503Y0222992D01*
X0292991Y0228504D01*
X0278385Y0228504D01*
X0292991Y0228504D02*
X0294210Y0228504D01*
X0299290Y0233583D01*
X0299290Y0253662D01*
X0291810Y0261143D01*
X0080392Y0261143D01*
X0044311Y0225061D01*
X0027833Y0225061D01*
X0053621Y0219410D02*
X0053621Y0202875D01*
X0045885Y0195139D01*
X0027794Y0195139D01*
X0027794Y0175439D02*
X0176332Y0175439D01*
X0182755Y0169017D01*
X0182755Y0153269D01*
X0188266Y0147757D01*
X0217203Y0147757D01*
X0224841Y0155394D01*
X0221573Y0155394D01*
X0217400Y0159568D01*
X0217400Y0175709D01*
X0221849Y0180158D01*
X0225668Y0180158D01*
X0225668Y0190158D02*
X0225550Y0190276D01*
X0214251Y0190276D01*
X0210314Y0186339D01*
X0210314Y0174528D01*
X0203306Y0167520D01*
X0194841Y0167520D01*
X0194841Y0155394D01*
X0180786Y0139489D02*
X0164251Y0156024D01*
X0025274Y0156024D01*
X0028094Y0136339D02*
X0027794Y0136039D01*
X0028094Y0136339D02*
X0148896Y0136339D01*
X0154014Y0131221D01*
X0228424Y0131221D01*
X0246807Y0149604D01*
X0278385Y0149604D01*
X0278385Y0130004D02*
X0292633Y0130004D01*
X0278385Y0169304D02*
X0242885Y0169304D01*
X0237479Y0163898D01*
X0237479Y0149331D01*
X0227636Y0139489D01*
X0180786Y0139489D01*
X0185038Y0116339D02*
X0210773Y0090604D01*
X0254381Y0090604D01*
X0255589Y0091812D01*
X0256797Y0090604D01*
X0278385Y0090604D01*
X0278385Y0070804D02*
X0292385Y0070804D01*
X0278228Y0051261D02*
X0278385Y0051104D01*
X0278228Y0051261D02*
X0255589Y0051261D01*
X0255433Y0051104D01*
X0222714Y0051104D01*
X0177179Y0096639D01*
X0027794Y0096639D01*
X0017794Y0087520D02*
X0011888Y0081615D01*
X0011888Y0017442D01*
X0022430Y0006900D01*
X0116219Y0006900D01*
X0120314Y0010994D01*
X0120314Y0015828D01*
X0120314Y0009804D01*
X0123218Y0006900D01*
X0232755Y0006900D01*
X0239487Y0013632D01*
X0239487Y0017048D01*
X0216613Y0039095D02*
X0199251Y0056457D01*
X0168188Y0087520D01*
X0017794Y0087520D01*
X0027794Y0076839D02*
X0028633Y0077678D01*
X0167007Y0077678D01*
X0184723Y0059961D01*
X0184723Y0024528D01*
X0192203Y0017048D01*
X0209487Y0017048D01*
X0209251Y0017284D01*
X0209251Y0029646D01*
X0199251Y0029646D02*
X0199251Y0056457D01*
X0185038Y0116339D02*
X0027794Y0116339D01*
X0027794Y0057239D02*
X0027828Y0057206D01*
X0099684Y0057206D01*
X0110314Y0046576D01*
X0110314Y0015828D01*
X0272033Y0189004D02*
X0278385Y0189004D01*
X0294474Y0189004D01*
X0278385Y0208804D02*
X0256361Y0208804D01*
X0255944Y0208387D01*
X0250471Y0208387D01*
X0242243Y0200158D01*
X0242636Y0200158D01*
X0242243Y0200158D02*
X0225668Y0200158D01*
X0195668Y0210158D02*
X0195471Y0210355D01*
X0158345Y0210355D01*
X0146377Y0222324D01*
X0146377Y0235906D01*
X0082414Y0248204D02*
X0053621Y0219410D01*
X0082414Y0248204D02*
X0237873Y0248204D01*
X0237873Y0240709D01*
X0237873Y0248204D02*
X0278385Y0248204D01*
X0256377Y0208820D02*
X0256361Y0208804D01*
D18*
X0016589Y0005600D02*
X0009889Y0005600D01*
X0009889Y0012300D01*
X0016589Y0005600D01*
X0016101Y0006088D02*
X0009889Y0006088D01*
X0009889Y0006687D02*
X0015502Y0006687D01*
X0014904Y0007285D02*
X0009889Y0007285D01*
X0009889Y0007884D02*
X0014305Y0007884D01*
X0013707Y0008482D02*
X0009889Y0008482D01*
X0009889Y0009081D02*
X0013108Y0009081D01*
X0012510Y0009679D02*
X0009889Y0009679D01*
X0009889Y0010278D02*
X0011911Y0010278D01*
X0011313Y0010876D02*
X0009889Y0010876D01*
X0009889Y0011475D02*
X0010714Y0011475D01*
X0010116Y0012073D02*
X0009889Y0012073D01*
X0017815Y0018657D02*
X0096014Y0018657D01*
X0096014Y0019166D02*
X0096014Y0016128D01*
X0100014Y0016128D01*
X0100014Y0023128D01*
X0099975Y0023128D01*
X0099307Y0023022D01*
X0098663Y0022813D01*
X0098060Y0022505D01*
X0097512Y0022107D01*
X0097034Y0021629D01*
X0096636Y0021081D01*
X0096329Y0020478D01*
X0096120Y0019834D01*
X0096014Y0019166D01*
X0096028Y0019255D02*
X0017216Y0019255D01*
X0016938Y0019533D02*
X0016938Y0035127D01*
X0017663Y0033376D01*
X0019731Y0031309D01*
X0022432Y0030190D01*
X0033156Y0030190D01*
X0035857Y0031309D01*
X0037925Y0033376D01*
X0039044Y0036077D01*
X0039044Y0039001D01*
X0037925Y0041703D01*
X0035857Y0043770D01*
X0033156Y0044889D01*
X0022432Y0044889D01*
X0019731Y0043770D01*
X0017663Y0041703D01*
X0016938Y0039952D01*
X0016938Y0054827D01*
X0017663Y0053076D01*
X0019731Y0051009D01*
X0022432Y0049890D01*
X0033156Y0049890D01*
X0035857Y0051009D01*
X0037004Y0052156D01*
X0097592Y0052156D01*
X0105264Y0044484D01*
X0105264Y0022899D01*
X0104846Y0022481D01*
X0104143Y0020784D01*
X0103991Y0021081D01*
X0103593Y0021629D01*
X0103115Y0022107D01*
X0102567Y0022505D01*
X0101964Y0022813D01*
X0101321Y0023022D01*
X0100652Y0023128D01*
X0100614Y0023128D01*
X0100614Y0016128D01*
X0100014Y0016128D01*
X0100014Y0015528D01*
X0096014Y0015528D01*
X0096014Y0012489D01*
X0096099Y0011950D01*
X0024522Y0011950D01*
X0016938Y0019533D01*
X0016938Y0019854D02*
X0096126Y0019854D01*
X0096320Y0020452D02*
X0016938Y0020452D01*
X0016938Y0021051D02*
X0096620Y0021051D01*
X0097054Y0021649D02*
X0016938Y0021649D01*
X0016938Y0022248D02*
X0097706Y0022248D01*
X0098767Y0022846D02*
X0016938Y0022846D01*
X0016938Y0023445D02*
X0105264Y0023445D01*
X0105264Y0024043D02*
X0016938Y0024043D01*
X0016938Y0024642D02*
X0105264Y0024642D01*
X0105264Y0025240D02*
X0016938Y0025240D01*
X0016938Y0025839D02*
X0105264Y0025839D01*
X0105264Y0026437D02*
X0016938Y0026437D01*
X0016938Y0027036D02*
X0105264Y0027036D01*
X0105264Y0027634D02*
X0016938Y0027634D01*
X0016938Y0028233D02*
X0105264Y0028233D01*
X0105264Y0028832D02*
X0016938Y0028832D01*
X0016938Y0029430D02*
X0105264Y0029430D01*
X0105264Y0030029D02*
X0016938Y0030029D01*
X0016938Y0030627D02*
X0021376Y0030627D01*
X0019931Y0031226D02*
X0016938Y0031226D01*
X0016938Y0031824D02*
X0019215Y0031824D01*
X0018617Y0032423D02*
X0016938Y0032423D01*
X0016938Y0033021D02*
X0018018Y0033021D01*
X0017562Y0033620D02*
X0016938Y0033620D01*
X0016938Y0034218D02*
X0017315Y0034218D01*
X0017067Y0034817D02*
X0016938Y0034817D01*
X0016938Y0040203D02*
X0017042Y0040203D01*
X0016938Y0040802D02*
X0017290Y0040802D01*
X0017538Y0041400D02*
X0016938Y0041400D01*
X0016938Y0041999D02*
X0017959Y0041999D01*
X0018558Y0042597D02*
X0016938Y0042597D01*
X0016938Y0043196D02*
X0019156Y0043196D01*
X0019789Y0043794D02*
X0016938Y0043794D01*
X0016938Y0044393D02*
X0021234Y0044393D01*
X0016938Y0044991D02*
X0104757Y0044991D01*
X0105264Y0044393D02*
X0034354Y0044393D01*
X0035799Y0043794D02*
X0105264Y0043794D01*
X0105264Y0043196D02*
X0036431Y0043196D01*
X0037030Y0042597D02*
X0105264Y0042597D01*
X0105264Y0041999D02*
X0037628Y0041999D01*
X0038050Y0041400D02*
X0105264Y0041400D01*
X0105264Y0040802D02*
X0038298Y0040802D01*
X0038546Y0040203D02*
X0105264Y0040203D01*
X0105264Y0039605D02*
X0038794Y0039605D01*
X0039042Y0039006D02*
X0105264Y0039006D01*
X0105264Y0038408D02*
X0039044Y0038408D01*
X0039044Y0037809D02*
X0105264Y0037809D01*
X0105264Y0037211D02*
X0039044Y0037211D01*
X0039044Y0036612D02*
X0105264Y0036612D01*
X0105264Y0036014D02*
X0039017Y0036014D01*
X0038769Y0035415D02*
X0105264Y0035415D01*
X0105264Y0034817D02*
X0038521Y0034817D01*
X0038273Y0034218D02*
X0105264Y0034218D01*
X0105264Y0033620D02*
X0038025Y0033620D01*
X0037570Y0033021D02*
X0105264Y0033021D01*
X0105264Y0032423D02*
X0036971Y0032423D01*
X0036373Y0031824D02*
X0105264Y0031824D01*
X0105264Y0031226D02*
X0035657Y0031226D01*
X0034212Y0030627D02*
X0105264Y0030627D01*
X0105211Y0022846D02*
X0101860Y0022846D01*
X0102922Y0022248D02*
X0104749Y0022248D01*
X0104501Y0021649D02*
X0103573Y0021649D01*
X0104007Y0021051D02*
X0104254Y0021051D01*
X0100614Y0021051D02*
X0100014Y0021051D01*
X0100014Y0021649D02*
X0100614Y0021649D01*
X0100614Y0022248D02*
X0100014Y0022248D01*
X0100014Y0022846D02*
X0100614Y0022846D01*
X0100614Y0020452D02*
X0100014Y0020452D01*
X0100014Y0019854D02*
X0100614Y0019854D01*
X0100614Y0019255D02*
X0100014Y0019255D01*
X0100014Y0018657D02*
X0100614Y0018657D01*
X0100614Y0018058D02*
X0100014Y0018058D01*
X0100014Y0017460D02*
X0100614Y0017460D01*
X0100614Y0016861D02*
X0100014Y0016861D01*
X0100014Y0016263D02*
X0100614Y0016263D01*
X0100014Y0015664D02*
X0020807Y0015664D01*
X0021406Y0015066D02*
X0096014Y0015066D01*
X0096014Y0014467D02*
X0022004Y0014467D01*
X0022603Y0013869D02*
X0096014Y0013869D01*
X0096014Y0013270D02*
X0023201Y0013270D01*
X0023800Y0012672D02*
X0096014Y0012672D01*
X0096080Y0012073D02*
X0024398Y0012073D01*
X0020209Y0016263D02*
X0096014Y0016263D01*
X0096014Y0016861D02*
X0019610Y0016861D01*
X0019012Y0017460D02*
X0096014Y0017460D01*
X0096014Y0018058D02*
X0018413Y0018058D01*
X0016938Y0045590D02*
X0104158Y0045590D01*
X0103560Y0046188D02*
X0016938Y0046188D01*
X0016938Y0046787D02*
X0102961Y0046787D01*
X0102363Y0047385D02*
X0016938Y0047385D01*
X0016938Y0047984D02*
X0101764Y0047984D01*
X0101166Y0048582D02*
X0016938Y0048582D01*
X0016938Y0049181D02*
X0100567Y0049181D01*
X0099969Y0049779D02*
X0016938Y0049779D01*
X0016938Y0050378D02*
X0021253Y0050378D01*
X0019809Y0050976D02*
X0016938Y0050976D01*
X0016938Y0051575D02*
X0019164Y0051575D01*
X0018566Y0052173D02*
X0016938Y0052173D01*
X0016938Y0052772D02*
X0017967Y0052772D01*
X0017541Y0053370D02*
X0016938Y0053370D01*
X0016938Y0053969D02*
X0017293Y0053969D01*
X0017046Y0054568D02*
X0016938Y0054568D01*
X0016938Y0059652D02*
X0016938Y0074427D01*
X0017663Y0072676D01*
X0019731Y0070609D01*
X0022432Y0069490D01*
X0033156Y0069490D01*
X0035857Y0070609D01*
X0037877Y0072628D01*
X0164915Y0072628D01*
X0179673Y0057870D01*
X0179673Y0023524D01*
X0180442Y0021668D01*
X0187923Y0014188D01*
X0189343Y0012767D01*
X0191199Y0011998D01*
X0204991Y0011998D01*
X0205040Y0011950D01*
X0126763Y0011950D01*
X0126763Y0020110D01*
X0125781Y0022481D01*
X0123967Y0024295D01*
X0121597Y0025277D01*
X0119031Y0025277D01*
X0116660Y0024295D01*
X0115363Y0022998D01*
X0115363Y0047580D01*
X0114594Y0049436D01*
X0103965Y0060066D01*
X0102544Y0061486D01*
X0100688Y0062255D01*
X0037072Y0062255D01*
X0035857Y0063470D01*
X0033156Y0064589D01*
X0022432Y0064589D01*
X0019731Y0063470D01*
X0017663Y0061403D01*
X0016938Y0059652D01*
X0016938Y0059954D02*
X0017063Y0059954D01*
X0016938Y0060553D02*
X0017311Y0060553D01*
X0017559Y0061151D02*
X0016938Y0061151D01*
X0016938Y0061750D02*
X0018010Y0061750D01*
X0018609Y0062348D02*
X0016938Y0062348D01*
X0016938Y0062947D02*
X0019207Y0062947D01*
X0019912Y0063545D02*
X0016938Y0063545D01*
X0016938Y0064144D02*
X0021357Y0064144D01*
X0016938Y0064742D02*
X0172801Y0064742D01*
X0173400Y0064144D02*
X0034231Y0064144D01*
X0035676Y0063545D02*
X0173998Y0063545D01*
X0174597Y0062947D02*
X0036381Y0062947D01*
X0036979Y0062348D02*
X0175195Y0062348D01*
X0175794Y0061750D02*
X0101908Y0061750D01*
X0102879Y0061151D02*
X0176392Y0061151D01*
X0176991Y0060553D02*
X0103478Y0060553D01*
X0104076Y0059954D02*
X0177589Y0059954D01*
X0178188Y0059356D02*
X0104675Y0059356D01*
X0105273Y0058757D02*
X0178786Y0058757D01*
X0179385Y0058159D02*
X0105872Y0058159D01*
X0106470Y0057560D02*
X0179673Y0057560D01*
X0179673Y0056962D02*
X0107069Y0056962D01*
X0107667Y0056363D02*
X0179673Y0056363D01*
X0179673Y0055765D02*
X0108266Y0055765D01*
X0108864Y0055166D02*
X0179673Y0055166D01*
X0179673Y0054568D02*
X0109463Y0054568D01*
X0110061Y0053969D02*
X0179673Y0053969D01*
X0179673Y0053370D02*
X0110660Y0053370D01*
X0111258Y0052772D02*
X0179673Y0052772D01*
X0179673Y0052173D02*
X0111857Y0052173D01*
X0112455Y0051575D02*
X0179673Y0051575D01*
X0179673Y0050976D02*
X0113054Y0050976D01*
X0113653Y0050378D02*
X0179673Y0050378D01*
X0179673Y0049779D02*
X0114251Y0049779D01*
X0114700Y0049181D02*
X0179673Y0049181D01*
X0179673Y0048582D02*
X0114948Y0048582D01*
X0115196Y0047984D02*
X0179673Y0047984D01*
X0179673Y0047385D02*
X0115363Y0047385D01*
X0115363Y0046787D02*
X0179673Y0046787D01*
X0179673Y0046188D02*
X0115363Y0046188D01*
X0115363Y0045590D02*
X0179673Y0045590D01*
X0179673Y0044991D02*
X0115363Y0044991D01*
X0115363Y0044393D02*
X0179673Y0044393D01*
X0179673Y0043794D02*
X0115363Y0043794D01*
X0115363Y0043196D02*
X0179673Y0043196D01*
X0179673Y0042597D02*
X0115363Y0042597D01*
X0115363Y0041999D02*
X0179673Y0041999D01*
X0179673Y0041400D02*
X0115363Y0041400D01*
X0115363Y0040802D02*
X0179673Y0040802D01*
X0179673Y0040203D02*
X0115363Y0040203D01*
X0115363Y0039605D02*
X0179673Y0039605D01*
X0179673Y0039006D02*
X0115363Y0039006D01*
X0115363Y0038408D02*
X0179673Y0038408D01*
X0179673Y0037809D02*
X0115363Y0037809D01*
X0115363Y0037211D02*
X0179673Y0037211D01*
X0179673Y0036612D02*
X0115363Y0036612D01*
X0115363Y0036014D02*
X0179673Y0036014D01*
X0179673Y0035415D02*
X0115363Y0035415D01*
X0115363Y0034817D02*
X0179673Y0034817D01*
X0179673Y0034218D02*
X0115363Y0034218D01*
X0115363Y0033620D02*
X0179673Y0033620D01*
X0179673Y0033021D02*
X0115363Y0033021D01*
X0115363Y0032423D02*
X0179673Y0032423D01*
X0179673Y0031824D02*
X0115363Y0031824D01*
X0115363Y0031226D02*
X0179673Y0031226D01*
X0179673Y0030627D02*
X0115363Y0030627D01*
X0115363Y0030029D02*
X0179673Y0030029D01*
X0179673Y0029430D02*
X0115363Y0029430D01*
X0115363Y0028832D02*
X0179673Y0028832D01*
X0179673Y0028233D02*
X0115363Y0028233D01*
X0115363Y0027634D02*
X0179673Y0027634D01*
X0179673Y0027036D02*
X0115363Y0027036D01*
X0115363Y0026437D02*
X0179673Y0026437D01*
X0179673Y0025839D02*
X0115363Y0025839D01*
X0115363Y0025240D02*
X0118942Y0025240D01*
X0117497Y0024642D02*
X0115363Y0024642D01*
X0115363Y0024043D02*
X0116408Y0024043D01*
X0115810Y0023445D02*
X0115363Y0023445D01*
X0121685Y0025240D02*
X0179673Y0025240D01*
X0179673Y0024642D02*
X0123130Y0024642D01*
X0124219Y0024043D02*
X0179673Y0024043D01*
X0179706Y0023445D02*
X0124817Y0023445D01*
X0125416Y0022846D02*
X0179954Y0022846D01*
X0180202Y0022248D02*
X0125878Y0022248D01*
X0126126Y0021649D02*
X0180461Y0021649D01*
X0181059Y0021051D02*
X0126374Y0021051D01*
X0126622Y0020452D02*
X0181658Y0020452D01*
X0182256Y0019854D02*
X0126763Y0019854D01*
X0126763Y0019255D02*
X0182855Y0019255D01*
X0183453Y0018657D02*
X0126763Y0018657D01*
X0126763Y0018058D02*
X0184052Y0018058D01*
X0184650Y0017460D02*
X0126763Y0017460D01*
X0126763Y0016861D02*
X0185249Y0016861D01*
X0185847Y0016263D02*
X0126763Y0016263D01*
X0126763Y0015664D02*
X0186446Y0015664D01*
X0187044Y0015066D02*
X0126763Y0015066D01*
X0126763Y0014467D02*
X0187643Y0014467D01*
X0188241Y0013869D02*
X0126763Y0013869D01*
X0126763Y0013270D02*
X0188840Y0013270D01*
X0189573Y0012672D02*
X0126763Y0012672D01*
X0126763Y0012073D02*
X0191018Y0012073D01*
X0194295Y0022098D02*
X0189773Y0026620D01*
X0189773Y0058794D01*
X0194201Y0054366D01*
X0194201Y0034790D01*
X0193669Y0034258D01*
X0193144Y0032990D01*
X0193144Y0026303D01*
X0193669Y0025035D01*
X0194639Y0024065D01*
X0195907Y0023539D01*
X0202594Y0023539D01*
X0203862Y0024065D01*
X0204201Y0024403D01*
X0204201Y0022098D01*
X0194295Y0022098D01*
X0194145Y0022248D02*
X0204201Y0022248D01*
X0204201Y0022846D02*
X0193546Y0022846D01*
X0192948Y0023445D02*
X0204201Y0023445D01*
X0204201Y0024043D02*
X0203811Y0024043D01*
X0194690Y0024043D02*
X0192349Y0024043D01*
X0191751Y0024642D02*
X0194062Y0024642D01*
X0193584Y0025240D02*
X0191152Y0025240D01*
X0190554Y0025839D02*
X0193336Y0025839D01*
X0193144Y0026437D02*
X0189955Y0026437D01*
X0189773Y0027036D02*
X0193144Y0027036D01*
X0193144Y0027634D02*
X0189773Y0027634D01*
X0189773Y0028233D02*
X0193144Y0028233D01*
X0193144Y0028832D02*
X0189773Y0028832D01*
X0189773Y0029430D02*
X0193144Y0029430D01*
X0193144Y0030029D02*
X0189773Y0030029D01*
X0189773Y0030627D02*
X0193144Y0030627D01*
X0193144Y0031226D02*
X0189773Y0031226D01*
X0189773Y0031824D02*
X0193144Y0031824D01*
X0193144Y0032423D02*
X0189773Y0032423D01*
X0189773Y0033021D02*
X0193156Y0033021D01*
X0193404Y0033620D02*
X0189773Y0033620D01*
X0189773Y0034218D02*
X0193652Y0034218D01*
X0194201Y0034817D02*
X0189773Y0034817D01*
X0189773Y0035415D02*
X0194201Y0035415D01*
X0194201Y0036014D02*
X0189773Y0036014D01*
X0189773Y0036612D02*
X0194201Y0036612D01*
X0194201Y0037211D02*
X0189773Y0037211D01*
X0189773Y0037809D02*
X0194201Y0037809D01*
X0194201Y0038408D02*
X0189773Y0038408D01*
X0189773Y0039006D02*
X0194201Y0039006D01*
X0194201Y0039605D02*
X0189773Y0039605D01*
X0189773Y0040203D02*
X0194201Y0040203D01*
X0194201Y0040802D02*
X0189773Y0040802D01*
X0189773Y0041400D02*
X0194201Y0041400D01*
X0194201Y0041999D02*
X0189773Y0041999D01*
X0189773Y0042597D02*
X0194201Y0042597D01*
X0194201Y0043196D02*
X0189773Y0043196D01*
X0189773Y0043794D02*
X0194201Y0043794D01*
X0194201Y0044393D02*
X0189773Y0044393D01*
X0189773Y0044991D02*
X0194201Y0044991D01*
X0194201Y0045590D02*
X0189773Y0045590D01*
X0189773Y0046188D02*
X0194201Y0046188D01*
X0194201Y0046787D02*
X0189773Y0046787D01*
X0189773Y0047385D02*
X0194201Y0047385D01*
X0194201Y0047984D02*
X0189773Y0047984D01*
X0189773Y0048582D02*
X0194201Y0048582D01*
X0194201Y0049181D02*
X0189773Y0049181D01*
X0189773Y0049779D02*
X0194201Y0049779D01*
X0194201Y0050378D02*
X0189773Y0050378D01*
X0189773Y0050976D02*
X0194201Y0050976D01*
X0194201Y0051575D02*
X0189773Y0051575D01*
X0189773Y0052173D02*
X0194201Y0052173D01*
X0194201Y0052772D02*
X0189773Y0052772D01*
X0189773Y0053370D02*
X0194201Y0053370D01*
X0194201Y0053969D02*
X0189773Y0053969D01*
X0189773Y0054568D02*
X0193999Y0054568D01*
X0193401Y0055166D02*
X0189773Y0055166D01*
X0189773Y0055765D02*
X0192802Y0055765D01*
X0192204Y0056363D02*
X0189773Y0056363D01*
X0189773Y0056962D02*
X0191605Y0056962D01*
X0191007Y0057560D02*
X0189773Y0057560D01*
X0189773Y0058159D02*
X0190408Y0058159D01*
X0189810Y0058757D02*
X0189773Y0058757D01*
X0198107Y0064742D02*
X0201935Y0064742D01*
X0202533Y0064144D02*
X0198706Y0064144D01*
X0199304Y0063545D02*
X0203132Y0063545D01*
X0203730Y0062947D02*
X0199903Y0062947D01*
X0200501Y0062348D02*
X0204329Y0062348D01*
X0204927Y0061750D02*
X0201100Y0061750D01*
X0201698Y0061151D02*
X0205526Y0061151D01*
X0206125Y0060553D02*
X0202297Y0060553D01*
X0202111Y0060738D02*
X0202111Y0060738D01*
X0172469Y0090381D01*
X0171260Y0091590D01*
X0175087Y0091590D01*
X0218434Y0048244D01*
X0218434Y0048244D01*
X0219854Y0046823D01*
X0221710Y0046054D01*
X0251250Y0046054D01*
X0252793Y0044511D01*
X0258385Y0044511D01*
X0260085Y0046211D01*
X0268984Y0046211D01*
X0270321Y0044873D01*
X0273023Y0043754D01*
X0283746Y0043754D01*
X0286448Y0044873D01*
X0288515Y0046941D01*
X0289634Y0049642D01*
X0289634Y0052566D01*
X0288515Y0055267D01*
X0286448Y0057335D01*
X0283746Y0058454D01*
X0273023Y0058454D01*
X0270321Y0057335D01*
X0269297Y0056310D01*
X0260085Y0056310D01*
X0258385Y0058010D01*
X0252793Y0058010D01*
X0250937Y0056154D01*
X0224806Y0056154D01*
X0180039Y0100920D01*
X0178183Y0101689D01*
X0037038Y0101689D01*
X0035857Y0102870D01*
X0033156Y0103989D01*
X0022432Y0103989D01*
X0019731Y0102870D01*
X0017663Y0100803D01*
X0016544Y0098101D01*
X0016544Y0095177D01*
X0017624Y0092570D01*
X0016790Y0092570D01*
X0014934Y0091801D01*
X0009889Y0086757D01*
X0009889Y0264717D01*
X0076825Y0264717D01*
X0042220Y0230111D01*
X0037078Y0230111D01*
X0035897Y0231292D01*
X0033195Y0232411D01*
X0022471Y0232411D01*
X0019770Y0231292D01*
X0017703Y0229225D01*
X0016584Y0226523D01*
X0016584Y0223599D01*
X0017703Y0220898D01*
X0019770Y0218831D01*
X0022471Y0217712D01*
X0033195Y0217712D01*
X0035897Y0218831D01*
X0037078Y0220012D01*
X0045316Y0220012D01*
X0047172Y0220781D01*
X0082484Y0256093D01*
X0289718Y0256093D01*
X0294240Y0251571D01*
X0294240Y0235675D01*
X0292119Y0233554D01*
X0287629Y0233554D01*
X0286448Y0234735D01*
X0283746Y0235854D01*
X0273023Y0235854D01*
X0270321Y0234735D01*
X0268254Y0232667D01*
X0267135Y0229966D01*
X0267135Y0227042D01*
X0268254Y0224341D01*
X0270321Y0222273D01*
X0273023Y0221154D01*
X0283746Y0221154D01*
X0286448Y0222273D01*
X0287629Y0223454D01*
X0290899Y0223454D01*
X0293453Y0220901D01*
X0293453Y0195124D01*
X0292383Y0194054D01*
X0287629Y0194054D01*
X0286448Y0195235D01*
X0283746Y0196354D01*
X0273023Y0196354D01*
X0270321Y0195235D01*
X0268254Y0193167D01*
X0267135Y0190466D01*
X0267135Y0190373D01*
X0266984Y0190008D01*
X0266984Y0187999D01*
X0267135Y0187635D01*
X0267135Y0187542D01*
X0268254Y0184841D01*
X0270321Y0182773D01*
X0273023Y0181654D01*
X0283746Y0181654D01*
X0286448Y0182773D01*
X0287629Y0183954D01*
X0292565Y0183954D01*
X0293059Y0183460D01*
X0293059Y0137571D01*
X0290542Y0135054D01*
X0287629Y0135054D01*
X0286448Y0136235D01*
X0283746Y0137354D01*
X0273023Y0137354D01*
X0270321Y0136235D01*
X0268254Y0134167D01*
X0267135Y0131466D01*
X0267135Y0128542D01*
X0268254Y0125841D01*
X0270321Y0123773D01*
X0273023Y0122654D01*
X0283746Y0122654D01*
X0286448Y0123773D01*
X0287629Y0124954D01*
X0290542Y0124954D01*
X0292666Y0122830D01*
X0292666Y0078226D01*
X0290293Y0075854D01*
X0287629Y0075854D01*
X0286448Y0077035D01*
X0283746Y0078154D01*
X0273023Y0078154D01*
X0270321Y0077035D01*
X0268254Y0074967D01*
X0267135Y0072266D01*
X0267135Y0069342D01*
X0268254Y0066641D01*
X0270321Y0064573D01*
X0273023Y0063454D01*
X0283746Y0063454D01*
X0286448Y0064573D01*
X0287629Y0065754D01*
X0290293Y0065754D01*
X0291878Y0064169D01*
X0291878Y0041974D01*
X0286993Y0037089D01*
X0286448Y0037635D01*
X0283746Y0038754D01*
X0273023Y0038754D01*
X0270321Y0037635D01*
X0269140Y0036454D01*
X0266947Y0036454D01*
X0260024Y0043376D01*
X0258168Y0044145D01*
X0256160Y0044145D01*
X0218704Y0044145D01*
X0202111Y0060738D01*
X0202895Y0059954D02*
X0206723Y0059954D01*
X0207322Y0059356D02*
X0203494Y0059356D01*
X0204092Y0058757D02*
X0207920Y0058757D01*
X0208519Y0058159D02*
X0204691Y0058159D01*
X0205289Y0057560D02*
X0209117Y0057560D01*
X0209716Y0056962D02*
X0205888Y0056962D01*
X0206486Y0056363D02*
X0210314Y0056363D01*
X0210913Y0055765D02*
X0207085Y0055765D01*
X0207683Y0055166D02*
X0211511Y0055166D01*
X0212110Y0054568D02*
X0208282Y0054568D01*
X0208880Y0053969D02*
X0212708Y0053969D01*
X0213307Y0053370D02*
X0209479Y0053370D01*
X0210077Y0052772D02*
X0213905Y0052772D01*
X0214504Y0052173D02*
X0210676Y0052173D01*
X0211274Y0051575D02*
X0215102Y0051575D01*
X0215701Y0050976D02*
X0211873Y0050976D01*
X0212471Y0050378D02*
X0216299Y0050378D01*
X0216898Y0049779D02*
X0213070Y0049779D01*
X0213668Y0049181D02*
X0217496Y0049181D01*
X0218095Y0048582D02*
X0214267Y0048582D01*
X0214865Y0047984D02*
X0218693Y0047984D01*
X0219292Y0047385D02*
X0215464Y0047385D01*
X0216062Y0046787D02*
X0219941Y0046787D01*
X0221386Y0046188D02*
X0216661Y0046188D01*
X0217259Y0045590D02*
X0251715Y0045590D01*
X0252313Y0044991D02*
X0217858Y0044991D01*
X0218457Y0044393D02*
X0271481Y0044393D01*
X0270203Y0044991D02*
X0258865Y0044991D01*
X0259464Y0045590D02*
X0269605Y0045590D01*
X0269006Y0046188D02*
X0260062Y0046188D01*
X0259015Y0043794D02*
X0272926Y0043794D01*
X0272188Y0038408D02*
X0264993Y0038408D01*
X0264394Y0039006D02*
X0288910Y0039006D01*
X0288312Y0038408D02*
X0284581Y0038408D01*
X0286026Y0037809D02*
X0287713Y0037809D01*
X0287115Y0037211D02*
X0286872Y0037211D01*
X0289509Y0039605D02*
X0263796Y0039605D01*
X0263197Y0040203D02*
X0290107Y0040203D01*
X0290706Y0040802D02*
X0262599Y0040802D01*
X0262000Y0041400D02*
X0291304Y0041400D01*
X0291878Y0041999D02*
X0261402Y0041999D01*
X0260803Y0042597D02*
X0291878Y0042597D01*
X0291878Y0043196D02*
X0260205Y0043196D01*
X0265591Y0037809D02*
X0270743Y0037809D01*
X0269897Y0037211D02*
X0266190Y0037211D01*
X0266788Y0036612D02*
X0269299Y0036612D01*
X0263851Y0026354D02*
X0261995Y0027123D01*
X0260575Y0028544D01*
X0255072Y0034046D01*
X0223488Y0034046D01*
X0224428Y0033106D01*
X0225358Y0030861D01*
X0225358Y0030361D01*
X0225445Y0030801D01*
X0225744Y0031521D01*
X0226177Y0032169D01*
X0226728Y0032720D01*
X0227376Y0033154D01*
X0228096Y0033452D01*
X0228861Y0033604D01*
X0228951Y0033604D01*
X0228951Y0029947D01*
X0229551Y0029947D01*
X0229551Y0033604D01*
X0229640Y0033604D01*
X0230405Y0033452D01*
X0231125Y0033154D01*
X0231773Y0032720D01*
X0232325Y0032169D01*
X0232758Y0031521D01*
X0233056Y0030801D01*
X0233208Y0030036D01*
X0233208Y0029946D01*
X0229551Y0029946D01*
X0229551Y0029346D01*
X0229551Y0025689D01*
X0229640Y0025689D01*
X0230405Y0025841D01*
X0231125Y0026139D01*
X0231773Y0026572D01*
X0232325Y0027124D01*
X0232758Y0027772D01*
X0233056Y0028492D01*
X0233208Y0029257D01*
X0233208Y0029346D01*
X0229551Y0029346D01*
X0228951Y0029346D01*
X0228951Y0025689D01*
X0228861Y0025689D01*
X0228096Y0025841D01*
X0227376Y0026139D01*
X0226728Y0026572D01*
X0226177Y0027124D01*
X0225744Y0027772D01*
X0225445Y0028492D01*
X0225358Y0028932D01*
X0225358Y0028432D01*
X0224428Y0026187D01*
X0222710Y0024469D01*
X0220465Y0023539D01*
X0218036Y0023539D01*
X0215791Y0024469D01*
X0214300Y0025960D01*
X0214300Y0021780D01*
X0216236Y0019844D01*
X0216236Y0014252D01*
X0213934Y0011950D01*
X0230663Y0011950D01*
X0232851Y0014138D01*
X0232737Y0014252D01*
X0232737Y0019844D01*
X0236691Y0023798D01*
X0242283Y0023798D01*
X0246236Y0019844D01*
X0246236Y0014252D01*
X0244483Y0012499D01*
X0243768Y0010772D01*
X0242347Y0009351D01*
X0238596Y0005600D01*
X0304439Y0005600D01*
X0304439Y0264717D01*
X0295377Y0264717D01*
X0302150Y0257943D01*
X0302150Y0257943D01*
X0303571Y0256523D01*
X0304340Y0254667D01*
X0304340Y0232579D01*
X0303571Y0230723D01*
X0302150Y0229303D01*
X0302150Y0229303D01*
X0300742Y0227894D01*
X0301363Y0227273D01*
X0302783Y0225852D01*
X0303552Y0223997D01*
X0303552Y0192028D01*
X0302783Y0190172D01*
X0301707Y0189095D01*
X0302390Y0188412D01*
X0303159Y0186556D01*
X0303159Y0134475D01*
X0302390Y0132619D01*
X0300969Y0131199D01*
X0299775Y0130004D01*
X0301996Y0127782D01*
X0302765Y0125926D01*
X0302765Y0075130D01*
X0301996Y0073274D01*
X0300576Y0071854D01*
X0299526Y0070804D01*
X0301209Y0069121D01*
X0301977Y0067265D01*
X0301977Y0038878D01*
X0301209Y0037022D01*
X0299788Y0035602D01*
X0291309Y0027123D01*
X0289454Y0026354D01*
X0287629Y0026354D01*
X0286448Y0025173D01*
X0283746Y0024054D01*
X0273023Y0024054D01*
X0270321Y0025173D01*
X0269140Y0026354D01*
X0263851Y0026354D01*
X0263650Y0026437D02*
X0231571Y0026437D01*
X0232237Y0027036D02*
X0262205Y0027036D01*
X0261484Y0027634D02*
X0232666Y0027634D01*
X0232949Y0028233D02*
X0260885Y0028233D01*
X0260287Y0028832D02*
X0233124Y0028832D01*
X0233208Y0030029D02*
X0259090Y0030029D01*
X0258491Y0030627D02*
X0233091Y0030627D01*
X0232880Y0031226D02*
X0257893Y0031226D01*
X0257294Y0031824D02*
X0232555Y0031824D01*
X0232071Y0032423D02*
X0256695Y0032423D01*
X0256097Y0033021D02*
X0231323Y0033021D01*
X0229551Y0033021D02*
X0228951Y0033021D01*
X0228951Y0032423D02*
X0229551Y0032423D01*
X0229551Y0031824D02*
X0228951Y0031824D01*
X0228951Y0031226D02*
X0229551Y0031226D01*
X0229551Y0030627D02*
X0228951Y0030627D01*
X0228951Y0030029D02*
X0229551Y0030029D01*
X0229551Y0029430D02*
X0259688Y0029430D01*
X0255498Y0033620D02*
X0223914Y0033620D01*
X0224463Y0033021D02*
X0227178Y0033021D01*
X0226430Y0032423D02*
X0224711Y0032423D01*
X0224959Y0031824D02*
X0225946Y0031824D01*
X0225621Y0031226D02*
X0225207Y0031226D01*
X0225358Y0030627D02*
X0225411Y0030627D01*
X0225358Y0028832D02*
X0225378Y0028832D01*
X0225275Y0028233D02*
X0225553Y0028233D01*
X0225835Y0027634D02*
X0225028Y0027634D01*
X0224780Y0027036D02*
X0226264Y0027036D01*
X0226930Y0026437D02*
X0224532Y0026437D01*
X0224080Y0025839D02*
X0228107Y0025839D01*
X0228951Y0025839D02*
X0229551Y0025839D01*
X0229551Y0026437D02*
X0228951Y0026437D01*
X0228951Y0027036D02*
X0229551Y0027036D01*
X0229551Y0027634D02*
X0228951Y0027634D01*
X0228951Y0028233D02*
X0229551Y0028233D01*
X0229551Y0028832D02*
X0228951Y0028832D01*
X0230394Y0025839D02*
X0269656Y0025839D01*
X0270254Y0025240D02*
X0223481Y0025240D01*
X0222883Y0024642D02*
X0271604Y0024642D01*
X0285165Y0024642D02*
X0304439Y0024642D01*
X0304439Y0025240D02*
X0286515Y0025240D01*
X0287113Y0025839D02*
X0304439Y0025839D01*
X0304439Y0026437D02*
X0289654Y0026437D01*
X0291099Y0027036D02*
X0304439Y0027036D01*
X0304439Y0027634D02*
X0291821Y0027634D01*
X0292419Y0028233D02*
X0304439Y0028233D01*
X0304439Y0028832D02*
X0293018Y0028832D01*
X0293616Y0029430D02*
X0304439Y0029430D01*
X0304439Y0030029D02*
X0294215Y0030029D01*
X0294813Y0030627D02*
X0304439Y0030627D01*
X0304439Y0031226D02*
X0295412Y0031226D01*
X0296010Y0031824D02*
X0304439Y0031824D01*
X0304439Y0032423D02*
X0296609Y0032423D01*
X0297207Y0033021D02*
X0304439Y0033021D01*
X0304439Y0033620D02*
X0297806Y0033620D01*
X0298404Y0034218D02*
X0304439Y0034218D01*
X0304439Y0034817D02*
X0299003Y0034817D01*
X0299602Y0035415D02*
X0304439Y0035415D01*
X0304439Y0036014D02*
X0300200Y0036014D01*
X0300799Y0036612D02*
X0304439Y0036612D01*
X0304439Y0037211D02*
X0301287Y0037211D01*
X0301535Y0037809D02*
X0304439Y0037809D01*
X0304439Y0038408D02*
X0301783Y0038408D01*
X0301977Y0039006D02*
X0304439Y0039006D01*
X0304439Y0039605D02*
X0301977Y0039605D01*
X0301977Y0040203D02*
X0304439Y0040203D01*
X0304439Y0040802D02*
X0301977Y0040802D01*
X0301977Y0041400D02*
X0304439Y0041400D01*
X0304439Y0041999D02*
X0301977Y0041999D01*
X0301977Y0042597D02*
X0304439Y0042597D01*
X0304439Y0043196D02*
X0301977Y0043196D01*
X0301977Y0043794D02*
X0304439Y0043794D01*
X0304439Y0044393D02*
X0301977Y0044393D01*
X0301977Y0044991D02*
X0304439Y0044991D01*
X0304439Y0045590D02*
X0301977Y0045590D01*
X0301977Y0046188D02*
X0304439Y0046188D01*
X0304439Y0046787D02*
X0301977Y0046787D01*
X0301977Y0047385D02*
X0304439Y0047385D01*
X0304439Y0047984D02*
X0301977Y0047984D01*
X0301977Y0048582D02*
X0304439Y0048582D01*
X0304439Y0049181D02*
X0301977Y0049181D01*
X0301977Y0049779D02*
X0304439Y0049779D01*
X0304439Y0050378D02*
X0301977Y0050378D01*
X0301977Y0050976D02*
X0304439Y0050976D01*
X0304439Y0051575D02*
X0301977Y0051575D01*
X0301977Y0052173D02*
X0304439Y0052173D01*
X0304439Y0052772D02*
X0301977Y0052772D01*
X0301977Y0053370D02*
X0304439Y0053370D01*
X0304439Y0053969D02*
X0301977Y0053969D01*
X0301977Y0054568D02*
X0304439Y0054568D01*
X0304439Y0055166D02*
X0301977Y0055166D01*
X0301977Y0055765D02*
X0304439Y0055765D01*
X0304439Y0056363D02*
X0301977Y0056363D01*
X0301977Y0056962D02*
X0304439Y0056962D01*
X0304439Y0057560D02*
X0301977Y0057560D01*
X0301977Y0058159D02*
X0304439Y0058159D01*
X0304439Y0058757D02*
X0301977Y0058757D01*
X0301977Y0059356D02*
X0304439Y0059356D01*
X0304439Y0059954D02*
X0301977Y0059954D01*
X0301977Y0060553D02*
X0304439Y0060553D01*
X0304439Y0061151D02*
X0301977Y0061151D01*
X0301977Y0061750D02*
X0304439Y0061750D01*
X0304439Y0062348D02*
X0301977Y0062348D01*
X0301977Y0062947D02*
X0304439Y0062947D01*
X0304439Y0063545D02*
X0301977Y0063545D01*
X0301977Y0064144D02*
X0304439Y0064144D01*
X0304439Y0064742D02*
X0301977Y0064742D01*
X0301977Y0065341D02*
X0304439Y0065341D01*
X0304439Y0065939D02*
X0301977Y0065939D01*
X0301977Y0066538D02*
X0304439Y0066538D01*
X0304439Y0067136D02*
X0301977Y0067136D01*
X0301783Y0067735D02*
X0304439Y0067735D01*
X0304439Y0068333D02*
X0301535Y0068333D01*
X0301287Y0068932D02*
X0304439Y0068932D01*
X0304439Y0069530D02*
X0300799Y0069530D01*
X0300201Y0070129D02*
X0304439Y0070129D01*
X0304439Y0070727D02*
X0299602Y0070727D01*
X0300048Y0071326D02*
X0304439Y0071326D01*
X0304439Y0071924D02*
X0300646Y0071924D01*
X0301245Y0072523D02*
X0304439Y0072523D01*
X0304439Y0073121D02*
X0301843Y0073121D01*
X0302181Y0073720D02*
X0304439Y0073720D01*
X0304439Y0074318D02*
X0302429Y0074318D01*
X0302676Y0074917D02*
X0304439Y0074917D01*
X0304439Y0075515D02*
X0302765Y0075515D01*
X0302765Y0076114D02*
X0304439Y0076114D01*
X0304439Y0076712D02*
X0302765Y0076712D01*
X0302765Y0077311D02*
X0304439Y0077311D01*
X0304439Y0077909D02*
X0302765Y0077909D01*
X0302765Y0078508D02*
X0304439Y0078508D01*
X0304439Y0079106D02*
X0302765Y0079106D01*
X0302765Y0079705D02*
X0304439Y0079705D01*
X0304439Y0080303D02*
X0302765Y0080303D01*
X0302765Y0080902D02*
X0304439Y0080902D01*
X0304439Y0081501D02*
X0302765Y0081501D01*
X0302765Y0082099D02*
X0304439Y0082099D01*
X0304439Y0082698D02*
X0302765Y0082698D01*
X0302765Y0083296D02*
X0304439Y0083296D01*
X0304439Y0083895D02*
X0302765Y0083895D01*
X0302765Y0084493D02*
X0304439Y0084493D01*
X0304439Y0085092D02*
X0302765Y0085092D01*
X0302765Y0085690D02*
X0304439Y0085690D01*
X0304439Y0086289D02*
X0302765Y0086289D01*
X0302765Y0086887D02*
X0304439Y0086887D01*
X0304439Y0087486D02*
X0302765Y0087486D01*
X0302765Y0088084D02*
X0304439Y0088084D01*
X0304439Y0088683D02*
X0302765Y0088683D01*
X0302765Y0089281D02*
X0304439Y0089281D01*
X0304439Y0089880D02*
X0302765Y0089880D01*
X0302765Y0090478D02*
X0304439Y0090478D01*
X0304439Y0091077D02*
X0302765Y0091077D01*
X0302765Y0091675D02*
X0304439Y0091675D01*
X0304439Y0092274D02*
X0302765Y0092274D01*
X0302765Y0092872D02*
X0304439Y0092872D01*
X0304439Y0093471D02*
X0302765Y0093471D01*
X0302765Y0094069D02*
X0304439Y0094069D01*
X0304439Y0094668D02*
X0302765Y0094668D01*
X0302765Y0095266D02*
X0304439Y0095266D01*
X0304439Y0095865D02*
X0302765Y0095865D01*
X0302765Y0096463D02*
X0304439Y0096463D01*
X0304439Y0097062D02*
X0302765Y0097062D01*
X0302765Y0097660D02*
X0304439Y0097660D01*
X0304439Y0098259D02*
X0302765Y0098259D01*
X0302765Y0098857D02*
X0304439Y0098857D01*
X0304439Y0099456D02*
X0302765Y0099456D01*
X0302765Y0100054D02*
X0304439Y0100054D01*
X0304439Y0100653D02*
X0302765Y0100653D01*
X0302765Y0101251D02*
X0304439Y0101251D01*
X0304439Y0101850D02*
X0302765Y0101850D01*
X0302765Y0102448D02*
X0304439Y0102448D01*
X0304439Y0103047D02*
X0302765Y0103047D01*
X0302765Y0103645D02*
X0304439Y0103645D01*
X0304439Y0104244D02*
X0302765Y0104244D01*
X0302765Y0104842D02*
X0304439Y0104842D01*
X0304439Y0105441D02*
X0302765Y0105441D01*
X0302765Y0106039D02*
X0304439Y0106039D01*
X0304439Y0106638D02*
X0302765Y0106638D01*
X0302765Y0107237D02*
X0304439Y0107237D01*
X0304439Y0107835D02*
X0302765Y0107835D01*
X0302765Y0108434D02*
X0304439Y0108434D01*
X0304439Y0109032D02*
X0302765Y0109032D01*
X0302765Y0109631D02*
X0304439Y0109631D01*
X0304439Y0110229D02*
X0302765Y0110229D01*
X0302765Y0110828D02*
X0304439Y0110828D01*
X0304439Y0111426D02*
X0302765Y0111426D01*
X0302765Y0112025D02*
X0304439Y0112025D01*
X0304439Y0112623D02*
X0302765Y0112623D01*
X0302765Y0113222D02*
X0304439Y0113222D01*
X0304439Y0113820D02*
X0302765Y0113820D01*
X0302765Y0114419D02*
X0304439Y0114419D01*
X0304439Y0115017D02*
X0302765Y0115017D01*
X0302765Y0115616D02*
X0304439Y0115616D01*
X0304439Y0116214D02*
X0302765Y0116214D01*
X0302765Y0116813D02*
X0304439Y0116813D01*
X0304439Y0117411D02*
X0302765Y0117411D01*
X0302765Y0118010D02*
X0304439Y0118010D01*
X0304439Y0118608D02*
X0302765Y0118608D01*
X0302765Y0119207D02*
X0304439Y0119207D01*
X0304439Y0119805D02*
X0302765Y0119805D01*
X0302765Y0120404D02*
X0304439Y0120404D01*
X0304439Y0121002D02*
X0302765Y0121002D01*
X0302765Y0121601D02*
X0304439Y0121601D01*
X0304439Y0122199D02*
X0302765Y0122199D01*
X0302765Y0122798D02*
X0304439Y0122798D01*
X0304439Y0123396D02*
X0302765Y0123396D01*
X0302765Y0123995D02*
X0304439Y0123995D01*
X0304439Y0124593D02*
X0302765Y0124593D01*
X0302765Y0125192D02*
X0304439Y0125192D01*
X0304439Y0125790D02*
X0302765Y0125790D01*
X0302573Y0126389D02*
X0304439Y0126389D01*
X0304439Y0126987D02*
X0302325Y0126987D01*
X0302077Y0127586D02*
X0304439Y0127586D01*
X0304439Y0128184D02*
X0301594Y0128184D01*
X0300996Y0128783D02*
X0304439Y0128783D01*
X0304439Y0129381D02*
X0300397Y0129381D01*
X0299799Y0129980D02*
X0304439Y0129980D01*
X0304439Y0130578D02*
X0300349Y0130578D01*
X0300948Y0131177D02*
X0304439Y0131177D01*
X0304439Y0131775D02*
X0301546Y0131775D01*
X0302145Y0132374D02*
X0304439Y0132374D01*
X0304439Y0132972D02*
X0302536Y0132972D01*
X0302784Y0133571D02*
X0304439Y0133571D01*
X0304439Y0134170D02*
X0303032Y0134170D01*
X0303159Y0134768D02*
X0304439Y0134768D01*
X0304439Y0135367D02*
X0303159Y0135367D01*
X0303159Y0135965D02*
X0304439Y0135965D01*
X0304439Y0136564D02*
X0303159Y0136564D01*
X0303159Y0137162D02*
X0304439Y0137162D01*
X0304439Y0137761D02*
X0303159Y0137761D01*
X0303159Y0138359D02*
X0304439Y0138359D01*
X0304439Y0138958D02*
X0303159Y0138958D01*
X0303159Y0139556D02*
X0304439Y0139556D01*
X0304439Y0140155D02*
X0303159Y0140155D01*
X0303159Y0140753D02*
X0304439Y0140753D01*
X0304439Y0141352D02*
X0303159Y0141352D01*
X0303159Y0141950D02*
X0304439Y0141950D01*
X0304439Y0142549D02*
X0303159Y0142549D01*
X0303159Y0143147D02*
X0304439Y0143147D01*
X0304439Y0143746D02*
X0303159Y0143746D01*
X0303159Y0144344D02*
X0304439Y0144344D01*
X0304439Y0144943D02*
X0303159Y0144943D01*
X0303159Y0145541D02*
X0304439Y0145541D01*
X0304439Y0146140D02*
X0303159Y0146140D01*
X0303159Y0146738D02*
X0304439Y0146738D01*
X0304439Y0147337D02*
X0303159Y0147337D01*
X0303159Y0147935D02*
X0304439Y0147935D01*
X0304439Y0148534D02*
X0303159Y0148534D01*
X0303159Y0149132D02*
X0304439Y0149132D01*
X0304439Y0149731D02*
X0303159Y0149731D01*
X0303159Y0150329D02*
X0304439Y0150329D01*
X0304439Y0150928D02*
X0303159Y0150928D01*
X0303159Y0151526D02*
X0304439Y0151526D01*
X0304439Y0152125D02*
X0303159Y0152125D01*
X0303159Y0152723D02*
X0304439Y0152723D01*
X0304439Y0153322D02*
X0303159Y0153322D01*
X0303159Y0153920D02*
X0304439Y0153920D01*
X0304439Y0154519D02*
X0303159Y0154519D01*
X0303159Y0155117D02*
X0304439Y0155117D01*
X0304439Y0155716D02*
X0303159Y0155716D01*
X0303159Y0156314D02*
X0304439Y0156314D01*
X0304439Y0156913D02*
X0303159Y0156913D01*
X0303159Y0157511D02*
X0304439Y0157511D01*
X0304439Y0158110D02*
X0303159Y0158110D01*
X0303159Y0158708D02*
X0304439Y0158708D01*
X0304439Y0159307D02*
X0303159Y0159307D01*
X0303159Y0159905D02*
X0304439Y0159905D01*
X0304439Y0160504D02*
X0303159Y0160504D01*
X0303159Y0161103D02*
X0304439Y0161103D01*
X0304439Y0161701D02*
X0303159Y0161701D01*
X0303159Y0162300D02*
X0304439Y0162300D01*
X0304439Y0162898D02*
X0303159Y0162898D01*
X0303159Y0163497D02*
X0304439Y0163497D01*
X0304439Y0164095D02*
X0303159Y0164095D01*
X0303159Y0164694D02*
X0304439Y0164694D01*
X0304439Y0165292D02*
X0303159Y0165292D01*
X0303159Y0165891D02*
X0304439Y0165891D01*
X0304439Y0166489D02*
X0303159Y0166489D01*
X0303159Y0167088D02*
X0304439Y0167088D01*
X0304439Y0167686D02*
X0303159Y0167686D01*
X0303159Y0168285D02*
X0304439Y0168285D01*
X0304439Y0168883D02*
X0303159Y0168883D01*
X0303159Y0169482D02*
X0304439Y0169482D01*
X0304439Y0170080D02*
X0303159Y0170080D01*
X0303159Y0170679D02*
X0304439Y0170679D01*
X0304439Y0171277D02*
X0303159Y0171277D01*
X0303159Y0171876D02*
X0304439Y0171876D01*
X0304439Y0172474D02*
X0303159Y0172474D01*
X0303159Y0173073D02*
X0304439Y0173073D01*
X0304439Y0173671D02*
X0303159Y0173671D01*
X0303159Y0174270D02*
X0304439Y0174270D01*
X0304439Y0174868D02*
X0303159Y0174868D01*
X0303159Y0175467D02*
X0304439Y0175467D01*
X0304439Y0176065D02*
X0303159Y0176065D01*
X0303159Y0176664D02*
X0304439Y0176664D01*
X0304439Y0177262D02*
X0303159Y0177262D01*
X0303159Y0177861D02*
X0304439Y0177861D01*
X0304439Y0178459D02*
X0303159Y0178459D01*
X0303159Y0179058D02*
X0304439Y0179058D01*
X0304439Y0179656D02*
X0303159Y0179656D01*
X0303159Y0180255D02*
X0304439Y0180255D01*
X0304439Y0180853D02*
X0303159Y0180853D01*
X0303159Y0181452D02*
X0304439Y0181452D01*
X0304439Y0182050D02*
X0303159Y0182050D01*
X0303159Y0182649D02*
X0304439Y0182649D01*
X0304439Y0183247D02*
X0303159Y0183247D01*
X0303159Y0183846D02*
X0304439Y0183846D01*
X0304439Y0184444D02*
X0303159Y0184444D01*
X0303159Y0185043D02*
X0304439Y0185043D01*
X0304439Y0185641D02*
X0303159Y0185641D01*
X0303159Y0186240D02*
X0304439Y0186240D01*
X0304439Y0186839D02*
X0303042Y0186839D01*
X0302794Y0187437D02*
X0304439Y0187437D01*
X0304439Y0188036D02*
X0302546Y0188036D01*
X0302168Y0188634D02*
X0304439Y0188634D01*
X0304439Y0189233D02*
X0301844Y0189233D01*
X0302443Y0189831D02*
X0304439Y0189831D01*
X0304439Y0190430D02*
X0302890Y0190430D01*
X0303138Y0191028D02*
X0304439Y0191028D01*
X0304439Y0191627D02*
X0303386Y0191627D01*
X0303552Y0192225D02*
X0304439Y0192225D01*
X0304439Y0192824D02*
X0303552Y0192824D01*
X0303552Y0193422D02*
X0304439Y0193422D01*
X0304439Y0194021D02*
X0303552Y0194021D01*
X0303552Y0194619D02*
X0304439Y0194619D01*
X0304439Y0195218D02*
X0303552Y0195218D01*
X0303552Y0195816D02*
X0304439Y0195816D01*
X0304439Y0196415D02*
X0303552Y0196415D01*
X0303552Y0197013D02*
X0304439Y0197013D01*
X0304439Y0197612D02*
X0303552Y0197612D01*
X0303552Y0198210D02*
X0304439Y0198210D01*
X0304439Y0198809D02*
X0303552Y0198809D01*
X0303552Y0199407D02*
X0304439Y0199407D01*
X0304439Y0200006D02*
X0303552Y0200006D01*
X0303552Y0200604D02*
X0304439Y0200604D01*
X0304439Y0201203D02*
X0303552Y0201203D01*
X0303552Y0201801D02*
X0304439Y0201801D01*
X0304439Y0202400D02*
X0303552Y0202400D01*
X0303552Y0202998D02*
X0304439Y0202998D01*
X0304439Y0203597D02*
X0303552Y0203597D01*
X0303552Y0204195D02*
X0304439Y0204195D01*
X0304439Y0204794D02*
X0303552Y0204794D01*
X0303552Y0205392D02*
X0304439Y0205392D01*
X0304439Y0205991D02*
X0303552Y0205991D01*
X0303552Y0206589D02*
X0304439Y0206589D01*
X0304439Y0207188D02*
X0303552Y0207188D01*
X0303552Y0207786D02*
X0304439Y0207786D01*
X0304439Y0208385D02*
X0303552Y0208385D01*
X0303552Y0208983D02*
X0304439Y0208983D01*
X0304439Y0209582D02*
X0303552Y0209582D01*
X0303552Y0210180D02*
X0304439Y0210180D01*
X0304439Y0210779D02*
X0303552Y0210779D01*
X0303552Y0211377D02*
X0304439Y0211377D01*
X0304439Y0211976D02*
X0303552Y0211976D01*
X0303552Y0212574D02*
X0304439Y0212574D01*
X0304439Y0213173D02*
X0303552Y0213173D01*
X0303552Y0213772D02*
X0304439Y0213772D01*
X0304439Y0214370D02*
X0303552Y0214370D01*
X0303552Y0214969D02*
X0304439Y0214969D01*
X0304439Y0215567D02*
X0303552Y0215567D01*
X0303552Y0216166D02*
X0304439Y0216166D01*
X0304439Y0216764D02*
X0303552Y0216764D01*
X0303552Y0217363D02*
X0304439Y0217363D01*
X0304439Y0217961D02*
X0303552Y0217961D01*
X0303552Y0218560D02*
X0304439Y0218560D01*
X0304439Y0219158D02*
X0303552Y0219158D01*
X0303552Y0219757D02*
X0304439Y0219757D01*
X0304439Y0220355D02*
X0303552Y0220355D01*
X0303552Y0220954D02*
X0304439Y0220954D01*
X0304439Y0221552D02*
X0303552Y0221552D01*
X0303552Y0222151D02*
X0304439Y0222151D01*
X0304439Y0222749D02*
X0303552Y0222749D01*
X0303552Y0223348D02*
X0304439Y0223348D01*
X0304439Y0223946D02*
X0303552Y0223946D01*
X0303325Y0224545D02*
X0304439Y0224545D01*
X0304439Y0225143D02*
X0303077Y0225143D01*
X0302829Y0225742D02*
X0304439Y0225742D01*
X0304439Y0226340D02*
X0302296Y0226340D01*
X0301697Y0226939D02*
X0304439Y0226939D01*
X0304439Y0227537D02*
X0301099Y0227537D01*
X0300984Y0228136D02*
X0304439Y0228136D01*
X0304439Y0228734D02*
X0301582Y0228734D01*
X0302181Y0229333D02*
X0304439Y0229333D01*
X0304439Y0229931D02*
X0302779Y0229931D01*
X0303378Y0230530D02*
X0304439Y0230530D01*
X0304439Y0231128D02*
X0303739Y0231128D01*
X0303987Y0231727D02*
X0304439Y0231727D01*
X0304439Y0232325D02*
X0304235Y0232325D01*
X0304340Y0232924D02*
X0304439Y0232924D01*
X0304439Y0233522D02*
X0304340Y0233522D01*
X0304340Y0234121D02*
X0304439Y0234121D01*
X0304439Y0234719D02*
X0304340Y0234719D01*
X0304340Y0235318D02*
X0304439Y0235318D01*
X0304439Y0235916D02*
X0304340Y0235916D01*
X0304340Y0236515D02*
X0304439Y0236515D01*
X0304439Y0237113D02*
X0304340Y0237113D01*
X0304340Y0237712D02*
X0304439Y0237712D01*
X0304439Y0238310D02*
X0304340Y0238310D01*
X0304340Y0238909D02*
X0304439Y0238909D01*
X0304439Y0239508D02*
X0304340Y0239508D01*
X0304340Y0240106D02*
X0304439Y0240106D01*
X0304439Y0240705D02*
X0304340Y0240705D01*
X0304340Y0241303D02*
X0304439Y0241303D01*
X0304439Y0241902D02*
X0304340Y0241902D01*
X0304340Y0242500D02*
X0304439Y0242500D01*
X0304439Y0243099D02*
X0304340Y0243099D01*
X0304340Y0243697D02*
X0304439Y0243697D01*
X0304439Y0244296D02*
X0304340Y0244296D01*
X0304340Y0244894D02*
X0304439Y0244894D01*
X0304439Y0245493D02*
X0304340Y0245493D01*
X0304340Y0246091D02*
X0304439Y0246091D01*
X0304439Y0246690D02*
X0304340Y0246690D01*
X0304340Y0247288D02*
X0304439Y0247288D01*
X0304439Y0247887D02*
X0304340Y0247887D01*
X0304340Y0248485D02*
X0304439Y0248485D01*
X0304439Y0249084D02*
X0304340Y0249084D01*
X0304340Y0249682D02*
X0304439Y0249682D01*
X0304439Y0250281D02*
X0304340Y0250281D01*
X0304340Y0250879D02*
X0304439Y0250879D01*
X0304439Y0251478D02*
X0304340Y0251478D01*
X0304340Y0252076D02*
X0304439Y0252076D01*
X0304439Y0252675D02*
X0304340Y0252675D01*
X0304340Y0253273D02*
X0304439Y0253273D01*
X0304439Y0253872D02*
X0304340Y0253872D01*
X0304340Y0254470D02*
X0304439Y0254470D01*
X0304439Y0255069D02*
X0304173Y0255069D01*
X0303925Y0255667D02*
X0304439Y0255667D01*
X0304439Y0256266D02*
X0303677Y0256266D01*
X0303229Y0256864D02*
X0304439Y0256864D01*
X0304439Y0257463D02*
X0302631Y0257463D01*
X0302032Y0258061D02*
X0304439Y0258061D01*
X0304439Y0258660D02*
X0301434Y0258660D01*
X0300835Y0259258D02*
X0304439Y0259258D01*
X0304439Y0259857D02*
X0300237Y0259857D01*
X0299638Y0260455D02*
X0304439Y0260455D01*
X0304439Y0261054D02*
X0299040Y0261054D01*
X0298441Y0261652D02*
X0304439Y0261652D01*
X0304439Y0262251D02*
X0297842Y0262251D01*
X0297244Y0262849D02*
X0304439Y0262849D01*
X0304439Y0263448D02*
X0296645Y0263448D01*
X0296047Y0264046D02*
X0304439Y0264046D01*
X0304439Y0264645D02*
X0295448Y0264645D01*
X0290144Y0255667D02*
X0082058Y0255667D01*
X0081460Y0255069D02*
X0271852Y0255069D01*
X0273023Y0255554D02*
X0270321Y0254435D01*
X0269140Y0253254D01*
X0081410Y0253254D01*
X0079554Y0252485D01*
X0049340Y0222271D01*
X0048571Y0220415D01*
X0048571Y0204966D01*
X0043794Y0200189D01*
X0037038Y0200189D01*
X0035857Y0201370D01*
X0033156Y0202489D01*
X0022432Y0202489D01*
X0019731Y0201370D01*
X0017663Y0199303D01*
X0016544Y0196601D01*
X0016544Y0193677D01*
X0017663Y0190976D01*
X0019731Y0188909D01*
X0022432Y0187790D01*
X0033156Y0187790D01*
X0035857Y0188909D01*
X0037038Y0190090D01*
X0046890Y0190090D01*
X0048746Y0190859D01*
X0050166Y0192279D01*
X0057902Y0200014D01*
X0058670Y0201870D01*
X0058670Y0217319D01*
X0084506Y0243154D01*
X0140791Y0243154D01*
X0138684Y0241047D01*
X0137302Y0237711D01*
X0137302Y0234101D01*
X0138684Y0230766D01*
X0141236Y0228213D01*
X0141327Y0228176D01*
X0141327Y0221319D01*
X0142096Y0219463D01*
X0143516Y0218043D01*
X0154064Y0207495D01*
X0154064Y0207495D01*
X0155485Y0206074D01*
X0157341Y0205306D01*
X0189365Y0205306D01*
X0189513Y0205158D01*
X0187939Y0203585D01*
X0187018Y0201362D01*
X0187018Y0198955D01*
X0187939Y0196731D01*
X0189513Y0195158D01*
X0187939Y0193585D01*
X0187018Y0191362D01*
X0187018Y0188955D01*
X0187939Y0186731D01*
X0189513Y0185158D01*
X0187939Y0183585D01*
X0187018Y0181362D01*
X0187018Y0178955D01*
X0187939Y0176731D01*
X0189641Y0175030D01*
X0191865Y0174109D01*
X0191884Y0174109D01*
X0188092Y0170316D01*
X0188092Y0164725D01*
X0189792Y0163025D01*
X0189792Y0159890D01*
X0188092Y0158190D01*
X0188092Y0155073D01*
X0187804Y0155360D01*
X0187804Y0170021D01*
X0187035Y0171877D01*
X0179192Y0179720D01*
X0177336Y0180489D01*
X0037038Y0180489D01*
X0035857Y0181670D01*
X0033156Y0182789D01*
X0022432Y0182789D01*
X0019731Y0181670D01*
X0017663Y0179603D01*
X0016544Y0176901D01*
X0016544Y0173977D01*
X0017663Y0171276D01*
X0019731Y0169209D01*
X0022432Y0168090D01*
X0033156Y0168090D01*
X0035857Y0169209D01*
X0037038Y0170390D01*
X0174240Y0170390D01*
X0177705Y0166925D01*
X0177705Y0152264D01*
X0178474Y0150408D01*
X0179894Y0148988D01*
X0184343Y0144539D01*
X0182878Y0144539D01*
X0167111Y0160305D01*
X0165255Y0161074D01*
X0036853Y0161074D01*
X0035857Y0162070D01*
X0033156Y0163189D01*
X0022432Y0163189D01*
X0019731Y0162070D01*
X0017663Y0160003D01*
X0016544Y0157301D01*
X0016544Y0154377D01*
X0017663Y0151676D01*
X0019731Y0149609D01*
X0022432Y0148490D01*
X0033156Y0148490D01*
X0035857Y0149609D01*
X0037223Y0150975D01*
X0162159Y0150975D01*
X0176863Y0136271D01*
X0156106Y0136271D01*
X0153177Y0139200D01*
X0151757Y0140620D01*
X0149901Y0141389D01*
X0036738Y0141389D01*
X0035857Y0142270D01*
X0033156Y0143389D01*
X0022432Y0143389D01*
X0019731Y0142270D01*
X0017663Y0140203D01*
X0016544Y0137501D01*
X0016544Y0134577D01*
X0017663Y0131876D01*
X0019731Y0129809D01*
X0022432Y0128690D01*
X0033156Y0128690D01*
X0035857Y0129809D01*
X0037338Y0131290D01*
X0146805Y0131290D01*
X0149734Y0128361D01*
X0151154Y0126940D01*
X0153010Y0126172D01*
X0229428Y0126172D01*
X0231284Y0126940D01*
X0232705Y0128361D01*
X0248898Y0144554D01*
X0269140Y0144554D01*
X0270321Y0143373D01*
X0273023Y0142254D01*
X0283746Y0142254D01*
X0286448Y0143373D01*
X0288515Y0145441D01*
X0289634Y0148142D01*
X0289634Y0151066D01*
X0288515Y0153767D01*
X0286448Y0155835D01*
X0283746Y0156954D01*
X0273023Y0156954D01*
X0270321Y0155835D01*
X0269140Y0154654D01*
X0245802Y0154654D01*
X0243946Y0153885D01*
X0242529Y0152467D01*
X0242529Y0161807D01*
X0244976Y0164254D01*
X0269140Y0164254D01*
X0270321Y0163073D01*
X0273023Y0161954D01*
X0283746Y0161954D01*
X0286448Y0163073D01*
X0288515Y0165141D01*
X0289634Y0167842D01*
X0289634Y0170766D01*
X0288515Y0173467D01*
X0286448Y0175535D01*
X0283746Y0176654D01*
X0273023Y0176654D01*
X0270321Y0175535D01*
X0269140Y0174354D01*
X0258416Y0174354D01*
X0260977Y0176914D01*
X0260977Y0178520D01*
X0256677Y0178520D01*
X0256677Y0179120D01*
X0256077Y0179120D01*
X0256077Y0183420D01*
X0254471Y0183420D01*
X0251777Y0180725D01*
X0251777Y0179120D01*
X0256077Y0179120D01*
X0256077Y0178520D01*
X0251777Y0178520D01*
X0251777Y0176914D01*
X0254337Y0174354D01*
X0241880Y0174354D01*
X0240024Y0173585D01*
X0234619Y0168179D01*
X0233198Y0166759D01*
X0232429Y0164903D01*
X0232429Y0151423D01*
X0225545Y0144539D01*
X0221126Y0144539D01*
X0221484Y0144896D01*
X0225233Y0148645D01*
X0227637Y0148645D01*
X0231591Y0152599D01*
X0231591Y0158190D01*
X0227637Y0162144D01*
X0222450Y0162144D01*
X0222450Y0163406D01*
X0222936Y0162920D01*
X0224541Y0162920D01*
X0224541Y0167220D01*
X0225141Y0167220D01*
X0225141Y0162920D01*
X0226747Y0162920D01*
X0229441Y0165615D01*
X0229441Y0167220D01*
X0225141Y0167220D01*
X0225141Y0167820D01*
X0229441Y0167820D01*
X0229441Y0169426D01*
X0226747Y0172120D01*
X0225141Y0172120D01*
X0225141Y0167821D01*
X0224541Y0167821D01*
X0224541Y0172120D01*
X0222936Y0172120D01*
X0222450Y0171634D01*
X0222450Y0173618D01*
X0222941Y0174109D01*
X0229471Y0174109D01*
X0231695Y0175030D01*
X0233397Y0176731D01*
X0234318Y0178955D01*
X0234318Y0181362D01*
X0233397Y0183585D01*
X0231823Y0185158D01*
X0233397Y0186731D01*
X0234318Y0188955D01*
X0234318Y0191362D01*
X0233397Y0193585D01*
X0231873Y0195109D01*
X0243641Y0195109D01*
X0245497Y0195877D01*
X0246917Y0197298D01*
X0247196Y0197970D01*
X0252438Y0203213D01*
X0253581Y0202070D01*
X0259172Y0202070D01*
X0260857Y0203754D01*
X0269140Y0203754D01*
X0270321Y0202573D01*
X0273023Y0201454D01*
X0283746Y0201454D01*
X0286448Y0202573D01*
X0288515Y0204641D01*
X0289634Y0207342D01*
X0289634Y0210266D01*
X0288515Y0212967D01*
X0286448Y0215035D01*
X0283746Y0216154D01*
X0273023Y0216154D01*
X0270321Y0215035D01*
X0269140Y0213854D01*
X0260888Y0213854D01*
X0259172Y0215569D01*
X0253581Y0215569D01*
X0251448Y0213436D01*
X0249467Y0213436D01*
X0247611Y0212667D01*
X0246190Y0211247D01*
X0240151Y0205208D01*
X0231774Y0205208D01*
X0231695Y0205287D01*
X0229471Y0206208D01*
X0221865Y0206208D01*
X0219641Y0205287D01*
X0217939Y0203585D01*
X0217018Y0201362D01*
X0217018Y0198955D01*
X0217939Y0196731D01*
X0219345Y0195326D01*
X0213246Y0195326D01*
X0211390Y0194557D01*
X0209970Y0193137D01*
X0206033Y0189200D01*
X0205264Y0187344D01*
X0205264Y0176620D01*
X0201214Y0172570D01*
X0199337Y0172570D01*
X0197798Y0174109D01*
X0199471Y0174109D01*
X0201695Y0175030D01*
X0203397Y0176731D01*
X0204318Y0178955D01*
X0204318Y0181362D01*
X0203397Y0183585D01*
X0201823Y0185158D01*
X0203397Y0186731D01*
X0204318Y0188955D01*
X0204318Y0191362D01*
X0203397Y0193585D01*
X0201823Y0195158D01*
X0203397Y0196731D01*
X0204318Y0198955D01*
X0204318Y0201362D01*
X0203397Y0203585D01*
X0201823Y0205158D01*
X0203397Y0206731D01*
X0204318Y0208955D01*
X0204318Y0211362D01*
X0203397Y0213585D01*
X0201823Y0215158D01*
X0203397Y0216731D01*
X0204318Y0218955D01*
X0204318Y0221362D01*
X0203397Y0223585D01*
X0201823Y0225158D01*
X0203397Y0226731D01*
X0204318Y0228955D01*
X0204318Y0231362D01*
X0203397Y0233585D01*
X0201823Y0235158D01*
X0203397Y0236731D01*
X0204318Y0238955D01*
X0204318Y0241362D01*
X0203575Y0243154D01*
X0217761Y0243154D01*
X0217018Y0241362D01*
X0217018Y0238955D01*
X0217939Y0236731D01*
X0219513Y0235158D01*
X0217939Y0233585D01*
X0217018Y0231362D01*
X0217018Y0228955D01*
X0217939Y0226731D01*
X0219513Y0225158D01*
X0217939Y0223585D01*
X0217018Y0221362D01*
X0217018Y0218955D01*
X0217939Y0216731D01*
X0219641Y0215030D01*
X0221865Y0214109D01*
X0229471Y0214109D01*
X0231695Y0215030D01*
X0233397Y0216731D01*
X0234318Y0218955D01*
X0234318Y0221362D01*
X0233397Y0223585D01*
X0231823Y0225158D01*
X0233397Y0226731D01*
X0234318Y0228955D01*
X0234318Y0231362D01*
X0233397Y0233585D01*
X0231823Y0235158D01*
X0232851Y0236186D01*
X0235077Y0233960D01*
X0240668Y0233960D01*
X0244622Y0237914D01*
X0244622Y0243154D01*
X0269140Y0243154D01*
X0270321Y0241973D01*
X0273023Y0240854D01*
X0283746Y0240854D01*
X0286448Y0241973D01*
X0288515Y0244041D01*
X0289634Y0246742D01*
X0289634Y0249666D01*
X0288515Y0252367D01*
X0286448Y0254435D01*
X0283746Y0255554D01*
X0273023Y0255554D01*
X0270407Y0254470D02*
X0080861Y0254470D01*
X0080263Y0253872D02*
X0269758Y0253872D01*
X0269160Y0253273D02*
X0079664Y0253273D01*
X0080013Y0252675D02*
X0079066Y0252675D01*
X0079146Y0252076D02*
X0078467Y0252076D01*
X0078547Y0251478D02*
X0077869Y0251478D01*
X0077948Y0250879D02*
X0077270Y0250879D01*
X0077350Y0250281D02*
X0076672Y0250281D01*
X0076751Y0249682D02*
X0076073Y0249682D01*
X0076153Y0249084D02*
X0075475Y0249084D01*
X0075554Y0248485D02*
X0074876Y0248485D01*
X0074956Y0247887D02*
X0074278Y0247887D01*
X0074357Y0247288D02*
X0073679Y0247288D01*
X0073759Y0246690D02*
X0073081Y0246690D01*
X0073160Y0246091D02*
X0072482Y0246091D01*
X0072562Y0245493D02*
X0071884Y0245493D01*
X0071963Y0244894D02*
X0071285Y0244894D01*
X0071365Y0244296D02*
X0070687Y0244296D01*
X0070766Y0243697D02*
X0070088Y0243697D01*
X0070168Y0243099D02*
X0069490Y0243099D01*
X0069569Y0242500D02*
X0068891Y0242500D01*
X0068971Y0241902D02*
X0068293Y0241902D01*
X0068372Y0241303D02*
X0067694Y0241303D01*
X0067774Y0240705D02*
X0067096Y0240705D01*
X0067175Y0240106D02*
X0066497Y0240106D01*
X0066577Y0239508D02*
X0065899Y0239508D01*
X0065978Y0238909D02*
X0065300Y0238909D01*
X0065380Y0238310D02*
X0064702Y0238310D01*
X0064781Y0237712D02*
X0064103Y0237712D01*
X0064183Y0237113D02*
X0063505Y0237113D01*
X0063584Y0236515D02*
X0062906Y0236515D01*
X0062986Y0235916D02*
X0062308Y0235916D01*
X0062387Y0235318D02*
X0061709Y0235318D01*
X0061789Y0234719D02*
X0061110Y0234719D01*
X0061190Y0234121D02*
X0060512Y0234121D01*
X0060592Y0233522D02*
X0059913Y0233522D01*
X0059993Y0232924D02*
X0059315Y0232924D01*
X0059395Y0232325D02*
X0058716Y0232325D01*
X0058796Y0231727D02*
X0058118Y0231727D01*
X0058198Y0231128D02*
X0057519Y0231128D01*
X0057599Y0230530D02*
X0056921Y0230530D01*
X0057001Y0229931D02*
X0056322Y0229931D01*
X0056402Y0229333D02*
X0055724Y0229333D01*
X0055804Y0228734D02*
X0055125Y0228734D01*
X0055205Y0228136D02*
X0054527Y0228136D01*
X0054607Y0227537D02*
X0053928Y0227537D01*
X0054008Y0226939D02*
X0053330Y0226939D01*
X0053410Y0226340D02*
X0052731Y0226340D01*
X0052811Y0225742D02*
X0052133Y0225742D01*
X0052213Y0225143D02*
X0051534Y0225143D01*
X0051614Y0224545D02*
X0050936Y0224545D01*
X0051015Y0223946D02*
X0050337Y0223946D01*
X0050417Y0223348D02*
X0049739Y0223348D01*
X0049818Y0222749D02*
X0049140Y0222749D01*
X0049290Y0222151D02*
X0048542Y0222151D01*
X0049042Y0221552D02*
X0047943Y0221552D01*
X0047345Y0220954D02*
X0048794Y0220954D01*
X0048571Y0220355D02*
X0046145Y0220355D01*
X0048571Y0219757D02*
X0036822Y0219757D01*
X0036224Y0219158D02*
X0048571Y0219158D01*
X0048571Y0218560D02*
X0035242Y0218560D01*
X0033797Y0217961D02*
X0048571Y0217961D01*
X0048571Y0217363D02*
X0009889Y0217363D01*
X0009889Y0217961D02*
X0021870Y0217961D01*
X0020425Y0218560D02*
X0009889Y0218560D01*
X0009889Y0219158D02*
X0019443Y0219158D01*
X0018844Y0219757D02*
X0009889Y0219757D01*
X0009889Y0220355D02*
X0018246Y0220355D01*
X0017680Y0220954D02*
X0009889Y0220954D01*
X0009889Y0221552D02*
X0017432Y0221552D01*
X0017184Y0222151D02*
X0009889Y0222151D01*
X0009889Y0222749D02*
X0016936Y0222749D01*
X0016688Y0223348D02*
X0009889Y0223348D01*
X0009889Y0223946D02*
X0016584Y0223946D01*
X0016584Y0224545D02*
X0009889Y0224545D01*
X0009889Y0225143D02*
X0016584Y0225143D01*
X0016584Y0225742D02*
X0009889Y0225742D01*
X0009889Y0226340D02*
X0016584Y0226340D01*
X0016756Y0226939D02*
X0009889Y0226939D01*
X0009889Y0227537D02*
X0017004Y0227537D01*
X0017252Y0228136D02*
X0009889Y0228136D01*
X0009889Y0228734D02*
X0017500Y0228734D01*
X0017811Y0229333D02*
X0009889Y0229333D01*
X0009889Y0229931D02*
X0018409Y0229931D01*
X0019008Y0230530D02*
X0009889Y0230530D01*
X0009889Y0231128D02*
X0019606Y0231128D01*
X0020820Y0231727D02*
X0009889Y0231727D01*
X0009889Y0232325D02*
X0022265Y0232325D01*
X0023524Y0239661D02*
X0027533Y0239661D01*
X0027533Y0244561D01*
X0028133Y0244561D01*
X0028133Y0239661D01*
X0032143Y0239661D01*
X0032951Y0239789D01*
X0033729Y0240042D01*
X0034459Y0240414D01*
X0035121Y0240895D01*
X0035700Y0241474D01*
X0036181Y0242136D01*
X0036552Y0242865D01*
X0036805Y0243644D01*
X0036933Y0244452D01*
X0036933Y0244561D01*
X0028133Y0244561D01*
X0028133Y0245161D01*
X0036933Y0245161D01*
X0036933Y0245271D01*
X0036805Y0246079D01*
X0036552Y0246858D01*
X0036181Y0247587D01*
X0035700Y0248249D01*
X0035121Y0248828D01*
X0034459Y0249309D01*
X0033729Y0249680D01*
X0032951Y0249933D01*
X0032143Y0250061D01*
X0028133Y0250061D01*
X0028133Y0245161D01*
X0027533Y0245161D01*
X0027533Y0244561D01*
X0018733Y0244561D01*
X0018733Y0244452D01*
X0018861Y0243644D01*
X0019114Y0242865D01*
X0019486Y0242136D01*
X0019967Y0241474D01*
X0020546Y0240895D01*
X0021208Y0240414D01*
X0021937Y0240042D01*
X0022716Y0239789D01*
X0023524Y0239661D01*
X0021812Y0240106D02*
X0009889Y0240106D01*
X0009889Y0239508D02*
X0051616Y0239508D01*
X0052215Y0240106D02*
X0033854Y0240106D01*
X0034859Y0240705D02*
X0052813Y0240705D01*
X0053412Y0241303D02*
X0035529Y0241303D01*
X0036010Y0241902D02*
X0054010Y0241902D01*
X0054609Y0242500D02*
X0036366Y0242500D01*
X0036628Y0243099D02*
X0055207Y0243099D01*
X0055806Y0243697D02*
X0036814Y0243697D01*
X0036909Y0244296D02*
X0056404Y0244296D01*
X0057003Y0244894D02*
X0028133Y0244894D01*
X0028133Y0244296D02*
X0027533Y0244296D01*
X0027533Y0244894D02*
X0009889Y0244894D01*
X0009889Y0244296D02*
X0018758Y0244296D01*
X0018853Y0243697D02*
X0009889Y0243697D01*
X0009889Y0243099D02*
X0019038Y0243099D01*
X0019300Y0242500D02*
X0009889Y0242500D01*
X0009889Y0241902D02*
X0019656Y0241902D01*
X0020138Y0241303D02*
X0009889Y0241303D01*
X0009889Y0240705D02*
X0020808Y0240705D01*
X0018733Y0245161D02*
X0027533Y0245161D01*
X0027533Y0250061D01*
X0023524Y0250061D01*
X0022716Y0249933D01*
X0021937Y0249680D01*
X0021208Y0249309D01*
X0020546Y0248828D01*
X0019967Y0248249D01*
X0019486Y0247587D01*
X0019114Y0246858D01*
X0018861Y0246079D01*
X0018733Y0245271D01*
X0018733Y0245161D01*
X0018768Y0245493D02*
X0009889Y0245493D01*
X0009889Y0246091D02*
X0018865Y0246091D01*
X0019060Y0246690D02*
X0009889Y0246690D01*
X0009889Y0247288D02*
X0019334Y0247288D01*
X0019704Y0247887D02*
X0009889Y0247887D01*
X0009889Y0248485D02*
X0020203Y0248485D01*
X0020898Y0249084D02*
X0009889Y0249084D01*
X0009889Y0249682D02*
X0021943Y0249682D01*
X0027533Y0249682D02*
X0028133Y0249682D01*
X0028133Y0249084D02*
X0027533Y0249084D01*
X0027533Y0248485D02*
X0028133Y0248485D01*
X0028133Y0247887D02*
X0027533Y0247887D01*
X0027533Y0247288D02*
X0028133Y0247288D01*
X0028133Y0246690D02*
X0027533Y0246690D01*
X0027533Y0246091D02*
X0028133Y0246091D01*
X0028133Y0245493D02*
X0027533Y0245493D01*
X0027533Y0243697D02*
X0028133Y0243697D01*
X0028133Y0243099D02*
X0027533Y0243099D01*
X0027533Y0242500D02*
X0028133Y0242500D01*
X0028133Y0241902D02*
X0027533Y0241902D01*
X0027533Y0241303D02*
X0028133Y0241303D01*
X0028133Y0240705D02*
X0027533Y0240705D01*
X0027533Y0240106D02*
X0028133Y0240106D01*
X0036898Y0245493D02*
X0057601Y0245493D01*
X0058200Y0246091D02*
X0036801Y0246091D01*
X0036607Y0246690D02*
X0058798Y0246690D01*
X0059397Y0247288D02*
X0036333Y0247288D01*
X0035963Y0247887D02*
X0059995Y0247887D01*
X0060594Y0248485D02*
X0035463Y0248485D01*
X0034769Y0249084D02*
X0061192Y0249084D01*
X0061791Y0249682D02*
X0033724Y0249682D01*
X0048025Y0235916D02*
X0009889Y0235916D01*
X0009889Y0235318D02*
X0047427Y0235318D01*
X0046828Y0234719D02*
X0009889Y0234719D01*
X0009889Y0234121D02*
X0046230Y0234121D01*
X0045631Y0233522D02*
X0009889Y0233522D01*
X0009889Y0232924D02*
X0045033Y0232924D01*
X0044434Y0232325D02*
X0033402Y0232325D01*
X0034847Y0231727D02*
X0043836Y0231727D01*
X0043237Y0231128D02*
X0036060Y0231128D01*
X0036659Y0230530D02*
X0042638Y0230530D01*
X0048624Y0236515D02*
X0009889Y0236515D01*
X0009889Y0237113D02*
X0049222Y0237113D01*
X0049821Y0237712D02*
X0009889Y0237712D01*
X0009889Y0238310D02*
X0050419Y0238310D01*
X0051018Y0238909D02*
X0009889Y0238909D01*
X0009889Y0250281D02*
X0062389Y0250281D01*
X0062988Y0250879D02*
X0009889Y0250879D01*
X0009889Y0251478D02*
X0063586Y0251478D01*
X0064185Y0252076D02*
X0009889Y0252076D01*
X0009889Y0252675D02*
X0064783Y0252675D01*
X0065382Y0253273D02*
X0009889Y0253273D01*
X0009889Y0253872D02*
X0065980Y0253872D01*
X0066579Y0254470D02*
X0009889Y0254470D01*
X0009889Y0255069D02*
X0067177Y0255069D01*
X0067776Y0255667D02*
X0009889Y0255667D01*
X0009889Y0256266D02*
X0068374Y0256266D01*
X0068973Y0256864D02*
X0009889Y0256864D01*
X0009889Y0257463D02*
X0069572Y0257463D01*
X0070170Y0258061D02*
X0009889Y0258061D01*
X0009889Y0258660D02*
X0070769Y0258660D01*
X0071367Y0259258D02*
X0009889Y0259258D01*
X0009889Y0259857D02*
X0071966Y0259857D01*
X0072564Y0260455D02*
X0009889Y0260455D01*
X0009889Y0261054D02*
X0073163Y0261054D01*
X0073761Y0261652D02*
X0009889Y0261652D01*
X0009889Y0262251D02*
X0074360Y0262251D01*
X0074958Y0262849D02*
X0009889Y0262849D01*
X0009889Y0263448D02*
X0075557Y0263448D01*
X0076155Y0264046D02*
X0009889Y0264046D01*
X0009889Y0264645D02*
X0076754Y0264645D01*
X0084450Y0243099D02*
X0140735Y0243099D01*
X0140137Y0242500D02*
X0097525Y0242500D01*
X0097607Y0242478D02*
X0096731Y0242713D01*
X0095831Y0242831D01*
X0095677Y0242831D01*
X0095677Y0236206D01*
X0102302Y0236206D01*
X0102302Y0236360D01*
X0102183Y0237260D01*
X0101948Y0238137D01*
X0101601Y0238976D01*
X0101147Y0239762D01*
X0100594Y0240482D01*
X0099952Y0241124D01*
X0099232Y0241677D01*
X0098446Y0242130D01*
X0097607Y0242478D01*
X0098843Y0241902D02*
X0139538Y0241902D01*
X0138940Y0241303D02*
X0099719Y0241303D01*
X0100372Y0240705D02*
X0138542Y0240705D01*
X0138294Y0240106D02*
X0100883Y0240106D01*
X0101294Y0239508D02*
X0138046Y0239508D01*
X0137798Y0238909D02*
X0101628Y0238909D01*
X0101876Y0238310D02*
X0137550Y0238310D01*
X0137302Y0237712D02*
X0102062Y0237712D01*
X0102202Y0237113D02*
X0137302Y0237113D01*
X0137302Y0236515D02*
X0102281Y0236515D01*
X0102302Y0235606D02*
X0095677Y0235606D01*
X0095677Y0236206D01*
X0095077Y0236206D01*
X0095077Y0235606D01*
X0095677Y0235606D01*
X0095677Y0228981D01*
X0095831Y0228981D01*
X0096731Y0229100D01*
X0097607Y0229335D01*
X0098446Y0229682D01*
X0099232Y0230136D01*
X0099952Y0230689D01*
X0100594Y0231331D01*
X0101147Y0232051D01*
X0101601Y0232837D01*
X0101948Y0233676D01*
X0102183Y0234552D01*
X0102302Y0235452D01*
X0102302Y0235606D01*
X0102284Y0235318D02*
X0137302Y0235318D01*
X0137302Y0235916D02*
X0095677Y0235916D01*
X0095677Y0235318D02*
X0095077Y0235318D01*
X0095077Y0235606D02*
X0095077Y0228981D01*
X0094923Y0228981D01*
X0094023Y0229100D01*
X0093146Y0229335D01*
X0092307Y0229682D01*
X0091521Y0230136D01*
X0090801Y0230689D01*
X0090159Y0231331D01*
X0089606Y0232051D01*
X0089152Y0232837D01*
X0088805Y0233676D01*
X0088570Y0234552D01*
X0088452Y0235452D01*
X0088452Y0235606D01*
X0095077Y0235606D01*
X0095077Y0235916D02*
X0077268Y0235916D01*
X0076670Y0235318D02*
X0088469Y0235318D01*
X0088548Y0234719D02*
X0076071Y0234719D01*
X0075473Y0234121D02*
X0088686Y0234121D01*
X0088869Y0233522D02*
X0074874Y0233522D01*
X0074276Y0232924D02*
X0089116Y0232924D01*
X0089448Y0232325D02*
X0073677Y0232325D01*
X0073079Y0231727D02*
X0089855Y0231727D01*
X0090361Y0231128D02*
X0072480Y0231128D01*
X0071882Y0230530D02*
X0091008Y0230530D01*
X0091876Y0229931D02*
X0071283Y0229931D01*
X0070685Y0229333D02*
X0093153Y0229333D01*
X0095077Y0229333D02*
X0095677Y0229333D01*
X0095677Y0229931D02*
X0095077Y0229931D01*
X0095077Y0230530D02*
X0095677Y0230530D01*
X0095677Y0231128D02*
X0095077Y0231128D01*
X0095077Y0231727D02*
X0095677Y0231727D01*
X0095677Y0232325D02*
X0095077Y0232325D01*
X0095077Y0232924D02*
X0095677Y0232924D01*
X0095677Y0233522D02*
X0095077Y0233522D01*
X0095077Y0234121D02*
X0095677Y0234121D01*
X0095677Y0234719D02*
X0095077Y0234719D01*
X0095077Y0236206D02*
X0088452Y0236206D01*
X0088452Y0236360D01*
X0088570Y0237260D01*
X0088805Y0238137D01*
X0089152Y0238976D01*
X0089606Y0239762D01*
X0090159Y0240482D01*
X0090801Y0241124D01*
X0091521Y0241677D01*
X0092307Y0242130D01*
X0093146Y0242478D01*
X0094023Y0242713D01*
X0094923Y0242831D01*
X0095077Y0242831D01*
X0095077Y0236206D01*
X0095077Y0236515D02*
X0095677Y0236515D01*
X0095677Y0237113D02*
X0095077Y0237113D01*
X0095077Y0237712D02*
X0095677Y0237712D01*
X0095677Y0238310D02*
X0095077Y0238310D01*
X0095077Y0238909D02*
X0095677Y0238909D01*
X0095677Y0239508D02*
X0095077Y0239508D01*
X0095077Y0240106D02*
X0095677Y0240106D01*
X0095677Y0240705D02*
X0095077Y0240705D01*
X0095077Y0241303D02*
X0095677Y0241303D01*
X0095677Y0241902D02*
X0095077Y0241902D01*
X0095077Y0242500D02*
X0095677Y0242500D01*
X0093229Y0242500D02*
X0083852Y0242500D01*
X0083253Y0241902D02*
X0091911Y0241902D01*
X0091034Y0241303D02*
X0082655Y0241303D01*
X0082056Y0240705D02*
X0090381Y0240705D01*
X0089870Y0240106D02*
X0081458Y0240106D01*
X0080859Y0239508D02*
X0089459Y0239508D01*
X0089125Y0238909D02*
X0080261Y0238909D01*
X0079662Y0238310D02*
X0088877Y0238310D01*
X0088691Y0237712D02*
X0079064Y0237712D01*
X0078465Y0237113D02*
X0088551Y0237113D01*
X0088472Y0236515D02*
X0077867Y0236515D01*
X0070086Y0228734D02*
X0140715Y0228734D01*
X0140117Y0229333D02*
X0097600Y0229333D01*
X0098878Y0229931D02*
X0139518Y0229931D01*
X0138920Y0230530D02*
X0099745Y0230530D01*
X0100392Y0231128D02*
X0138533Y0231128D01*
X0138286Y0231727D02*
X0100898Y0231727D01*
X0101305Y0232325D02*
X0138038Y0232325D01*
X0137790Y0232924D02*
X0101637Y0232924D01*
X0101885Y0233522D02*
X0137542Y0233522D01*
X0137302Y0234121D02*
X0102068Y0234121D01*
X0102205Y0234719D02*
X0137302Y0234719D01*
X0141327Y0228136D02*
X0069488Y0228136D01*
X0068889Y0227537D02*
X0141327Y0227537D01*
X0141327Y0226939D02*
X0068290Y0226939D01*
X0067692Y0226340D02*
X0141327Y0226340D01*
X0141327Y0225742D02*
X0067093Y0225742D01*
X0066495Y0225143D02*
X0141327Y0225143D01*
X0141327Y0224545D02*
X0065896Y0224545D01*
X0065298Y0223946D02*
X0141327Y0223946D01*
X0141327Y0223348D02*
X0064699Y0223348D01*
X0064101Y0222749D02*
X0141327Y0222749D01*
X0141327Y0222151D02*
X0063502Y0222151D01*
X0062904Y0221552D02*
X0141327Y0221552D01*
X0141478Y0220954D02*
X0062305Y0220954D01*
X0061707Y0220355D02*
X0141726Y0220355D01*
X0141974Y0219757D02*
X0061108Y0219757D01*
X0060510Y0219158D02*
X0142401Y0219158D01*
X0142999Y0218560D02*
X0059911Y0218560D01*
X0059313Y0217961D02*
X0143598Y0217961D01*
X0143516Y0218043D02*
X0143516Y0218043D01*
X0144196Y0217363D02*
X0058714Y0217363D01*
X0058670Y0216764D02*
X0144795Y0216764D01*
X0145393Y0216166D02*
X0058670Y0216166D01*
X0058670Y0215567D02*
X0145992Y0215567D01*
X0146591Y0214969D02*
X0058670Y0214969D01*
X0058670Y0214370D02*
X0147189Y0214370D01*
X0147788Y0213772D02*
X0058670Y0213772D01*
X0058670Y0213173D02*
X0148386Y0213173D01*
X0148985Y0212574D02*
X0058670Y0212574D01*
X0058670Y0211976D02*
X0149583Y0211976D01*
X0150182Y0211377D02*
X0058670Y0211377D01*
X0058670Y0210779D02*
X0150780Y0210779D01*
X0151379Y0210180D02*
X0058670Y0210180D01*
X0058670Y0209582D02*
X0151977Y0209582D01*
X0152576Y0208983D02*
X0058670Y0208983D01*
X0058670Y0208385D02*
X0153174Y0208385D01*
X0153773Y0207786D02*
X0058670Y0207786D01*
X0058670Y0207188D02*
X0154371Y0207188D01*
X0154970Y0206589D02*
X0058670Y0206589D01*
X0058670Y0205991D02*
X0155686Y0205991D01*
X0157131Y0205392D02*
X0058670Y0205392D01*
X0058670Y0204794D02*
X0189148Y0204794D01*
X0188550Y0204195D02*
X0058670Y0204195D01*
X0058670Y0203597D02*
X0187951Y0203597D01*
X0187696Y0202998D02*
X0058670Y0202998D01*
X0058670Y0202400D02*
X0187448Y0202400D01*
X0187201Y0201801D02*
X0058642Y0201801D01*
X0058394Y0201203D02*
X0187018Y0201203D01*
X0187018Y0200604D02*
X0058146Y0200604D01*
X0057893Y0200006D02*
X0187018Y0200006D01*
X0187018Y0199407D02*
X0057294Y0199407D01*
X0056696Y0198809D02*
X0187079Y0198809D01*
X0187327Y0198210D02*
X0056097Y0198210D01*
X0055499Y0197612D02*
X0187575Y0197612D01*
X0187823Y0197013D02*
X0054900Y0197013D01*
X0054302Y0196415D02*
X0188256Y0196415D01*
X0188855Y0195816D02*
X0053703Y0195816D01*
X0053105Y0195218D02*
X0189453Y0195218D01*
X0188973Y0194619D02*
X0052506Y0194619D01*
X0051908Y0194021D02*
X0188375Y0194021D01*
X0187872Y0193422D02*
X0051309Y0193422D01*
X0050711Y0192824D02*
X0187624Y0192824D01*
X0187376Y0192225D02*
X0050112Y0192225D01*
X0049514Y0191627D02*
X0187128Y0191627D01*
X0187018Y0191028D02*
X0048915Y0191028D01*
X0047710Y0190430D02*
X0187018Y0190430D01*
X0187018Y0189831D02*
X0036780Y0189831D01*
X0036181Y0189233D02*
X0187018Y0189233D01*
X0187151Y0188634D02*
X0035194Y0188634D01*
X0033749Y0188036D02*
X0187399Y0188036D01*
X0187647Y0187437D02*
X0009889Y0187437D01*
X0009889Y0186839D02*
X0187895Y0186839D01*
X0188431Y0186240D02*
X0009889Y0186240D01*
X0009889Y0185641D02*
X0189029Y0185641D01*
X0189397Y0185043D02*
X0009889Y0185043D01*
X0009889Y0184444D02*
X0188799Y0184444D01*
X0188200Y0183846D02*
X0009889Y0183846D01*
X0009889Y0183247D02*
X0187800Y0183247D01*
X0187552Y0182649D02*
X0033494Y0182649D01*
X0034939Y0182050D02*
X0187304Y0182050D01*
X0187056Y0181452D02*
X0036075Y0181452D01*
X0036674Y0180853D02*
X0187018Y0180853D01*
X0187018Y0180255D02*
X0177901Y0180255D01*
X0179256Y0179656D02*
X0187018Y0179656D01*
X0187018Y0179058D02*
X0179854Y0179058D01*
X0180453Y0178459D02*
X0187224Y0178459D01*
X0187472Y0177861D02*
X0181051Y0177861D01*
X0181650Y0177262D02*
X0187719Y0177262D01*
X0188007Y0176664D02*
X0182249Y0176664D01*
X0182847Y0176065D02*
X0188605Y0176065D01*
X0189204Y0175467D02*
X0183446Y0175467D01*
X0184044Y0174868D02*
X0190031Y0174868D01*
X0191476Y0174270D02*
X0184643Y0174270D01*
X0185241Y0173671D02*
X0191447Y0173671D01*
X0190848Y0173073D02*
X0185840Y0173073D01*
X0186438Y0172474D02*
X0190250Y0172474D01*
X0189651Y0171876D02*
X0187036Y0171876D01*
X0187284Y0171277D02*
X0189053Y0171277D01*
X0188454Y0170679D02*
X0187532Y0170679D01*
X0187780Y0170080D02*
X0188092Y0170080D01*
X0188092Y0169482D02*
X0187804Y0169482D01*
X0187804Y0168883D02*
X0188092Y0168883D01*
X0188092Y0168285D02*
X0187804Y0168285D01*
X0187804Y0167686D02*
X0188092Y0167686D01*
X0188092Y0167088D02*
X0187804Y0167088D01*
X0187804Y0166489D02*
X0188092Y0166489D01*
X0188092Y0165891D02*
X0187804Y0165891D01*
X0187804Y0165292D02*
X0188092Y0165292D01*
X0188123Y0164694D02*
X0187804Y0164694D01*
X0187804Y0164095D02*
X0188721Y0164095D01*
X0189320Y0163497D02*
X0187804Y0163497D01*
X0187804Y0162898D02*
X0189792Y0162898D01*
X0189792Y0162300D02*
X0187804Y0162300D01*
X0187804Y0161701D02*
X0189792Y0161701D01*
X0189792Y0161103D02*
X0187804Y0161103D01*
X0187804Y0160504D02*
X0189792Y0160504D01*
X0189792Y0159905D02*
X0187804Y0159905D01*
X0187804Y0159307D02*
X0189208Y0159307D01*
X0188610Y0158708D02*
X0187804Y0158708D01*
X0187804Y0158110D02*
X0188092Y0158110D01*
X0188092Y0157511D02*
X0187804Y0157511D01*
X0187804Y0156913D02*
X0188092Y0156913D01*
X0188092Y0156314D02*
X0187804Y0156314D01*
X0187804Y0155716D02*
X0188092Y0155716D01*
X0188092Y0155117D02*
X0188047Y0155117D01*
X0180947Y0147935D02*
X0179481Y0147935D01*
X0180080Y0147337D02*
X0181545Y0147337D01*
X0182144Y0146738D02*
X0180678Y0146738D01*
X0181277Y0146140D02*
X0182742Y0146140D01*
X0183341Y0145541D02*
X0181875Y0145541D01*
X0182474Y0144943D02*
X0183939Y0144943D01*
X0180348Y0148534D02*
X0178882Y0148534D01*
X0178284Y0149132D02*
X0179750Y0149132D01*
X0179151Y0149731D02*
X0177685Y0149731D01*
X0177087Y0150329D02*
X0178553Y0150329D01*
X0178258Y0150928D02*
X0176488Y0150928D01*
X0175890Y0151526D02*
X0178011Y0151526D01*
X0177763Y0152125D02*
X0175291Y0152125D01*
X0174693Y0152723D02*
X0177705Y0152723D01*
X0177705Y0153322D02*
X0174094Y0153322D01*
X0173496Y0153920D02*
X0177705Y0153920D01*
X0177705Y0154519D02*
X0172897Y0154519D01*
X0172299Y0155117D02*
X0177705Y0155117D01*
X0177705Y0155716D02*
X0171700Y0155716D01*
X0171102Y0156314D02*
X0177705Y0156314D01*
X0177705Y0156913D02*
X0170503Y0156913D01*
X0169905Y0157511D02*
X0177705Y0157511D01*
X0177705Y0158110D02*
X0169306Y0158110D01*
X0168708Y0158708D02*
X0177705Y0158708D01*
X0177705Y0159307D02*
X0168109Y0159307D01*
X0167511Y0159905D02*
X0177705Y0159905D01*
X0177705Y0160504D02*
X0166631Y0160504D01*
X0175148Y0169482D02*
X0036130Y0169482D01*
X0036729Y0170080D02*
X0174550Y0170080D01*
X0175747Y0168883D02*
X0035071Y0168883D01*
X0033626Y0168285D02*
X0176345Y0168285D01*
X0176944Y0167686D02*
X0009889Y0167686D01*
X0009889Y0167088D02*
X0177542Y0167088D01*
X0177705Y0166489D02*
X0009889Y0166489D01*
X0009889Y0165891D02*
X0177705Y0165891D01*
X0177705Y0165292D02*
X0009889Y0165292D01*
X0009889Y0164694D02*
X0177705Y0164694D01*
X0177705Y0164095D02*
X0009889Y0164095D01*
X0009889Y0163497D02*
X0177705Y0163497D01*
X0177705Y0162898D02*
X0033858Y0162898D01*
X0035303Y0162300D02*
X0177705Y0162300D01*
X0177705Y0161701D02*
X0036226Y0161701D01*
X0036825Y0161103D02*
X0177705Y0161103D01*
X0164600Y0148534D02*
X0033262Y0148534D01*
X0034707Y0149132D02*
X0164002Y0149132D01*
X0163403Y0149731D02*
X0035979Y0149731D01*
X0036578Y0150329D02*
X0162805Y0150329D01*
X0162206Y0150928D02*
X0037176Y0150928D01*
X0033740Y0143147D02*
X0169987Y0143147D01*
X0170585Y0142549D02*
X0035185Y0142549D01*
X0036177Y0141950D02*
X0171184Y0141950D01*
X0171782Y0141352D02*
X0149991Y0141352D01*
X0151436Y0140753D02*
X0172381Y0140753D01*
X0172979Y0140155D02*
X0152222Y0140155D01*
X0152821Y0139556D02*
X0173578Y0139556D01*
X0174176Y0138958D02*
X0153419Y0138958D01*
X0154018Y0138359D02*
X0174775Y0138359D01*
X0175373Y0137761D02*
X0154616Y0137761D01*
X0155215Y0137162D02*
X0175972Y0137162D01*
X0176570Y0136564D02*
X0155813Y0136564D01*
X0148713Y0129381D02*
X0034826Y0129381D01*
X0036028Y0129980D02*
X0148115Y0129980D01*
X0147516Y0130578D02*
X0036627Y0130578D01*
X0037225Y0131177D02*
X0146918Y0131177D01*
X0149312Y0128783D02*
X0033381Y0128783D01*
X0033156Y0123689D02*
X0035857Y0122570D01*
X0037038Y0121389D01*
X0186042Y0121389D01*
X0187898Y0120620D01*
X0212865Y0095654D01*
X0249886Y0095654D01*
X0252793Y0098561D01*
X0258385Y0098561D01*
X0261293Y0095654D01*
X0269140Y0095654D01*
X0270321Y0096835D01*
X0273023Y0097954D01*
X0283746Y0097954D01*
X0286448Y0096835D01*
X0288515Y0094767D01*
X0289634Y0092066D01*
X0289634Y0089142D01*
X0288515Y0086441D01*
X0286448Y0084373D01*
X0283746Y0083254D01*
X0273023Y0083254D01*
X0270321Y0084373D01*
X0269140Y0085554D01*
X0258877Y0085554D01*
X0258385Y0085062D01*
X0258293Y0085062D01*
X0260189Y0083166D01*
X0260189Y0081561D01*
X0255889Y0081561D01*
X0255889Y0080961D01*
X0260189Y0080961D01*
X0260189Y0079355D01*
X0257495Y0076661D01*
X0255889Y0076661D01*
X0255889Y0080961D01*
X0255289Y0080961D01*
X0250989Y0080961D01*
X0250989Y0079355D01*
X0253684Y0076661D01*
X0255289Y0076661D01*
X0255289Y0080961D01*
X0255289Y0081561D01*
X0250989Y0081561D01*
X0250989Y0083166D01*
X0252885Y0085062D01*
X0252793Y0085062D01*
X0252301Y0085554D01*
X0209769Y0085554D01*
X0207913Y0086323D01*
X0206493Y0087744D01*
X0182946Y0111290D01*
X0037038Y0111290D01*
X0035857Y0110109D01*
X0033156Y0108990D01*
X0022432Y0108990D01*
X0019731Y0110109D01*
X0017663Y0112176D01*
X0016544Y0114877D01*
X0016544Y0117801D01*
X0017663Y0120503D01*
X0019731Y0122570D01*
X0022432Y0123689D01*
X0033156Y0123689D01*
X0033862Y0123396D02*
X0250989Y0123396D01*
X0250989Y0123717D02*
X0250989Y0122112D01*
X0255289Y0122112D01*
X0255289Y0126412D01*
X0253684Y0126412D01*
X0250989Y0123717D01*
X0251267Y0123995D02*
X0009889Y0123995D01*
X0009889Y0124593D02*
X0251865Y0124593D01*
X0252464Y0125192D02*
X0009889Y0125192D01*
X0009889Y0125790D02*
X0253062Y0125790D01*
X0253661Y0126389D02*
X0229953Y0126389D01*
X0231331Y0126987D02*
X0267779Y0126987D01*
X0268027Y0126389D02*
X0257518Y0126389D01*
X0257495Y0126412D02*
X0255889Y0126412D01*
X0255889Y0122112D01*
X0255289Y0122112D01*
X0255289Y0121512D01*
X0250989Y0121512D01*
X0250989Y0119906D01*
X0253684Y0117212D01*
X0255289Y0117212D01*
X0255289Y0121512D01*
X0255889Y0121512D01*
X0255889Y0117212D01*
X0257495Y0117212D01*
X0260189Y0119906D01*
X0260189Y0121512D01*
X0255889Y0121512D01*
X0255889Y0122112D01*
X0260189Y0122112D01*
X0260189Y0123717D01*
X0257495Y0126412D01*
X0258116Y0125790D02*
X0268304Y0125790D01*
X0268903Y0125192D02*
X0258715Y0125192D01*
X0259313Y0124593D02*
X0269501Y0124593D01*
X0270100Y0123995D02*
X0259912Y0123995D01*
X0260189Y0123396D02*
X0271231Y0123396D01*
X0272676Y0122798D02*
X0260189Y0122798D01*
X0260189Y0122199D02*
X0292666Y0122199D01*
X0292666Y0121601D02*
X0255889Y0121601D01*
X0255889Y0122199D02*
X0255289Y0122199D01*
X0255289Y0121601D02*
X0036826Y0121601D01*
X0036228Y0122199D02*
X0250989Y0122199D01*
X0250989Y0122798D02*
X0035307Y0122798D01*
X0021726Y0123396D02*
X0009889Y0123396D01*
X0009889Y0122798D02*
X0020281Y0122798D01*
X0019360Y0122199D02*
X0009889Y0122199D01*
X0009889Y0121601D02*
X0018761Y0121601D01*
X0018163Y0121002D02*
X0009889Y0121002D01*
X0009889Y0120404D02*
X0017622Y0120404D01*
X0017374Y0119805D02*
X0009889Y0119805D01*
X0009889Y0119207D02*
X0017127Y0119207D01*
X0016879Y0118608D02*
X0009889Y0118608D01*
X0009889Y0118010D02*
X0016631Y0118010D01*
X0016544Y0117411D02*
X0009889Y0117411D01*
X0009889Y0116813D02*
X0016544Y0116813D01*
X0016544Y0116214D02*
X0009889Y0116214D01*
X0009889Y0115616D02*
X0016544Y0115616D01*
X0016544Y0115017D02*
X0009889Y0115017D01*
X0009889Y0114419D02*
X0016734Y0114419D01*
X0016982Y0113820D02*
X0009889Y0113820D01*
X0009889Y0113222D02*
X0017230Y0113222D01*
X0017478Y0112623D02*
X0009889Y0112623D01*
X0009889Y0112025D02*
X0017815Y0112025D01*
X0018413Y0111426D02*
X0009889Y0111426D01*
X0009889Y0110828D02*
X0019012Y0110828D01*
X0019610Y0110229D02*
X0009889Y0110229D01*
X0009889Y0109631D02*
X0020885Y0109631D01*
X0022330Y0109032D02*
X0009889Y0109032D01*
X0009889Y0108434D02*
X0185803Y0108434D01*
X0185204Y0109032D02*
X0033258Y0109032D01*
X0034703Y0109631D02*
X0184606Y0109631D01*
X0184007Y0110229D02*
X0035978Y0110229D01*
X0036576Y0110828D02*
X0183409Y0110828D01*
X0186401Y0107835D02*
X0009889Y0107835D01*
X0009889Y0107237D02*
X0187000Y0107237D01*
X0187598Y0106638D02*
X0009889Y0106638D01*
X0009889Y0106039D02*
X0188197Y0106039D01*
X0188795Y0105441D02*
X0009889Y0105441D01*
X0009889Y0104842D02*
X0189394Y0104842D01*
X0189992Y0104244D02*
X0009889Y0104244D01*
X0009889Y0103645D02*
X0021603Y0103645D01*
X0020158Y0103047D02*
X0009889Y0103047D01*
X0009889Y0102448D02*
X0019309Y0102448D01*
X0018711Y0101850D02*
X0009889Y0101850D01*
X0009889Y0101251D02*
X0018112Y0101251D01*
X0017601Y0100653D02*
X0009889Y0100653D01*
X0009889Y0100054D02*
X0017353Y0100054D01*
X0017105Y0099456D02*
X0009889Y0099456D01*
X0009889Y0098857D02*
X0016858Y0098857D01*
X0016610Y0098259D02*
X0009889Y0098259D01*
X0009889Y0097660D02*
X0016544Y0097660D01*
X0016544Y0097062D02*
X0009889Y0097062D01*
X0009889Y0096463D02*
X0016544Y0096463D01*
X0016544Y0095865D02*
X0009889Y0095865D01*
X0009889Y0095266D02*
X0016544Y0095266D01*
X0016755Y0094668D02*
X0009889Y0094668D01*
X0009889Y0094069D02*
X0017003Y0094069D01*
X0017251Y0093471D02*
X0009889Y0093471D01*
X0009889Y0092872D02*
X0017499Y0092872D01*
X0016074Y0092274D02*
X0009889Y0092274D01*
X0009889Y0091675D02*
X0014807Y0091675D01*
X0014209Y0091077D02*
X0009889Y0091077D01*
X0009889Y0090478D02*
X0013610Y0090478D01*
X0013012Y0089880D02*
X0009889Y0089880D01*
X0009889Y0089281D02*
X0012413Y0089281D01*
X0011815Y0088683D02*
X0009889Y0088683D01*
X0009889Y0088084D02*
X0011216Y0088084D01*
X0010618Y0087486D02*
X0009889Y0087486D01*
X0009889Y0086887D02*
X0010019Y0086887D01*
X0017130Y0079715D02*
X0016938Y0079523D01*
X0016938Y0079252D01*
X0017130Y0079715D01*
X0017126Y0079705D02*
X0017120Y0079705D01*
X0016983Y0074318D02*
X0016938Y0074318D01*
X0016938Y0073720D02*
X0017231Y0073720D01*
X0017479Y0073121D02*
X0016938Y0073121D01*
X0016938Y0072523D02*
X0017817Y0072523D01*
X0018415Y0071924D02*
X0016938Y0071924D01*
X0016938Y0071326D02*
X0019014Y0071326D01*
X0019612Y0070727D02*
X0016938Y0070727D01*
X0016938Y0070129D02*
X0020889Y0070129D01*
X0022334Y0069530D02*
X0016938Y0069530D01*
X0016938Y0068932D02*
X0168612Y0068932D01*
X0169210Y0068333D02*
X0016938Y0068333D01*
X0016938Y0067735D02*
X0169809Y0067735D01*
X0170407Y0067136D02*
X0016938Y0067136D01*
X0016938Y0066538D02*
X0171006Y0066538D01*
X0171604Y0065939D02*
X0016938Y0065939D01*
X0016938Y0065341D02*
X0172203Y0065341D01*
X0168013Y0069530D02*
X0033254Y0069530D01*
X0034699Y0070129D02*
X0167414Y0070129D01*
X0166816Y0070727D02*
X0035976Y0070727D01*
X0036574Y0071326D02*
X0166217Y0071326D01*
X0165619Y0071924D02*
X0037173Y0071924D01*
X0037771Y0072523D02*
X0165020Y0072523D01*
X0179553Y0083296D02*
X0183381Y0083296D01*
X0182783Y0083895D02*
X0178955Y0083895D01*
X0178356Y0084493D02*
X0182184Y0084493D01*
X0181586Y0085092D02*
X0177758Y0085092D01*
X0177159Y0085690D02*
X0180987Y0085690D01*
X0180389Y0086289D02*
X0176561Y0086289D01*
X0175962Y0086887D02*
X0179790Y0086887D01*
X0179192Y0087486D02*
X0175364Y0087486D01*
X0174765Y0088084D02*
X0178593Y0088084D01*
X0177994Y0088683D02*
X0174167Y0088683D01*
X0173568Y0089281D02*
X0177396Y0089281D01*
X0176797Y0089880D02*
X0172970Y0089880D01*
X0172371Y0090478D02*
X0176199Y0090478D01*
X0175600Y0091077D02*
X0171773Y0091077D01*
X0180152Y0082698D02*
X0183980Y0082698D01*
X0184578Y0082099D02*
X0180750Y0082099D01*
X0181349Y0081501D02*
X0185177Y0081501D01*
X0185775Y0080902D02*
X0181947Y0080902D01*
X0182546Y0080303D02*
X0186374Y0080303D01*
X0186972Y0079705D02*
X0183144Y0079705D01*
X0183743Y0079106D02*
X0187571Y0079106D01*
X0188169Y0078508D02*
X0184341Y0078508D01*
X0184940Y0077909D02*
X0188768Y0077909D01*
X0189366Y0077311D02*
X0185538Y0077311D01*
X0186137Y0076712D02*
X0189965Y0076712D01*
X0190563Y0076114D02*
X0186735Y0076114D01*
X0187334Y0075515D02*
X0191162Y0075515D01*
X0191760Y0074917D02*
X0187932Y0074917D01*
X0188531Y0074318D02*
X0192359Y0074318D01*
X0192957Y0073720D02*
X0189129Y0073720D01*
X0189728Y0073121D02*
X0193556Y0073121D01*
X0194154Y0072523D02*
X0190326Y0072523D01*
X0190925Y0071924D02*
X0194753Y0071924D01*
X0195351Y0071326D02*
X0191524Y0071326D01*
X0192122Y0070727D02*
X0195950Y0070727D01*
X0196548Y0070129D02*
X0192721Y0070129D01*
X0193319Y0069530D02*
X0197147Y0069530D01*
X0197745Y0068932D02*
X0193918Y0068932D01*
X0194516Y0068333D02*
X0198344Y0068333D01*
X0198942Y0067735D02*
X0195115Y0067735D01*
X0195713Y0067136D02*
X0199541Y0067136D01*
X0200139Y0066538D02*
X0196312Y0066538D01*
X0196910Y0065939D02*
X0200738Y0065939D01*
X0201336Y0065341D02*
X0197509Y0065341D01*
X0206641Y0074318D02*
X0267985Y0074318D01*
X0267737Y0073720D02*
X0207240Y0073720D01*
X0207838Y0073121D02*
X0267489Y0073121D01*
X0267241Y0072523D02*
X0208437Y0072523D01*
X0209035Y0071924D02*
X0267135Y0071924D01*
X0267135Y0071326D02*
X0209634Y0071326D01*
X0210232Y0070727D02*
X0267135Y0070727D01*
X0267135Y0070129D02*
X0210831Y0070129D01*
X0211429Y0069530D02*
X0267135Y0069530D01*
X0267305Y0068932D02*
X0212028Y0068932D01*
X0212626Y0068333D02*
X0267553Y0068333D01*
X0267801Y0067735D02*
X0213225Y0067735D01*
X0213823Y0067136D02*
X0268049Y0067136D01*
X0268357Y0066538D02*
X0214422Y0066538D01*
X0215020Y0065939D02*
X0268955Y0065939D01*
X0269554Y0065341D02*
X0215619Y0065341D01*
X0216217Y0064742D02*
X0270152Y0064742D01*
X0271358Y0064144D02*
X0216816Y0064144D01*
X0217414Y0063545D02*
X0272803Y0063545D01*
X0272310Y0058159D02*
X0222801Y0058159D01*
X0222202Y0058757D02*
X0291878Y0058757D01*
X0291878Y0058159D02*
X0284459Y0058159D01*
X0285903Y0057560D02*
X0291878Y0057560D01*
X0291878Y0056962D02*
X0286821Y0056962D01*
X0287419Y0056363D02*
X0291878Y0056363D01*
X0291878Y0055765D02*
X0288018Y0055765D01*
X0288557Y0055166D02*
X0291878Y0055166D01*
X0291878Y0054568D02*
X0288805Y0054568D01*
X0289053Y0053969D02*
X0291878Y0053969D01*
X0291878Y0053370D02*
X0289301Y0053370D01*
X0289549Y0052772D02*
X0291878Y0052772D01*
X0291878Y0052173D02*
X0289634Y0052173D01*
X0289634Y0051575D02*
X0291878Y0051575D01*
X0291878Y0050976D02*
X0289634Y0050976D01*
X0289634Y0050378D02*
X0291878Y0050378D01*
X0291878Y0049779D02*
X0289634Y0049779D01*
X0289443Y0049181D02*
X0291878Y0049181D01*
X0291878Y0048582D02*
X0289195Y0048582D01*
X0288947Y0047984D02*
X0291878Y0047984D01*
X0291878Y0047385D02*
X0288699Y0047385D01*
X0288361Y0046787D02*
X0291878Y0046787D01*
X0291878Y0046188D02*
X0287763Y0046188D01*
X0287164Y0045590D02*
X0291878Y0045590D01*
X0291878Y0044991D02*
X0286566Y0044991D01*
X0285288Y0044393D02*
X0291878Y0044393D01*
X0291878Y0043794D02*
X0283843Y0043794D01*
X0291878Y0059356D02*
X0221604Y0059356D01*
X0221005Y0059954D02*
X0291878Y0059954D01*
X0291878Y0060553D02*
X0220407Y0060553D01*
X0219808Y0061151D02*
X0291878Y0061151D01*
X0291878Y0061750D02*
X0219210Y0061750D01*
X0218611Y0062348D02*
X0291878Y0062348D01*
X0291878Y0062947D02*
X0218013Y0062947D01*
X0223400Y0057560D02*
X0252343Y0057560D01*
X0251745Y0056962D02*
X0223998Y0056962D01*
X0224597Y0056363D02*
X0251146Y0056363D01*
X0258835Y0057560D02*
X0270866Y0057560D01*
X0269948Y0056962D02*
X0259434Y0056962D01*
X0260032Y0056363D02*
X0269350Y0056363D01*
X0283966Y0063545D02*
X0291878Y0063545D01*
X0291878Y0064144D02*
X0285411Y0064144D01*
X0286617Y0064742D02*
X0291305Y0064742D01*
X0290707Y0065341D02*
X0287215Y0065341D01*
X0287368Y0076114D02*
X0290553Y0076114D01*
X0291152Y0076712D02*
X0286770Y0076712D01*
X0285781Y0077311D02*
X0291750Y0077311D01*
X0292349Y0077909D02*
X0284336Y0077909D01*
X0283847Y0083296D02*
X0292666Y0083296D01*
X0292666Y0082698D02*
X0260189Y0082698D01*
X0260189Y0082099D02*
X0292666Y0082099D01*
X0292666Y0081501D02*
X0255889Y0081501D01*
X0255889Y0080902D02*
X0255289Y0080902D01*
X0255289Y0080303D02*
X0255889Y0080303D01*
X0255889Y0079705D02*
X0255289Y0079705D01*
X0255289Y0079106D02*
X0255889Y0079106D01*
X0255889Y0078508D02*
X0255289Y0078508D01*
X0255289Y0077909D02*
X0255889Y0077909D01*
X0255889Y0077311D02*
X0255289Y0077311D01*
X0255289Y0076712D02*
X0255889Y0076712D01*
X0257546Y0076712D02*
X0269999Y0076712D01*
X0269401Y0076114D02*
X0204846Y0076114D01*
X0205444Y0075515D02*
X0268802Y0075515D01*
X0268233Y0074917D02*
X0206043Y0074917D01*
X0204247Y0076712D02*
X0253632Y0076712D01*
X0253034Y0077311D02*
X0203649Y0077311D01*
X0203050Y0077909D02*
X0252435Y0077909D01*
X0251837Y0078508D02*
X0202452Y0078508D01*
X0201853Y0079106D02*
X0251238Y0079106D01*
X0250989Y0079705D02*
X0201255Y0079705D01*
X0200656Y0080303D02*
X0250989Y0080303D01*
X0250989Y0080902D02*
X0200058Y0080902D01*
X0199459Y0081501D02*
X0255289Y0081501D01*
X0252316Y0084493D02*
X0196466Y0084493D01*
X0195868Y0085092D02*
X0252764Y0085092D01*
X0251718Y0083895D02*
X0197065Y0083895D01*
X0197664Y0083296D02*
X0251119Y0083296D01*
X0250989Y0082698D02*
X0198262Y0082698D01*
X0198861Y0082099D02*
X0250989Y0082099D01*
X0258414Y0085092D02*
X0269603Y0085092D01*
X0270201Y0084493D02*
X0258862Y0084493D01*
X0259461Y0083895D02*
X0271477Y0083895D01*
X0272922Y0083296D02*
X0260059Y0083296D01*
X0260189Y0080902D02*
X0292666Y0080902D01*
X0292666Y0080303D02*
X0260189Y0080303D01*
X0260189Y0079705D02*
X0292666Y0079705D01*
X0292666Y0079106D02*
X0259940Y0079106D01*
X0259342Y0078508D02*
X0292666Y0078508D01*
X0292666Y0083895D02*
X0285292Y0083895D01*
X0286568Y0084493D02*
X0292666Y0084493D01*
X0292666Y0085092D02*
X0287166Y0085092D01*
X0287765Y0085690D02*
X0292666Y0085690D01*
X0292666Y0086289D02*
X0288363Y0086289D01*
X0288700Y0086887D02*
X0292666Y0086887D01*
X0292666Y0087486D02*
X0288948Y0087486D01*
X0289196Y0088084D02*
X0292666Y0088084D01*
X0292666Y0088683D02*
X0289444Y0088683D01*
X0289634Y0089281D02*
X0292666Y0089281D01*
X0292666Y0089880D02*
X0289634Y0089880D01*
X0289634Y0090478D02*
X0292666Y0090478D01*
X0292666Y0091077D02*
X0289634Y0091077D01*
X0289634Y0091675D02*
X0292666Y0091675D01*
X0292666Y0092274D02*
X0289548Y0092274D01*
X0289300Y0092872D02*
X0292666Y0092872D01*
X0292666Y0093471D02*
X0289052Y0093471D01*
X0288804Y0094069D02*
X0292666Y0094069D01*
X0292666Y0094668D02*
X0288556Y0094668D01*
X0288016Y0095266D02*
X0292666Y0095266D01*
X0292666Y0095865D02*
X0287418Y0095865D01*
X0286819Y0096463D02*
X0292666Y0096463D01*
X0292666Y0097062D02*
X0285899Y0097062D01*
X0284454Y0097660D02*
X0292666Y0097660D01*
X0292666Y0098259D02*
X0258688Y0098259D01*
X0259286Y0097660D02*
X0272315Y0097660D01*
X0270870Y0097062D02*
X0259885Y0097062D01*
X0260483Y0096463D02*
X0269950Y0096463D01*
X0269351Y0095865D02*
X0261082Y0095865D01*
X0252491Y0098259D02*
X0210260Y0098259D01*
X0210858Y0097660D02*
X0251892Y0097660D01*
X0251294Y0097062D02*
X0211457Y0097062D01*
X0212055Y0096463D02*
X0250695Y0096463D01*
X0250097Y0095865D02*
X0212654Y0095865D01*
X0209661Y0098857D02*
X0292666Y0098857D01*
X0292666Y0099456D02*
X0209063Y0099456D01*
X0208464Y0100054D02*
X0292666Y0100054D01*
X0292666Y0100653D02*
X0207866Y0100653D01*
X0207267Y0101251D02*
X0292666Y0101251D01*
X0292666Y0101850D02*
X0206669Y0101850D01*
X0206070Y0102448D02*
X0292666Y0102448D01*
X0292666Y0103047D02*
X0205472Y0103047D01*
X0204873Y0103645D02*
X0292666Y0103645D01*
X0292666Y0104244D02*
X0204275Y0104244D01*
X0203676Y0104842D02*
X0292666Y0104842D01*
X0292666Y0105441D02*
X0284145Y0105441D01*
X0284281Y0105485D02*
X0283502Y0105232D01*
X0282694Y0105104D01*
X0278684Y0105104D01*
X0278684Y0110004D01*
X0278085Y0110004D01*
X0278085Y0105104D01*
X0274075Y0105104D01*
X0273267Y0105232D01*
X0272488Y0105485D01*
X0271759Y0105856D01*
X0271097Y0106338D01*
X0270518Y0106916D01*
X0270037Y0107579D01*
X0269665Y0108308D01*
X0269413Y0109086D01*
X0269285Y0109895D01*
X0269285Y0110004D01*
X0278084Y0110004D01*
X0278084Y0110604D01*
X0269285Y0110604D01*
X0269285Y0110713D01*
X0269413Y0111522D01*
X0269665Y0112300D01*
X0270037Y0113029D01*
X0270518Y0113691D01*
X0271097Y0114270D01*
X0271759Y0114751D01*
X0272488Y0115123D01*
X0273267Y0115376D01*
X0274075Y0115504D01*
X0278085Y0115504D01*
X0278085Y0110604D01*
X0278684Y0110604D01*
X0278684Y0115504D01*
X0282694Y0115504D01*
X0283502Y0115376D01*
X0284281Y0115123D01*
X0285010Y0114751D01*
X0285672Y0114270D01*
X0286251Y0113691D01*
X0286732Y0113029D01*
X0287104Y0112300D01*
X0287356Y0111522D01*
X0287484Y0110713D01*
X0287484Y0110604D01*
X0278685Y0110604D01*
X0278685Y0110004D01*
X0287484Y0110004D01*
X0287484Y0109895D01*
X0287356Y0109086D01*
X0287104Y0108308D01*
X0286732Y0107579D01*
X0286251Y0106916D01*
X0285672Y0106338D01*
X0285010Y0105856D01*
X0284281Y0105485D01*
X0285262Y0106039D02*
X0292666Y0106039D01*
X0292666Y0106638D02*
X0285972Y0106638D01*
X0286483Y0107237D02*
X0292666Y0107237D01*
X0292666Y0107835D02*
X0286863Y0107835D01*
X0287144Y0108434D02*
X0292666Y0108434D01*
X0292666Y0109032D02*
X0287339Y0109032D01*
X0287443Y0109631D02*
X0292666Y0109631D01*
X0292666Y0110229D02*
X0278685Y0110229D01*
X0278684Y0109631D02*
X0278085Y0109631D01*
X0278084Y0110229D02*
X0198290Y0110229D01*
X0198888Y0109631D02*
X0269326Y0109631D01*
X0269430Y0109032D02*
X0199487Y0109032D01*
X0200085Y0108434D02*
X0269625Y0108434D01*
X0269906Y0107835D02*
X0200684Y0107835D01*
X0201282Y0107237D02*
X0270286Y0107237D01*
X0270797Y0106638D02*
X0201881Y0106638D01*
X0202479Y0106039D02*
X0271507Y0106039D01*
X0272624Y0105441D02*
X0203078Y0105441D01*
X0197691Y0110828D02*
X0269303Y0110828D01*
X0269397Y0111426D02*
X0197093Y0111426D01*
X0196494Y0112025D02*
X0269576Y0112025D01*
X0269830Y0112623D02*
X0195896Y0112623D01*
X0195297Y0113222D02*
X0270177Y0113222D01*
X0270647Y0113820D02*
X0194698Y0113820D01*
X0194100Y0114419D02*
X0271301Y0114419D01*
X0272281Y0115017D02*
X0193501Y0115017D01*
X0192903Y0115616D02*
X0292666Y0115616D01*
X0292666Y0116214D02*
X0192304Y0116214D01*
X0191706Y0116813D02*
X0292666Y0116813D01*
X0292666Y0117411D02*
X0257694Y0117411D01*
X0258293Y0118010D02*
X0292666Y0118010D01*
X0292666Y0118608D02*
X0258891Y0118608D01*
X0259490Y0119207D02*
X0292666Y0119207D01*
X0292666Y0119805D02*
X0260088Y0119805D01*
X0260189Y0120404D02*
X0292666Y0120404D01*
X0292666Y0121002D02*
X0260189Y0121002D01*
X0255889Y0121002D02*
X0255289Y0121002D01*
X0255289Y0120404D02*
X0255889Y0120404D01*
X0255889Y0119805D02*
X0255289Y0119805D01*
X0255289Y0119207D02*
X0255889Y0119207D01*
X0255889Y0118608D02*
X0255289Y0118608D01*
X0255289Y0118010D02*
X0255889Y0118010D01*
X0255889Y0117411D02*
X0255289Y0117411D01*
X0253484Y0117411D02*
X0191107Y0117411D01*
X0190509Y0118010D02*
X0252886Y0118010D01*
X0252287Y0118608D02*
X0189910Y0118608D01*
X0189312Y0119207D02*
X0251689Y0119207D01*
X0251090Y0119805D02*
X0188713Y0119805D01*
X0188115Y0120404D02*
X0250989Y0120404D01*
X0250989Y0121002D02*
X0186976Y0121002D01*
X0190591Y0103645D02*
X0033985Y0103645D01*
X0035430Y0103047D02*
X0191189Y0103047D01*
X0191788Y0102448D02*
X0036279Y0102448D01*
X0036877Y0101850D02*
X0192386Y0101850D01*
X0192985Y0101251D02*
X0179240Y0101251D01*
X0180307Y0100653D02*
X0193583Y0100653D01*
X0194182Y0100054D02*
X0180905Y0100054D01*
X0181504Y0099456D02*
X0194780Y0099456D01*
X0195379Y0098857D02*
X0182102Y0098857D01*
X0182701Y0098259D02*
X0195977Y0098259D01*
X0196576Y0097660D02*
X0183299Y0097660D01*
X0183898Y0097062D02*
X0197174Y0097062D01*
X0197773Y0096463D02*
X0184496Y0096463D01*
X0185095Y0095865D02*
X0198371Y0095865D01*
X0198970Y0095266D02*
X0185693Y0095266D01*
X0186292Y0094668D02*
X0199568Y0094668D01*
X0200167Y0094069D02*
X0186890Y0094069D01*
X0187489Y0093471D02*
X0200765Y0093471D01*
X0201364Y0092872D02*
X0188087Y0092872D01*
X0188686Y0092274D02*
X0201962Y0092274D01*
X0202561Y0091675D02*
X0189284Y0091675D01*
X0189883Y0091077D02*
X0203159Y0091077D01*
X0203758Y0090478D02*
X0190481Y0090478D01*
X0191080Y0089880D02*
X0204357Y0089880D01*
X0204955Y0089281D02*
X0191678Y0089281D01*
X0192277Y0088683D02*
X0205554Y0088683D01*
X0206152Y0088084D02*
X0192875Y0088084D01*
X0193474Y0087486D02*
X0206751Y0087486D01*
X0207349Y0086887D02*
X0194072Y0086887D01*
X0194671Y0086289D02*
X0207996Y0086289D01*
X0209441Y0085690D02*
X0195269Y0085690D01*
X0204300Y0044267D02*
X0212332Y0036235D01*
X0213752Y0034814D01*
X0215188Y0034220D01*
X0214251Y0033283D01*
X0212710Y0034824D01*
X0210465Y0035754D01*
X0208036Y0035754D01*
X0205791Y0034824D01*
X0204948Y0033980D01*
X0204833Y0034258D01*
X0204300Y0034790D01*
X0204300Y0044267D01*
X0204300Y0043794D02*
X0204773Y0043794D01*
X0204300Y0043196D02*
X0205371Y0043196D01*
X0205970Y0042597D02*
X0204300Y0042597D01*
X0204300Y0041999D02*
X0206568Y0041999D01*
X0207167Y0041400D02*
X0204300Y0041400D01*
X0204300Y0040802D02*
X0207765Y0040802D01*
X0208364Y0040203D02*
X0204300Y0040203D01*
X0204300Y0039605D02*
X0208962Y0039605D01*
X0209561Y0039006D02*
X0204300Y0039006D01*
X0204300Y0038408D02*
X0210159Y0038408D01*
X0210758Y0037809D02*
X0204300Y0037809D01*
X0204300Y0037211D02*
X0211356Y0037211D01*
X0211955Y0036612D02*
X0204300Y0036612D01*
X0204300Y0036014D02*
X0212553Y0036014D01*
X0213152Y0035415D02*
X0211282Y0035415D01*
X0212717Y0034817D02*
X0213750Y0034817D01*
X0213316Y0034218D02*
X0215186Y0034218D01*
X0214587Y0033620D02*
X0213914Y0033620D01*
X0207219Y0035415D02*
X0204300Y0035415D01*
X0204300Y0034817D02*
X0205784Y0034817D01*
X0205186Y0034218D02*
X0204849Y0034218D01*
X0214300Y0025839D02*
X0214421Y0025839D01*
X0214300Y0025240D02*
X0215020Y0025240D01*
X0215618Y0024642D02*
X0214300Y0024642D01*
X0214300Y0024043D02*
X0216819Y0024043D01*
X0214300Y0023445D02*
X0236338Y0023445D01*
X0235740Y0022846D02*
X0214300Y0022846D01*
X0214300Y0022248D02*
X0235141Y0022248D01*
X0234543Y0021649D02*
X0214431Y0021649D01*
X0215029Y0021051D02*
X0233944Y0021051D01*
X0233346Y0020452D02*
X0215628Y0020452D01*
X0216226Y0019854D02*
X0232747Y0019854D01*
X0232737Y0019255D02*
X0216236Y0019255D01*
X0216236Y0018657D02*
X0232737Y0018657D01*
X0232737Y0018058D02*
X0216236Y0018058D01*
X0216236Y0017460D02*
X0232737Y0017460D01*
X0232737Y0016861D02*
X0216236Y0016861D01*
X0216236Y0016263D02*
X0232737Y0016263D01*
X0232737Y0015664D02*
X0216236Y0015664D01*
X0216236Y0015066D02*
X0232737Y0015066D01*
X0232737Y0014467D02*
X0216236Y0014467D01*
X0215853Y0013869D02*
X0232582Y0013869D01*
X0231984Y0013270D02*
X0215254Y0013270D01*
X0214656Y0012672D02*
X0231385Y0012672D01*
X0230787Y0012073D02*
X0214057Y0012073D01*
X0221682Y0024043D02*
X0304439Y0024043D01*
X0304439Y0023445D02*
X0242635Y0023445D01*
X0243234Y0022846D02*
X0304439Y0022846D01*
X0304439Y0022248D02*
X0243832Y0022248D01*
X0244431Y0021649D02*
X0304439Y0021649D01*
X0304439Y0021051D02*
X0245029Y0021051D01*
X0245628Y0020452D02*
X0304439Y0020452D01*
X0304439Y0019854D02*
X0246226Y0019854D01*
X0246236Y0019255D02*
X0304439Y0019255D01*
X0304439Y0018657D02*
X0246236Y0018657D01*
X0246236Y0018058D02*
X0304439Y0018058D01*
X0304439Y0017460D02*
X0246236Y0017460D01*
X0246236Y0016861D02*
X0304439Y0016861D01*
X0304439Y0016263D02*
X0246236Y0016263D01*
X0246236Y0015664D02*
X0304439Y0015664D01*
X0304439Y0015066D02*
X0246236Y0015066D01*
X0246236Y0014467D02*
X0304439Y0014467D01*
X0304439Y0013869D02*
X0245853Y0013869D01*
X0245254Y0013270D02*
X0304439Y0013270D01*
X0304439Y0012672D02*
X0244656Y0012672D01*
X0244307Y0012073D02*
X0304439Y0012073D01*
X0304439Y0011475D02*
X0244059Y0011475D01*
X0243811Y0010876D02*
X0304439Y0010876D01*
X0304439Y0010278D02*
X0243273Y0010278D01*
X0242675Y0009679D02*
X0304439Y0009679D01*
X0304439Y0009081D02*
X0242076Y0009081D01*
X0241478Y0008482D02*
X0304439Y0008482D01*
X0304439Y0007884D02*
X0240879Y0007884D01*
X0240281Y0007285D02*
X0304439Y0007285D01*
X0304439Y0006687D02*
X0239682Y0006687D01*
X0239084Y0006088D02*
X0304439Y0006088D01*
X0272433Y0077909D02*
X0258743Y0077909D01*
X0258145Y0077311D02*
X0270988Y0077311D01*
X0278085Y0105441D02*
X0278684Y0105441D01*
X0278684Y0106039D02*
X0278085Y0106039D01*
X0278085Y0106638D02*
X0278684Y0106638D01*
X0278684Y0107237D02*
X0278085Y0107237D01*
X0278085Y0107835D02*
X0278684Y0107835D01*
X0278684Y0108434D02*
X0278085Y0108434D01*
X0278085Y0109032D02*
X0278684Y0109032D01*
X0278684Y0110828D02*
X0278085Y0110828D01*
X0278085Y0111426D02*
X0278684Y0111426D01*
X0278684Y0112025D02*
X0278085Y0112025D01*
X0278085Y0112623D02*
X0278684Y0112623D01*
X0278684Y0113222D02*
X0278085Y0113222D01*
X0278085Y0113820D02*
X0278684Y0113820D01*
X0278684Y0114419D02*
X0278085Y0114419D01*
X0278085Y0115017D02*
X0278684Y0115017D01*
X0284488Y0115017D02*
X0292666Y0115017D01*
X0292666Y0114419D02*
X0285468Y0114419D01*
X0286122Y0113820D02*
X0292666Y0113820D01*
X0292666Y0113222D02*
X0286592Y0113222D01*
X0286939Y0112623D02*
X0292666Y0112623D01*
X0292666Y0112025D02*
X0287193Y0112025D01*
X0287372Y0111426D02*
X0292666Y0111426D01*
X0292666Y0110828D02*
X0287466Y0110828D01*
X0284093Y0122798D02*
X0292666Y0122798D01*
X0292100Y0123396D02*
X0285538Y0123396D01*
X0286669Y0123995D02*
X0291501Y0123995D01*
X0290903Y0124593D02*
X0287268Y0124593D01*
X0287316Y0135367D02*
X0290855Y0135367D01*
X0291453Y0135965D02*
X0286717Y0135965D01*
X0285654Y0136564D02*
X0292052Y0136564D01*
X0292650Y0137162D02*
X0284209Y0137162D01*
X0284457Y0142549D02*
X0293059Y0142549D01*
X0293059Y0143147D02*
X0285902Y0143147D01*
X0286820Y0143746D02*
X0293059Y0143746D01*
X0293059Y0144344D02*
X0287419Y0144344D01*
X0288017Y0144943D02*
X0293059Y0144943D01*
X0293059Y0145541D02*
X0288557Y0145541D01*
X0288805Y0146140D02*
X0293059Y0146140D01*
X0293059Y0146738D02*
X0289053Y0146738D01*
X0289301Y0147337D02*
X0293059Y0147337D01*
X0293059Y0147935D02*
X0289548Y0147935D01*
X0289634Y0148534D02*
X0293059Y0148534D01*
X0293059Y0149132D02*
X0289634Y0149132D01*
X0289634Y0149731D02*
X0293059Y0149731D01*
X0293059Y0150329D02*
X0289634Y0150329D01*
X0289634Y0150928D02*
X0293059Y0150928D01*
X0293059Y0151526D02*
X0289443Y0151526D01*
X0289195Y0152125D02*
X0293059Y0152125D01*
X0293059Y0152723D02*
X0288948Y0152723D01*
X0288700Y0153322D02*
X0293059Y0153322D01*
X0293059Y0153920D02*
X0288362Y0153920D01*
X0287763Y0154519D02*
X0293059Y0154519D01*
X0293059Y0155117D02*
X0287165Y0155117D01*
X0286566Y0155716D02*
X0293059Y0155716D01*
X0293059Y0156314D02*
X0285289Y0156314D01*
X0283844Y0156913D02*
X0293059Y0156913D01*
X0293059Y0157511D02*
X0242529Y0157511D01*
X0242529Y0156913D02*
X0272925Y0156913D01*
X0271480Y0156314D02*
X0242529Y0156314D01*
X0242529Y0155716D02*
X0270203Y0155716D01*
X0269604Y0155117D02*
X0242529Y0155117D01*
X0242529Y0154519D02*
X0245477Y0154519D01*
X0244032Y0153920D02*
X0242529Y0153920D01*
X0242529Y0153322D02*
X0243383Y0153322D01*
X0242785Y0152723D02*
X0242529Y0152723D01*
X0242529Y0158110D02*
X0293059Y0158110D01*
X0293059Y0158708D02*
X0242529Y0158708D01*
X0242529Y0159307D02*
X0293059Y0159307D01*
X0293059Y0159905D02*
X0242529Y0159905D01*
X0242529Y0160504D02*
X0293059Y0160504D01*
X0293059Y0161103D02*
X0242529Y0161103D01*
X0242529Y0161701D02*
X0293059Y0161701D01*
X0293059Y0162300D02*
X0284580Y0162300D01*
X0286025Y0162898D02*
X0293059Y0162898D01*
X0293059Y0163497D02*
X0286871Y0163497D01*
X0287470Y0164095D02*
X0293059Y0164095D01*
X0293059Y0164694D02*
X0288068Y0164694D01*
X0288578Y0165292D02*
X0293059Y0165292D01*
X0293059Y0165891D02*
X0288826Y0165891D01*
X0289074Y0166489D02*
X0293059Y0166489D01*
X0293059Y0167088D02*
X0289322Y0167088D01*
X0289570Y0167686D02*
X0293059Y0167686D01*
X0293059Y0168285D02*
X0289634Y0168285D01*
X0289634Y0168883D02*
X0293059Y0168883D01*
X0293059Y0169482D02*
X0289634Y0169482D01*
X0289634Y0170080D02*
X0293059Y0170080D01*
X0293059Y0170679D02*
X0289634Y0170679D01*
X0289422Y0171277D02*
X0293059Y0171277D01*
X0293059Y0171876D02*
X0289174Y0171876D01*
X0288926Y0172474D02*
X0293059Y0172474D01*
X0293059Y0173073D02*
X0288679Y0173073D01*
X0288311Y0173671D02*
X0293059Y0173671D01*
X0293059Y0174270D02*
X0287713Y0174270D01*
X0287114Y0174868D02*
X0293059Y0174868D01*
X0293059Y0175467D02*
X0286516Y0175467D01*
X0285167Y0176065D02*
X0293059Y0176065D01*
X0293059Y0176664D02*
X0260726Y0176664D01*
X0260977Y0177262D02*
X0293059Y0177262D01*
X0293059Y0177861D02*
X0260977Y0177861D01*
X0260977Y0178459D02*
X0293059Y0178459D01*
X0293059Y0179058D02*
X0256677Y0179058D01*
X0256677Y0179120D02*
X0260977Y0179120D01*
X0260977Y0180725D01*
X0258282Y0183420D01*
X0256677Y0183420D01*
X0256677Y0179120D01*
X0256677Y0179656D02*
X0256077Y0179656D01*
X0256077Y0179058D02*
X0234318Y0179058D01*
X0234318Y0179656D02*
X0251777Y0179656D01*
X0251777Y0180255D02*
X0234318Y0180255D01*
X0234318Y0180853D02*
X0251905Y0180853D01*
X0252503Y0181452D02*
X0234280Y0181452D01*
X0234032Y0182050D02*
X0253102Y0182050D01*
X0253701Y0182649D02*
X0233784Y0182649D01*
X0233536Y0183247D02*
X0254299Y0183247D01*
X0256077Y0183247D02*
X0256677Y0183247D01*
X0256677Y0182649D02*
X0256077Y0182649D01*
X0256077Y0182050D02*
X0256677Y0182050D01*
X0256677Y0181452D02*
X0256077Y0181452D01*
X0256077Y0180853D02*
X0256677Y0180853D01*
X0256677Y0180255D02*
X0256077Y0180255D01*
X0259053Y0182649D02*
X0270621Y0182649D01*
X0269847Y0183247D02*
X0258454Y0183247D01*
X0259651Y0182050D02*
X0272066Y0182050D01*
X0269249Y0183846D02*
X0233136Y0183846D01*
X0232537Y0184444D02*
X0268650Y0184444D01*
X0268170Y0185043D02*
X0231939Y0185043D01*
X0232307Y0185641D02*
X0267922Y0185641D01*
X0267674Y0186240D02*
X0232905Y0186240D01*
X0233441Y0186839D02*
X0267426Y0186839D01*
X0267178Y0187437D02*
X0233689Y0187437D01*
X0233937Y0188036D02*
X0266984Y0188036D01*
X0266984Y0188634D02*
X0234185Y0188634D01*
X0234318Y0189233D02*
X0266984Y0189233D01*
X0266984Y0189831D02*
X0234318Y0189831D01*
X0234318Y0190430D02*
X0267135Y0190430D01*
X0267368Y0191028D02*
X0234318Y0191028D01*
X0234208Y0191627D02*
X0267616Y0191627D01*
X0267864Y0192225D02*
X0233960Y0192225D01*
X0233712Y0192824D02*
X0268112Y0192824D01*
X0268509Y0193422D02*
X0233464Y0193422D01*
X0232961Y0194021D02*
X0269107Y0194021D01*
X0269706Y0194619D02*
X0232362Y0194619D01*
X0231440Y0205392D02*
X0240336Y0205392D01*
X0240934Y0205991D02*
X0229995Y0205991D01*
X0229843Y0206589D02*
X0235487Y0206589D01*
X0235967Y0206109D02*
X0233273Y0208804D01*
X0233273Y0210409D01*
X0237573Y0210409D01*
X0238173Y0210409D01*
X0238173Y0206109D01*
X0239778Y0206109D01*
X0242473Y0208804D01*
X0242473Y0210409D01*
X0238173Y0210409D01*
X0238173Y0211009D01*
X0242473Y0211009D01*
X0242473Y0212615D01*
X0239778Y0215309D01*
X0238173Y0215309D01*
X0238173Y0211009D01*
X0237573Y0211009D01*
X0237573Y0210409D01*
X0237573Y0206109D01*
X0235967Y0206109D01*
X0234889Y0207188D02*
X0230813Y0207188D01*
X0230754Y0207129D02*
X0231297Y0207672D01*
X0231724Y0208311D01*
X0232018Y0209021D01*
X0232168Y0209774D01*
X0232168Y0209858D01*
X0225968Y0209858D01*
X0225968Y0206258D01*
X0228652Y0206258D01*
X0229406Y0206408D01*
X0230115Y0206702D01*
X0230754Y0207129D01*
X0231374Y0207786D02*
X0234290Y0207786D01*
X0233692Y0208385D02*
X0231755Y0208385D01*
X0232003Y0208983D02*
X0233273Y0208983D01*
X0233273Y0209582D02*
X0232130Y0209582D01*
X0232168Y0210458D02*
X0232168Y0210542D01*
X0232018Y0211296D01*
X0231724Y0212006D01*
X0231297Y0212644D01*
X0230754Y0213188D01*
X0230115Y0213614D01*
X0229406Y0213908D01*
X0228652Y0214058D01*
X0225968Y0214058D01*
X0225968Y0210458D01*
X0232168Y0210458D01*
X0232121Y0210779D02*
X0237573Y0210779D01*
X0237573Y0211009D02*
X0233273Y0211009D01*
X0233273Y0212615D01*
X0235967Y0215309D01*
X0237573Y0215309D01*
X0237573Y0211009D01*
X0237573Y0211377D02*
X0238173Y0211377D01*
X0238173Y0210779D02*
X0245722Y0210779D01*
X0245124Y0210180D02*
X0242473Y0210180D01*
X0242473Y0209582D02*
X0244525Y0209582D01*
X0243927Y0208983D02*
X0242473Y0208983D01*
X0242054Y0208385D02*
X0243328Y0208385D01*
X0242730Y0207786D02*
X0241455Y0207786D01*
X0240857Y0207188D02*
X0242131Y0207188D01*
X0241533Y0206589D02*
X0240258Y0206589D01*
X0238173Y0206589D02*
X0237573Y0206589D01*
X0237573Y0207188D02*
X0238173Y0207188D01*
X0238173Y0207786D02*
X0237573Y0207786D01*
X0237573Y0208385D02*
X0238173Y0208385D01*
X0238173Y0208983D02*
X0237573Y0208983D01*
X0237573Y0209582D02*
X0238173Y0209582D01*
X0238173Y0210180D02*
X0237573Y0210180D01*
X0237573Y0211976D02*
X0238173Y0211976D01*
X0238173Y0212574D02*
X0237573Y0212574D01*
X0237573Y0213173D02*
X0238173Y0213173D01*
X0238173Y0213772D02*
X0237573Y0213772D01*
X0237573Y0214370D02*
X0238173Y0214370D01*
X0238173Y0214969D02*
X0237573Y0214969D01*
X0235626Y0214969D02*
X0231547Y0214969D01*
X0232232Y0215567D02*
X0253579Y0215567D01*
X0252980Y0214969D02*
X0240119Y0214969D01*
X0240717Y0214370D02*
X0252382Y0214370D01*
X0251783Y0213772D02*
X0241316Y0213772D01*
X0241915Y0213173D02*
X0248831Y0213173D01*
X0247518Y0212574D02*
X0242473Y0212574D01*
X0242473Y0211976D02*
X0246919Y0211976D01*
X0246321Y0211377D02*
X0242473Y0211377D01*
X0235028Y0214370D02*
X0230102Y0214370D01*
X0229736Y0213772D02*
X0234429Y0213772D01*
X0233831Y0213173D02*
X0230769Y0213173D01*
X0231344Y0212574D02*
X0233273Y0212574D01*
X0233273Y0211976D02*
X0231736Y0211976D01*
X0231984Y0211377D02*
X0233273Y0211377D01*
X0233273Y0210180D02*
X0225968Y0210180D01*
X0225968Y0210458D02*
X0225968Y0209858D01*
X0225368Y0209858D01*
X0225368Y0206258D01*
X0222684Y0206258D01*
X0221930Y0206408D01*
X0221221Y0206702D01*
X0220582Y0207129D01*
X0220039Y0207672D01*
X0219612Y0208311D01*
X0219318Y0209021D01*
X0219168Y0209774D01*
X0219168Y0209858D01*
X0225368Y0209858D01*
X0225368Y0210458D01*
X0219168Y0210458D01*
X0219168Y0210542D01*
X0219318Y0211296D01*
X0219612Y0212006D01*
X0220039Y0212644D01*
X0220582Y0213188D01*
X0221221Y0213614D01*
X0221930Y0213908D01*
X0222684Y0214058D01*
X0225368Y0214058D01*
X0225368Y0210458D01*
X0225968Y0210458D01*
X0225968Y0210779D02*
X0225368Y0210779D01*
X0225368Y0211377D02*
X0225968Y0211377D01*
X0225968Y0211976D02*
X0225368Y0211976D01*
X0225368Y0212574D02*
X0225968Y0212574D01*
X0225968Y0213173D02*
X0225368Y0213173D01*
X0225368Y0213772D02*
X0225968Y0213772D01*
X0221600Y0213772D02*
X0203210Y0213772D01*
X0203567Y0213173D02*
X0220567Y0213173D01*
X0219992Y0212574D02*
X0203815Y0212574D01*
X0204063Y0211976D02*
X0219600Y0211976D01*
X0219352Y0211377D02*
X0204311Y0211377D01*
X0204318Y0210779D02*
X0219215Y0210779D01*
X0219206Y0209582D02*
X0204318Y0209582D01*
X0204318Y0210180D02*
X0225368Y0210180D01*
X0225368Y0209582D02*
X0225968Y0209582D01*
X0225968Y0208983D02*
X0225368Y0208983D01*
X0225368Y0208385D02*
X0225968Y0208385D01*
X0225968Y0207786D02*
X0225368Y0207786D01*
X0225368Y0207188D02*
X0225968Y0207188D01*
X0225968Y0206589D02*
X0225368Y0206589D01*
X0221493Y0206589D02*
X0203255Y0206589D01*
X0203586Y0207188D02*
X0220523Y0207188D01*
X0219962Y0207786D02*
X0203834Y0207786D01*
X0204081Y0208385D02*
X0219581Y0208385D01*
X0219333Y0208983D02*
X0204318Y0208983D01*
X0202656Y0205991D02*
X0221341Y0205991D01*
X0219896Y0205392D02*
X0202057Y0205392D01*
X0202188Y0204794D02*
X0219148Y0204794D01*
X0218550Y0204195D02*
X0202786Y0204195D01*
X0203385Y0203597D02*
X0217951Y0203597D01*
X0217696Y0202998D02*
X0203640Y0202998D01*
X0203888Y0202400D02*
X0217448Y0202400D01*
X0217201Y0201801D02*
X0204135Y0201801D01*
X0204318Y0201203D02*
X0217018Y0201203D01*
X0217018Y0200604D02*
X0204318Y0200604D01*
X0204318Y0200006D02*
X0217018Y0200006D01*
X0217018Y0199407D02*
X0204318Y0199407D01*
X0204257Y0198809D02*
X0217079Y0198809D01*
X0217327Y0198210D02*
X0204009Y0198210D01*
X0203761Y0197612D02*
X0217575Y0197612D01*
X0217823Y0197013D02*
X0203513Y0197013D01*
X0203080Y0196415D02*
X0218256Y0196415D01*
X0218855Y0195816D02*
X0202481Y0195816D01*
X0201883Y0195218D02*
X0212985Y0195218D01*
X0211540Y0194619D02*
X0202362Y0194619D01*
X0202961Y0194021D02*
X0210854Y0194021D01*
X0210255Y0193422D02*
X0203464Y0193422D01*
X0203712Y0192824D02*
X0209657Y0192824D01*
X0209058Y0192225D02*
X0203960Y0192225D01*
X0204208Y0191627D02*
X0208460Y0191627D01*
X0207861Y0191028D02*
X0204318Y0191028D01*
X0204318Y0190430D02*
X0207263Y0190430D01*
X0206664Y0189831D02*
X0204318Y0189831D01*
X0204318Y0189233D02*
X0206066Y0189233D01*
X0205798Y0188634D02*
X0204185Y0188634D01*
X0203937Y0188036D02*
X0205551Y0188036D01*
X0205303Y0187437D02*
X0203689Y0187437D01*
X0203441Y0186839D02*
X0205264Y0186839D01*
X0205264Y0186240D02*
X0202905Y0186240D01*
X0202307Y0185641D02*
X0205264Y0185641D01*
X0205264Y0185043D02*
X0201939Y0185043D01*
X0202537Y0184444D02*
X0205264Y0184444D01*
X0205264Y0183846D02*
X0203136Y0183846D01*
X0203536Y0183247D02*
X0205264Y0183247D01*
X0205264Y0182649D02*
X0203784Y0182649D01*
X0204032Y0182050D02*
X0205264Y0182050D01*
X0205264Y0181452D02*
X0204280Y0181452D01*
X0204318Y0180853D02*
X0205264Y0180853D01*
X0205264Y0180255D02*
X0204318Y0180255D01*
X0204318Y0179656D02*
X0205264Y0179656D01*
X0205264Y0179058D02*
X0204318Y0179058D01*
X0204112Y0178459D02*
X0205264Y0178459D01*
X0205264Y0177861D02*
X0203864Y0177861D01*
X0203616Y0177262D02*
X0205264Y0177262D01*
X0205264Y0176664D02*
X0203329Y0176664D01*
X0202730Y0176065D02*
X0204709Y0176065D01*
X0204111Y0175467D02*
X0202132Y0175467D01*
X0201305Y0174868D02*
X0203512Y0174868D01*
X0202914Y0174270D02*
X0199860Y0174270D01*
X0198834Y0173073D02*
X0201717Y0173073D01*
X0202315Y0173671D02*
X0198236Y0173671D01*
X0199891Y0162471D02*
X0204310Y0162471D01*
X0206166Y0163240D01*
X0212351Y0169424D01*
X0212351Y0160572D01*
X0212351Y0158563D01*
X0213119Y0156707D01*
X0216066Y0153761D01*
X0215112Y0152806D01*
X0201591Y0152806D01*
X0201591Y0158190D01*
X0199891Y0159890D01*
X0199891Y0162471D01*
X0199891Y0162300D02*
X0212351Y0162300D01*
X0212351Y0162898D02*
X0205342Y0162898D01*
X0206423Y0163497D02*
X0212351Y0163497D01*
X0212351Y0164095D02*
X0207022Y0164095D01*
X0207620Y0164694D02*
X0212351Y0164694D01*
X0212351Y0165292D02*
X0208219Y0165292D01*
X0208817Y0165891D02*
X0212351Y0165891D01*
X0212351Y0166489D02*
X0209416Y0166489D01*
X0210014Y0167088D02*
X0212351Y0167088D01*
X0212351Y0167686D02*
X0210613Y0167686D01*
X0211211Y0168285D02*
X0212351Y0168285D01*
X0212351Y0168883D02*
X0211810Y0168883D01*
X0212351Y0161701D02*
X0199891Y0161701D01*
X0199891Y0161103D02*
X0212351Y0161103D01*
X0212351Y0160504D02*
X0199891Y0160504D01*
X0199891Y0159905D02*
X0212351Y0159905D01*
X0212351Y0159307D02*
X0200474Y0159307D01*
X0201073Y0158708D02*
X0212351Y0158708D01*
X0212538Y0158110D02*
X0201591Y0158110D01*
X0201591Y0157511D02*
X0212786Y0157511D01*
X0213034Y0156913D02*
X0201591Y0156913D01*
X0201591Y0156314D02*
X0213512Y0156314D01*
X0214111Y0155716D02*
X0201591Y0155716D01*
X0201591Y0155117D02*
X0214709Y0155117D01*
X0215308Y0154519D02*
X0201591Y0154519D01*
X0201591Y0153920D02*
X0215906Y0153920D01*
X0215627Y0153322D02*
X0201591Y0153322D01*
X0221531Y0144943D02*
X0225949Y0144943D01*
X0226548Y0145541D02*
X0222129Y0145541D01*
X0222728Y0146140D02*
X0227146Y0146140D01*
X0227745Y0146738D02*
X0223326Y0146738D01*
X0223925Y0147337D02*
X0228343Y0147337D01*
X0228942Y0147935D02*
X0224523Y0147935D01*
X0225122Y0148534D02*
X0229540Y0148534D01*
X0230139Y0149132D02*
X0228124Y0149132D01*
X0228723Y0149731D02*
X0230737Y0149731D01*
X0231336Y0150329D02*
X0229321Y0150329D01*
X0229920Y0150928D02*
X0231934Y0150928D01*
X0232429Y0151526D02*
X0230518Y0151526D01*
X0231117Y0152125D02*
X0232429Y0152125D01*
X0232429Y0152723D02*
X0231591Y0152723D01*
X0231591Y0153322D02*
X0232429Y0153322D01*
X0232429Y0153920D02*
X0231591Y0153920D01*
X0231591Y0154519D02*
X0232429Y0154519D01*
X0232429Y0155117D02*
X0231591Y0155117D01*
X0231591Y0155716D02*
X0232429Y0155716D01*
X0232429Y0156314D02*
X0231591Y0156314D01*
X0231591Y0156913D02*
X0232429Y0156913D01*
X0232429Y0157511D02*
X0231591Y0157511D01*
X0231591Y0158110D02*
X0232429Y0158110D01*
X0232429Y0158708D02*
X0231073Y0158708D01*
X0230474Y0159307D02*
X0232429Y0159307D01*
X0232429Y0159905D02*
X0229876Y0159905D01*
X0229277Y0160504D02*
X0232429Y0160504D01*
X0232429Y0161103D02*
X0228679Y0161103D01*
X0228080Y0161701D02*
X0232429Y0161701D01*
X0232429Y0162300D02*
X0222450Y0162300D01*
X0222450Y0162898D02*
X0232429Y0162898D01*
X0232429Y0163497D02*
X0227323Y0163497D01*
X0227921Y0164095D02*
X0232429Y0164095D01*
X0232429Y0164694D02*
X0228520Y0164694D01*
X0229118Y0165292D02*
X0232591Y0165292D01*
X0232839Y0165891D02*
X0229441Y0165891D01*
X0229441Y0166489D02*
X0233086Y0166489D01*
X0233527Y0167088D02*
X0229441Y0167088D01*
X0229441Y0168285D02*
X0234724Y0168285D01*
X0235323Y0168883D02*
X0229441Y0168883D01*
X0229385Y0169482D02*
X0235921Y0169482D01*
X0236520Y0170080D02*
X0228787Y0170080D01*
X0228188Y0170679D02*
X0237118Y0170679D01*
X0237717Y0171277D02*
X0227590Y0171277D01*
X0226991Y0171876D02*
X0238315Y0171876D01*
X0238914Y0172474D02*
X0222450Y0172474D01*
X0222450Y0171876D02*
X0222691Y0171876D01*
X0222450Y0173073D02*
X0239512Y0173073D01*
X0240233Y0173671D02*
X0222503Y0173671D01*
X0224541Y0171876D02*
X0225141Y0171876D01*
X0225141Y0171277D02*
X0224541Y0171277D01*
X0224541Y0170679D02*
X0225141Y0170679D01*
X0225141Y0170080D02*
X0224541Y0170080D01*
X0224541Y0169482D02*
X0225141Y0169482D01*
X0225141Y0168883D02*
X0224541Y0168883D01*
X0224541Y0168285D02*
X0225141Y0168285D01*
X0225141Y0167686D02*
X0234126Y0167686D01*
X0231305Y0174868D02*
X0253823Y0174868D01*
X0253224Y0175467D02*
X0232132Y0175467D01*
X0232730Y0176065D02*
X0252626Y0176065D01*
X0252027Y0176664D02*
X0233329Y0176664D01*
X0233616Y0177262D02*
X0251777Y0177262D01*
X0251777Y0177861D02*
X0233864Y0177861D01*
X0234112Y0178459D02*
X0251777Y0178459D01*
X0258931Y0174868D02*
X0269655Y0174868D01*
X0270253Y0175467D02*
X0259529Y0175467D01*
X0260128Y0176065D02*
X0271602Y0176065D01*
X0260977Y0179656D02*
X0293059Y0179656D01*
X0293059Y0180255D02*
X0260977Y0180255D01*
X0260848Y0180853D02*
X0293059Y0180853D01*
X0293059Y0181452D02*
X0260250Y0181452D01*
X0270304Y0195218D02*
X0243904Y0195218D01*
X0245349Y0195816D02*
X0271725Y0195816D01*
X0272185Y0201801D02*
X0251027Y0201801D01*
X0250428Y0201203D02*
X0293453Y0201203D01*
X0293453Y0201801D02*
X0284584Y0201801D01*
X0286029Y0202400D02*
X0293453Y0202400D01*
X0293453Y0202998D02*
X0286873Y0202998D01*
X0287471Y0203597D02*
X0293453Y0203597D01*
X0293453Y0204195D02*
X0288070Y0204195D01*
X0288579Y0204794D02*
X0293453Y0204794D01*
X0293453Y0205392D02*
X0288827Y0205392D01*
X0289074Y0205991D02*
X0293453Y0205991D01*
X0293453Y0206589D02*
X0289322Y0206589D01*
X0289570Y0207188D02*
X0293453Y0207188D01*
X0293453Y0207786D02*
X0289634Y0207786D01*
X0289634Y0208385D02*
X0293453Y0208385D01*
X0293453Y0208983D02*
X0289634Y0208983D01*
X0289634Y0209582D02*
X0293453Y0209582D01*
X0293453Y0210180D02*
X0289634Y0210180D01*
X0289422Y0210779D02*
X0293453Y0210779D01*
X0293453Y0211377D02*
X0289174Y0211377D01*
X0288926Y0211976D02*
X0293453Y0211976D01*
X0293453Y0212574D02*
X0288678Y0212574D01*
X0288309Y0213173D02*
X0293453Y0213173D01*
X0293453Y0213772D02*
X0287711Y0213772D01*
X0287112Y0214370D02*
X0293453Y0214370D01*
X0293453Y0214969D02*
X0286514Y0214969D01*
X0285162Y0215567D02*
X0293453Y0215567D01*
X0293453Y0216166D02*
X0232831Y0216166D01*
X0233410Y0216764D02*
X0293453Y0216764D01*
X0293453Y0217363D02*
X0233658Y0217363D01*
X0233906Y0217961D02*
X0293453Y0217961D01*
X0293453Y0218560D02*
X0234154Y0218560D01*
X0234318Y0219158D02*
X0293453Y0219158D01*
X0293453Y0219757D02*
X0234318Y0219757D01*
X0234318Y0220355D02*
X0293453Y0220355D01*
X0293400Y0220954D02*
X0234318Y0220954D01*
X0234239Y0221552D02*
X0272062Y0221552D01*
X0270617Y0222151D02*
X0233991Y0222151D01*
X0233743Y0222749D02*
X0269845Y0222749D01*
X0269247Y0223348D02*
X0233495Y0223348D01*
X0233035Y0223946D02*
X0268648Y0223946D01*
X0268169Y0224545D02*
X0232437Y0224545D01*
X0231838Y0225143D02*
X0267921Y0225143D01*
X0267673Y0225742D02*
X0232407Y0225742D01*
X0233005Y0226340D02*
X0267426Y0226340D01*
X0267178Y0226939D02*
X0233482Y0226939D01*
X0233730Y0227537D02*
X0267135Y0227537D01*
X0267135Y0228136D02*
X0233978Y0228136D01*
X0234226Y0228734D02*
X0267135Y0228734D01*
X0267135Y0229333D02*
X0234318Y0229333D01*
X0234318Y0229931D02*
X0267135Y0229931D01*
X0267369Y0230530D02*
X0234318Y0230530D01*
X0234318Y0231128D02*
X0267616Y0231128D01*
X0267864Y0231727D02*
X0234166Y0231727D01*
X0233918Y0232325D02*
X0268112Y0232325D01*
X0268511Y0232924D02*
X0233670Y0232924D01*
X0233423Y0233522D02*
X0269109Y0233522D01*
X0269708Y0234121D02*
X0240830Y0234121D01*
X0241428Y0234719D02*
X0270306Y0234719D01*
X0271730Y0235318D02*
X0242027Y0235318D01*
X0242625Y0235916D02*
X0294240Y0235916D01*
X0294240Y0236515D02*
X0243224Y0236515D01*
X0243822Y0237113D02*
X0294240Y0237113D01*
X0294240Y0237712D02*
X0244421Y0237712D01*
X0244622Y0238310D02*
X0294240Y0238310D01*
X0294240Y0238909D02*
X0244622Y0238909D01*
X0244622Y0239508D02*
X0294240Y0239508D01*
X0294240Y0240106D02*
X0244622Y0240106D01*
X0244622Y0240705D02*
X0294240Y0240705D01*
X0294240Y0241303D02*
X0284830Y0241303D01*
X0286275Y0241902D02*
X0294240Y0241902D01*
X0294240Y0242500D02*
X0286975Y0242500D01*
X0287573Y0243099D02*
X0294240Y0243099D01*
X0294240Y0243697D02*
X0288172Y0243697D01*
X0288621Y0244296D02*
X0294240Y0244296D01*
X0294240Y0244894D02*
X0288869Y0244894D01*
X0289117Y0245493D02*
X0294240Y0245493D01*
X0294240Y0246091D02*
X0289364Y0246091D01*
X0289612Y0246690D02*
X0294240Y0246690D01*
X0294240Y0247288D02*
X0289634Y0247288D01*
X0289634Y0247887D02*
X0294240Y0247887D01*
X0294240Y0248485D02*
X0289634Y0248485D01*
X0289634Y0249084D02*
X0294240Y0249084D01*
X0294240Y0249682D02*
X0289627Y0249682D01*
X0289379Y0250281D02*
X0294240Y0250281D01*
X0294240Y0250879D02*
X0289132Y0250879D01*
X0288884Y0251478D02*
X0294240Y0251478D01*
X0293735Y0252076D02*
X0288636Y0252076D01*
X0288208Y0252675D02*
X0293136Y0252675D01*
X0292538Y0253273D02*
X0287609Y0253273D01*
X0287011Y0253872D02*
X0291939Y0253872D01*
X0291341Y0254470D02*
X0286362Y0254470D01*
X0284917Y0255069D02*
X0290742Y0255069D01*
X0271939Y0241303D02*
X0244622Y0241303D01*
X0244622Y0241902D02*
X0270494Y0241902D01*
X0269794Y0242500D02*
X0244622Y0242500D01*
X0244622Y0243099D02*
X0269196Y0243099D01*
X0285040Y0235318D02*
X0293883Y0235318D01*
X0293285Y0234719D02*
X0286463Y0234719D01*
X0287061Y0234121D02*
X0292686Y0234121D01*
X0291006Y0223348D02*
X0287522Y0223348D01*
X0286924Y0222749D02*
X0291604Y0222749D01*
X0292203Y0222151D02*
X0286152Y0222151D01*
X0284707Y0221552D02*
X0292801Y0221552D01*
X0293453Y0200604D02*
X0249830Y0200604D01*
X0249231Y0200006D02*
X0293453Y0200006D01*
X0293453Y0199407D02*
X0248633Y0199407D01*
X0248034Y0198809D02*
X0293453Y0198809D01*
X0293453Y0198210D02*
X0247436Y0198210D01*
X0247047Y0197612D02*
X0293453Y0197612D01*
X0293453Y0197013D02*
X0246633Y0197013D01*
X0246034Y0196415D02*
X0293453Y0196415D01*
X0293453Y0195816D02*
X0285044Y0195816D01*
X0286465Y0195218D02*
X0293453Y0195218D01*
X0292948Y0194619D02*
X0287063Y0194619D01*
X0287520Y0183846D02*
X0292674Y0183846D01*
X0293059Y0183247D02*
X0286922Y0183247D01*
X0286148Y0182649D02*
X0293059Y0182649D01*
X0293059Y0182050D02*
X0284703Y0182050D01*
X0272189Y0162300D02*
X0243021Y0162300D01*
X0243620Y0162898D02*
X0270744Y0162898D01*
X0269898Y0163497D02*
X0244218Y0163497D01*
X0244817Y0164095D02*
X0269299Y0164095D01*
X0269350Y0144344D02*
X0248688Y0144344D01*
X0248090Y0143746D02*
X0269949Y0143746D01*
X0270867Y0143147D02*
X0247491Y0143147D01*
X0246893Y0142549D02*
X0272312Y0142549D01*
X0272560Y0137162D02*
X0241506Y0137162D01*
X0242104Y0137761D02*
X0293059Y0137761D01*
X0293059Y0138359D02*
X0242703Y0138359D01*
X0243301Y0138958D02*
X0293059Y0138958D01*
X0293059Y0139556D02*
X0243900Y0139556D01*
X0244498Y0140155D02*
X0293059Y0140155D01*
X0293059Y0140753D02*
X0245097Y0140753D01*
X0245695Y0141352D02*
X0293059Y0141352D01*
X0293059Y0141950D02*
X0246294Y0141950D01*
X0240907Y0136564D02*
X0271115Y0136564D01*
X0270052Y0135965D02*
X0240309Y0135965D01*
X0239710Y0135367D02*
X0269453Y0135367D01*
X0268855Y0134768D02*
X0239112Y0134768D01*
X0238513Y0134170D02*
X0268256Y0134170D01*
X0268007Y0133571D02*
X0237915Y0133571D01*
X0237316Y0132972D02*
X0267759Y0132972D01*
X0267511Y0132374D02*
X0236718Y0132374D01*
X0236119Y0131775D02*
X0267263Y0131775D01*
X0267135Y0131177D02*
X0235521Y0131177D01*
X0234922Y0130578D02*
X0267135Y0130578D01*
X0267135Y0129980D02*
X0234324Y0129980D01*
X0233725Y0129381D02*
X0267135Y0129381D01*
X0267135Y0128783D02*
X0233127Y0128783D01*
X0232528Y0128184D02*
X0267283Y0128184D01*
X0267531Y0127586D02*
X0231930Y0127586D01*
X0255289Y0126389D02*
X0255889Y0126389D01*
X0255889Y0125790D02*
X0255289Y0125790D01*
X0255289Y0125192D02*
X0255889Y0125192D01*
X0255889Y0124593D02*
X0255289Y0124593D01*
X0255289Y0123995D02*
X0255889Y0123995D01*
X0255889Y0123396D02*
X0255289Y0123396D01*
X0255289Y0122798D02*
X0255889Y0122798D01*
X0225141Y0163497D02*
X0224541Y0163497D01*
X0224541Y0164095D02*
X0225141Y0164095D01*
X0225141Y0164694D02*
X0224541Y0164694D01*
X0224541Y0165292D02*
X0225141Y0165292D01*
X0225141Y0165891D02*
X0224541Y0165891D01*
X0224541Y0166489D02*
X0225141Y0166489D01*
X0225141Y0167088D02*
X0224541Y0167088D01*
X0229860Y0174270D02*
X0241678Y0174270D01*
X0219513Y0185158D02*
X0217939Y0183585D01*
X0217801Y0183252D01*
X0217568Y0183019D01*
X0215363Y0180814D01*
X0215363Y0184248D01*
X0216342Y0185227D01*
X0219444Y0185227D01*
X0219513Y0185158D01*
X0219397Y0185043D02*
X0216158Y0185043D01*
X0215560Y0184444D02*
X0218799Y0184444D01*
X0218200Y0183846D02*
X0215363Y0183846D01*
X0215363Y0183247D02*
X0217797Y0183247D01*
X0217199Y0182649D02*
X0215363Y0182649D01*
X0215363Y0182050D02*
X0216600Y0182050D01*
X0216002Y0181452D02*
X0215363Y0181452D01*
X0215363Y0180853D02*
X0215403Y0180853D01*
X0251626Y0202400D02*
X0253251Y0202400D01*
X0252653Y0202998D02*
X0252224Y0202998D01*
X0259502Y0202400D02*
X0270740Y0202400D01*
X0269896Y0202998D02*
X0260101Y0202998D01*
X0260699Y0203597D02*
X0269298Y0203597D01*
X0269657Y0214370D02*
X0260372Y0214370D01*
X0259773Y0214969D02*
X0270255Y0214969D01*
X0271607Y0215567D02*
X0259175Y0215567D01*
X0234916Y0234121D02*
X0232861Y0234121D01*
X0232262Y0234719D02*
X0234317Y0234719D01*
X0233719Y0235318D02*
X0231983Y0235318D01*
X0232582Y0235916D02*
X0233120Y0235916D01*
X0219353Y0235318D02*
X0201983Y0235318D01*
X0202262Y0234719D02*
X0219074Y0234719D01*
X0218475Y0234121D02*
X0202861Y0234121D01*
X0203423Y0233522D02*
X0217913Y0233522D01*
X0217665Y0232924D02*
X0203670Y0232924D01*
X0203918Y0232325D02*
X0217418Y0232325D01*
X0217170Y0231727D02*
X0204166Y0231727D01*
X0204318Y0231128D02*
X0217018Y0231128D01*
X0217018Y0230530D02*
X0204318Y0230530D01*
X0204318Y0229931D02*
X0217018Y0229931D01*
X0217018Y0229333D02*
X0204318Y0229333D01*
X0204226Y0228734D02*
X0217110Y0228734D01*
X0217358Y0228136D02*
X0203978Y0228136D01*
X0203730Y0227537D02*
X0217606Y0227537D01*
X0217853Y0226939D02*
X0203482Y0226939D01*
X0203005Y0226340D02*
X0218331Y0226340D01*
X0218929Y0225742D02*
X0202407Y0225742D01*
X0201838Y0225143D02*
X0219498Y0225143D01*
X0218899Y0224545D02*
X0202437Y0224545D01*
X0203035Y0223946D02*
X0218301Y0223946D01*
X0217841Y0223348D02*
X0203495Y0223348D01*
X0203743Y0222749D02*
X0217593Y0222749D01*
X0217345Y0222151D02*
X0203991Y0222151D01*
X0204239Y0221552D02*
X0217097Y0221552D01*
X0217018Y0220954D02*
X0204318Y0220954D01*
X0204318Y0220355D02*
X0217018Y0220355D01*
X0217018Y0219757D02*
X0204318Y0219757D01*
X0204318Y0219158D02*
X0217018Y0219158D01*
X0217182Y0218560D02*
X0204154Y0218560D01*
X0203906Y0217961D02*
X0217430Y0217961D01*
X0217678Y0217363D02*
X0203658Y0217363D01*
X0203410Y0216764D02*
X0217926Y0216764D01*
X0218505Y0216166D02*
X0202831Y0216166D01*
X0202232Y0215567D02*
X0219104Y0215567D01*
X0219789Y0214969D02*
X0202013Y0214969D01*
X0202612Y0214370D02*
X0221234Y0214370D01*
X0218754Y0235916D02*
X0202582Y0235916D01*
X0203180Y0236515D02*
X0218156Y0236515D01*
X0217781Y0237113D02*
X0203555Y0237113D01*
X0203803Y0237712D02*
X0217533Y0237712D01*
X0217285Y0238310D02*
X0204051Y0238310D01*
X0204299Y0238909D02*
X0217037Y0238909D01*
X0217018Y0239508D02*
X0204318Y0239508D01*
X0204318Y0240106D02*
X0217018Y0240106D01*
X0217018Y0240705D02*
X0204318Y0240705D01*
X0204318Y0241303D02*
X0217018Y0241303D01*
X0217242Y0241902D02*
X0204094Y0241902D01*
X0203846Y0242500D02*
X0217490Y0242500D01*
X0217738Y0243099D02*
X0203598Y0243099D01*
X0189513Y0235158D02*
X0187939Y0233585D01*
X0187018Y0231362D01*
X0187018Y0228955D01*
X0187939Y0226731D01*
X0189513Y0225158D01*
X0187939Y0223585D01*
X0187018Y0221362D01*
X0187018Y0218955D01*
X0187939Y0216731D01*
X0189266Y0215405D01*
X0160437Y0215405D01*
X0151426Y0224415D01*
X0151426Y0228176D01*
X0151517Y0228213D01*
X0154070Y0230766D01*
X0155451Y0234101D01*
X0155451Y0237711D01*
X0154070Y0241047D01*
X0151962Y0243154D01*
X0187761Y0243154D01*
X0187018Y0241362D01*
X0187018Y0238955D01*
X0187939Y0236731D01*
X0189513Y0235158D01*
X0189353Y0235318D02*
X0155451Y0235318D01*
X0155451Y0235916D02*
X0188754Y0235916D01*
X0188156Y0236515D02*
X0155451Y0236515D01*
X0155451Y0237113D02*
X0187781Y0237113D01*
X0187533Y0237712D02*
X0155451Y0237712D01*
X0155203Y0238310D02*
X0187285Y0238310D01*
X0187037Y0238909D02*
X0154955Y0238909D01*
X0154707Y0239508D02*
X0187018Y0239508D01*
X0187018Y0240106D02*
X0154459Y0240106D01*
X0154211Y0240705D02*
X0187018Y0240705D01*
X0187018Y0241303D02*
X0153813Y0241303D01*
X0153215Y0241902D02*
X0187242Y0241902D01*
X0187490Y0242500D02*
X0152616Y0242500D01*
X0152018Y0243099D02*
X0187738Y0243099D01*
X0189074Y0234719D02*
X0155451Y0234719D01*
X0155451Y0234121D02*
X0188475Y0234121D01*
X0187913Y0233522D02*
X0155211Y0233522D01*
X0154964Y0232924D02*
X0187665Y0232924D01*
X0187418Y0232325D02*
X0154716Y0232325D01*
X0154468Y0231727D02*
X0187170Y0231727D01*
X0187018Y0231128D02*
X0154220Y0231128D01*
X0153834Y0230530D02*
X0187018Y0230530D01*
X0187018Y0229931D02*
X0153235Y0229931D01*
X0152637Y0229333D02*
X0187018Y0229333D01*
X0187110Y0228734D02*
X0152038Y0228734D01*
X0151426Y0228136D02*
X0187358Y0228136D01*
X0187606Y0227537D02*
X0151426Y0227537D01*
X0151426Y0226939D02*
X0187853Y0226939D01*
X0188331Y0226340D02*
X0151426Y0226340D01*
X0151426Y0225742D02*
X0188929Y0225742D01*
X0189498Y0225143D02*
X0151426Y0225143D01*
X0151426Y0224545D02*
X0188899Y0224545D01*
X0188300Y0223946D02*
X0151895Y0223946D01*
X0152494Y0223348D02*
X0187841Y0223348D01*
X0187593Y0222749D02*
X0153092Y0222749D01*
X0153691Y0222151D02*
X0187345Y0222151D01*
X0187097Y0221552D02*
X0154289Y0221552D01*
X0154888Y0220954D02*
X0187018Y0220954D01*
X0187018Y0220355D02*
X0155486Y0220355D01*
X0156085Y0219757D02*
X0187018Y0219757D01*
X0187018Y0219158D02*
X0156683Y0219158D01*
X0157282Y0218560D02*
X0187182Y0218560D01*
X0187430Y0217961D02*
X0157880Y0217961D01*
X0158479Y0217363D02*
X0187678Y0217363D01*
X0187926Y0216764D02*
X0159077Y0216764D01*
X0159676Y0216166D02*
X0188505Y0216166D01*
X0189104Y0215567D02*
X0160274Y0215567D01*
X0165199Y0147935D02*
X0009889Y0147935D01*
X0009889Y0147337D02*
X0165797Y0147337D01*
X0166396Y0146738D02*
X0009889Y0146738D01*
X0009889Y0146140D02*
X0166994Y0146140D01*
X0167593Y0145541D02*
X0009889Y0145541D01*
X0009889Y0144943D02*
X0168191Y0144943D01*
X0168790Y0144344D02*
X0009889Y0144344D01*
X0009889Y0143746D02*
X0169388Y0143746D01*
X0150509Y0127586D02*
X0009889Y0127586D01*
X0009889Y0128184D02*
X0149910Y0128184D01*
X0151107Y0126987D02*
X0009889Y0126987D01*
X0009889Y0126389D02*
X0152486Y0126389D01*
X0098173Y0051575D02*
X0036423Y0051575D01*
X0035779Y0050976D02*
X0098772Y0050976D01*
X0099370Y0050378D02*
X0034334Y0050378D01*
X0022207Y0128783D02*
X0009889Y0128783D01*
X0009889Y0129381D02*
X0020762Y0129381D01*
X0019559Y0129980D02*
X0009889Y0129980D01*
X0009889Y0130578D02*
X0018961Y0130578D01*
X0018362Y0131177D02*
X0009889Y0131177D01*
X0009889Y0131775D02*
X0017764Y0131775D01*
X0017457Y0132374D02*
X0009889Y0132374D01*
X0009889Y0132972D02*
X0017209Y0132972D01*
X0016961Y0133571D02*
X0009889Y0133571D01*
X0009889Y0134170D02*
X0016713Y0134170D01*
X0016544Y0134768D02*
X0009889Y0134768D01*
X0009889Y0135367D02*
X0016544Y0135367D01*
X0016544Y0135965D02*
X0009889Y0135965D01*
X0009889Y0136564D02*
X0016544Y0136564D01*
X0016544Y0137162D02*
X0009889Y0137162D01*
X0009889Y0137761D02*
X0016652Y0137761D01*
X0016900Y0138359D02*
X0009889Y0138359D01*
X0009889Y0138958D02*
X0017148Y0138958D01*
X0017395Y0139556D02*
X0009889Y0139556D01*
X0009889Y0140155D02*
X0017643Y0140155D01*
X0018214Y0140753D02*
X0009889Y0140753D01*
X0009889Y0141352D02*
X0018812Y0141352D01*
X0019411Y0141950D02*
X0009889Y0141950D01*
X0009889Y0142549D02*
X0020403Y0142549D01*
X0021848Y0143147D02*
X0009889Y0143147D01*
X0009889Y0148534D02*
X0022326Y0148534D01*
X0020881Y0149132D02*
X0009889Y0149132D01*
X0009889Y0149731D02*
X0019609Y0149731D01*
X0019010Y0150329D02*
X0009889Y0150329D01*
X0009889Y0150928D02*
X0018412Y0150928D01*
X0017813Y0151526D02*
X0009889Y0151526D01*
X0009889Y0152125D02*
X0017477Y0152125D01*
X0017229Y0152723D02*
X0009889Y0152723D01*
X0009889Y0153322D02*
X0016982Y0153322D01*
X0016734Y0153920D02*
X0009889Y0153920D01*
X0009889Y0154519D02*
X0016544Y0154519D01*
X0016544Y0155117D02*
X0009889Y0155117D01*
X0009889Y0155716D02*
X0016544Y0155716D01*
X0016544Y0156314D02*
X0009889Y0156314D01*
X0009889Y0156913D02*
X0016544Y0156913D01*
X0016631Y0157511D02*
X0009889Y0157511D01*
X0009889Y0158110D02*
X0016879Y0158110D01*
X0017127Y0158708D02*
X0009889Y0158708D01*
X0009889Y0159307D02*
X0017375Y0159307D01*
X0017623Y0159905D02*
X0009889Y0159905D01*
X0009889Y0160504D02*
X0018165Y0160504D01*
X0018763Y0161103D02*
X0009889Y0161103D01*
X0009889Y0161701D02*
X0019362Y0161701D01*
X0020285Y0162300D02*
X0009889Y0162300D01*
X0009889Y0162898D02*
X0021730Y0162898D01*
X0021962Y0168285D02*
X0009889Y0168285D01*
X0009889Y0168883D02*
X0020517Y0168883D01*
X0019458Y0169482D02*
X0009889Y0169482D01*
X0009889Y0170080D02*
X0018859Y0170080D01*
X0018261Y0170679D02*
X0009889Y0170679D01*
X0009889Y0171277D02*
X0017663Y0171277D01*
X0017415Y0171876D02*
X0009889Y0171876D01*
X0009889Y0172474D02*
X0017167Y0172474D01*
X0016919Y0173073D02*
X0009889Y0173073D01*
X0009889Y0173671D02*
X0016671Y0173671D01*
X0016544Y0174270D02*
X0009889Y0174270D01*
X0009889Y0174868D02*
X0016544Y0174868D01*
X0016544Y0175467D02*
X0009889Y0175467D01*
X0009889Y0176065D02*
X0016544Y0176065D01*
X0016544Y0176664D02*
X0009889Y0176664D01*
X0009889Y0177262D02*
X0016694Y0177262D01*
X0016942Y0177861D02*
X0009889Y0177861D01*
X0009889Y0178459D02*
X0017190Y0178459D01*
X0017438Y0179058D02*
X0009889Y0179058D01*
X0009889Y0179656D02*
X0017717Y0179656D01*
X0018316Y0180255D02*
X0009889Y0180255D01*
X0009889Y0180853D02*
X0018914Y0180853D01*
X0019513Y0181452D02*
X0009889Y0181452D01*
X0009889Y0182050D02*
X0020649Y0182050D01*
X0022094Y0182649D02*
X0009889Y0182649D01*
X0009889Y0188036D02*
X0021839Y0188036D01*
X0020394Y0188634D02*
X0009889Y0188634D01*
X0009889Y0189233D02*
X0019407Y0189233D01*
X0018808Y0189831D02*
X0009889Y0189831D01*
X0009889Y0190430D02*
X0018210Y0190430D01*
X0017642Y0191028D02*
X0009889Y0191028D01*
X0009889Y0191627D02*
X0017394Y0191627D01*
X0017146Y0192225D02*
X0009889Y0192225D01*
X0009889Y0192824D02*
X0016898Y0192824D01*
X0016650Y0193422D02*
X0009889Y0193422D01*
X0009889Y0194021D02*
X0016544Y0194021D01*
X0016544Y0194619D02*
X0009889Y0194619D01*
X0009889Y0195218D02*
X0016544Y0195218D01*
X0016544Y0195816D02*
X0009889Y0195816D01*
X0009889Y0196415D02*
X0016544Y0196415D01*
X0016715Y0197013D02*
X0009889Y0197013D01*
X0009889Y0197612D02*
X0016963Y0197612D01*
X0017211Y0198210D02*
X0009889Y0198210D01*
X0009889Y0198809D02*
X0017459Y0198809D01*
X0017768Y0199407D02*
X0009889Y0199407D01*
X0009889Y0200006D02*
X0018366Y0200006D01*
X0018965Y0200604D02*
X0009889Y0200604D01*
X0009889Y0201203D02*
X0019563Y0201203D01*
X0020772Y0201801D02*
X0009889Y0201801D01*
X0009889Y0202400D02*
X0022217Y0202400D01*
X0033371Y0202400D02*
X0046005Y0202400D01*
X0046603Y0202998D02*
X0009889Y0202998D01*
X0009889Y0203597D02*
X0047202Y0203597D01*
X0047800Y0204195D02*
X0009889Y0204195D01*
X0009889Y0204794D02*
X0048399Y0204794D01*
X0048571Y0205392D02*
X0009889Y0205392D01*
X0009889Y0205991D02*
X0048571Y0205991D01*
X0048571Y0206589D02*
X0009889Y0206589D01*
X0009889Y0207188D02*
X0048571Y0207188D01*
X0048571Y0207786D02*
X0009889Y0207786D01*
X0009889Y0208385D02*
X0048571Y0208385D01*
X0048571Y0208983D02*
X0009889Y0208983D01*
X0009889Y0209582D02*
X0048571Y0209582D01*
X0048571Y0210180D02*
X0009889Y0210180D01*
X0009889Y0210779D02*
X0048571Y0210779D01*
X0048571Y0211377D02*
X0009889Y0211377D01*
X0009889Y0211976D02*
X0048571Y0211976D01*
X0048571Y0212574D02*
X0009889Y0212574D01*
X0009889Y0213173D02*
X0048571Y0213173D01*
X0048571Y0213772D02*
X0009889Y0213772D01*
X0009889Y0214370D02*
X0048571Y0214370D01*
X0048571Y0214969D02*
X0009889Y0214969D01*
X0009889Y0215567D02*
X0048571Y0215567D01*
X0048571Y0216166D02*
X0009889Y0216166D01*
X0009889Y0216764D02*
X0048571Y0216764D01*
X0045406Y0201801D02*
X0034816Y0201801D01*
X0036024Y0201203D02*
X0044807Y0201203D01*
X0044209Y0200604D02*
X0036623Y0200604D01*
M02*
