%
M48
M72
T01C0.03150
T02C0.03200
T03C0.04000
T04C0.05200
T05C0.07500
%
T01
X199251Y29646
X209251Y29646
X219251Y29646
X229251Y29646
T02
X239487Y17048
X209487Y17048
X255589Y51261
X255589Y81261
X255589Y91812
X255589Y121812
X224841Y155394
X224841Y167520
X225668Y180158
X225668Y190158
X225668Y200158
X225668Y210158
X225668Y220158
X225668Y230158
X225668Y240158
X237873Y240709
X237873Y210709
X256377Y208820
X256377Y178820
X195668Y180158
X195668Y190158
X195668Y200158
X195668Y210158
X195668Y220158
X195668Y230158
X195668Y240158
X194841Y167520
X194841Y155394
T03
X120314Y15828
X110314Y15828
X100314Y15828
T04
X27794Y37539
X27794Y57239
X27794Y76839
X27794Y96639
X27794Y116339
X27794Y136039
X27794Y155839
X27794Y175439
X27794Y195139
X27833Y225061
X27833Y244861
X278385Y248204
X278385Y228504
X278385Y208804
X278385Y189004
X278385Y169304
X278385Y149604
X278385Y130004
X278385Y110304
X278385Y90604
X278385Y70804
X278385Y51104
X278385Y31404
T05
X146377Y235906
X95377Y235906
M30
