G75*
%MOIN*%
%OFA0B0*%
%FSLAX25Y25*%
%IPPOS*%
%LPD*%
%AMOC8*
5,1,8,0,0,1.08239X$1,22.5*
%
%ADD10C,0.00000*%
D10*
X0001300Y0001300D02*
X0001300Y0241457D01*
X0355631Y0241457D01*
X0355631Y0001300D01*
X0001300Y0001300D01*
X0007205Y0013111D02*
X0007207Y0013264D01*
X0007213Y0013418D01*
X0007223Y0013571D01*
X0007237Y0013723D01*
X0007255Y0013876D01*
X0007277Y0014027D01*
X0007302Y0014178D01*
X0007332Y0014329D01*
X0007366Y0014479D01*
X0007403Y0014627D01*
X0007444Y0014775D01*
X0007489Y0014921D01*
X0007538Y0015067D01*
X0007591Y0015211D01*
X0007647Y0015353D01*
X0007707Y0015494D01*
X0007771Y0015634D01*
X0007838Y0015772D01*
X0007909Y0015908D01*
X0007984Y0016042D01*
X0008061Y0016174D01*
X0008143Y0016304D01*
X0008227Y0016432D01*
X0008315Y0016558D01*
X0008406Y0016681D01*
X0008500Y0016802D01*
X0008598Y0016920D01*
X0008698Y0017036D01*
X0008802Y0017149D01*
X0008908Y0017260D01*
X0009017Y0017368D01*
X0009129Y0017473D01*
X0009243Y0017574D01*
X0009361Y0017673D01*
X0009480Y0017769D01*
X0009602Y0017862D01*
X0009727Y0017951D01*
X0009854Y0018038D01*
X0009983Y0018120D01*
X0010114Y0018200D01*
X0010247Y0018276D01*
X0010382Y0018349D01*
X0010519Y0018418D01*
X0010658Y0018483D01*
X0010798Y0018545D01*
X0010940Y0018603D01*
X0011083Y0018658D01*
X0011228Y0018709D01*
X0011374Y0018756D01*
X0011521Y0018799D01*
X0011669Y0018838D01*
X0011818Y0018874D01*
X0011968Y0018905D01*
X0012119Y0018933D01*
X0012270Y0018957D01*
X0012423Y0018977D01*
X0012575Y0018993D01*
X0012728Y0019005D01*
X0012881Y0019013D01*
X0013034Y0019017D01*
X0013188Y0019017D01*
X0013341Y0019013D01*
X0013494Y0019005D01*
X0013647Y0018993D01*
X0013799Y0018977D01*
X0013952Y0018957D01*
X0014103Y0018933D01*
X0014254Y0018905D01*
X0014404Y0018874D01*
X0014553Y0018838D01*
X0014701Y0018799D01*
X0014848Y0018756D01*
X0014994Y0018709D01*
X0015139Y0018658D01*
X0015282Y0018603D01*
X0015424Y0018545D01*
X0015564Y0018483D01*
X0015703Y0018418D01*
X0015840Y0018349D01*
X0015975Y0018276D01*
X0016108Y0018200D01*
X0016239Y0018120D01*
X0016368Y0018038D01*
X0016495Y0017951D01*
X0016620Y0017862D01*
X0016742Y0017769D01*
X0016861Y0017673D01*
X0016979Y0017574D01*
X0017093Y0017473D01*
X0017205Y0017368D01*
X0017314Y0017260D01*
X0017420Y0017149D01*
X0017524Y0017036D01*
X0017624Y0016920D01*
X0017722Y0016802D01*
X0017816Y0016681D01*
X0017907Y0016558D01*
X0017995Y0016432D01*
X0018079Y0016304D01*
X0018161Y0016174D01*
X0018238Y0016042D01*
X0018313Y0015908D01*
X0018384Y0015772D01*
X0018451Y0015634D01*
X0018515Y0015494D01*
X0018575Y0015353D01*
X0018631Y0015211D01*
X0018684Y0015067D01*
X0018733Y0014921D01*
X0018778Y0014775D01*
X0018819Y0014627D01*
X0018856Y0014479D01*
X0018890Y0014329D01*
X0018920Y0014178D01*
X0018945Y0014027D01*
X0018967Y0013876D01*
X0018985Y0013723D01*
X0018999Y0013571D01*
X0019009Y0013418D01*
X0019015Y0013264D01*
X0019017Y0013111D01*
X0019015Y0012958D01*
X0019009Y0012804D01*
X0018999Y0012651D01*
X0018985Y0012499D01*
X0018967Y0012346D01*
X0018945Y0012195D01*
X0018920Y0012044D01*
X0018890Y0011893D01*
X0018856Y0011743D01*
X0018819Y0011595D01*
X0018778Y0011447D01*
X0018733Y0011301D01*
X0018684Y0011155D01*
X0018631Y0011011D01*
X0018575Y0010869D01*
X0018515Y0010728D01*
X0018451Y0010588D01*
X0018384Y0010450D01*
X0018313Y0010314D01*
X0018238Y0010180D01*
X0018161Y0010048D01*
X0018079Y0009918D01*
X0017995Y0009790D01*
X0017907Y0009664D01*
X0017816Y0009541D01*
X0017722Y0009420D01*
X0017624Y0009302D01*
X0017524Y0009186D01*
X0017420Y0009073D01*
X0017314Y0008962D01*
X0017205Y0008854D01*
X0017093Y0008749D01*
X0016979Y0008648D01*
X0016861Y0008549D01*
X0016742Y0008453D01*
X0016620Y0008360D01*
X0016495Y0008271D01*
X0016368Y0008184D01*
X0016239Y0008102D01*
X0016108Y0008022D01*
X0015975Y0007946D01*
X0015840Y0007873D01*
X0015703Y0007804D01*
X0015564Y0007739D01*
X0015424Y0007677D01*
X0015282Y0007619D01*
X0015139Y0007564D01*
X0014994Y0007513D01*
X0014848Y0007466D01*
X0014701Y0007423D01*
X0014553Y0007384D01*
X0014404Y0007348D01*
X0014254Y0007317D01*
X0014103Y0007289D01*
X0013952Y0007265D01*
X0013799Y0007245D01*
X0013647Y0007229D01*
X0013494Y0007217D01*
X0013341Y0007209D01*
X0013188Y0007205D01*
X0013034Y0007205D01*
X0012881Y0007209D01*
X0012728Y0007217D01*
X0012575Y0007229D01*
X0012423Y0007245D01*
X0012270Y0007265D01*
X0012119Y0007289D01*
X0011968Y0007317D01*
X0011818Y0007348D01*
X0011669Y0007384D01*
X0011521Y0007423D01*
X0011374Y0007466D01*
X0011228Y0007513D01*
X0011083Y0007564D01*
X0010940Y0007619D01*
X0010798Y0007677D01*
X0010658Y0007739D01*
X0010519Y0007804D01*
X0010382Y0007873D01*
X0010247Y0007946D01*
X0010114Y0008022D01*
X0009983Y0008102D01*
X0009854Y0008184D01*
X0009727Y0008271D01*
X0009602Y0008360D01*
X0009480Y0008453D01*
X0009361Y0008549D01*
X0009243Y0008648D01*
X0009129Y0008749D01*
X0009017Y0008854D01*
X0008908Y0008962D01*
X0008802Y0009073D01*
X0008698Y0009186D01*
X0008598Y0009302D01*
X0008500Y0009420D01*
X0008406Y0009541D01*
X0008315Y0009664D01*
X0008227Y0009790D01*
X0008143Y0009918D01*
X0008061Y0010048D01*
X0007984Y0010180D01*
X0007909Y0010314D01*
X0007838Y0010450D01*
X0007771Y0010588D01*
X0007707Y0010728D01*
X0007647Y0010869D01*
X0007591Y0011011D01*
X0007538Y0011155D01*
X0007489Y0011301D01*
X0007444Y0011447D01*
X0007403Y0011595D01*
X0007366Y0011743D01*
X0007332Y0011893D01*
X0007302Y0012044D01*
X0007277Y0012195D01*
X0007255Y0012346D01*
X0007237Y0012499D01*
X0007223Y0012651D01*
X0007213Y0012804D01*
X0007207Y0012958D01*
X0007205Y0013111D01*
X0136497Y0148859D02*
X0136499Y0148960D01*
X0136505Y0149061D01*
X0136515Y0149162D01*
X0136529Y0149262D01*
X0136547Y0149361D01*
X0136569Y0149460D01*
X0136594Y0149558D01*
X0136624Y0149655D01*
X0136657Y0149750D01*
X0136694Y0149844D01*
X0136735Y0149937D01*
X0136779Y0150028D01*
X0136827Y0150117D01*
X0136879Y0150204D01*
X0136934Y0150289D01*
X0136992Y0150371D01*
X0137053Y0150452D01*
X0137118Y0150530D01*
X0137185Y0150605D01*
X0137255Y0150677D01*
X0137329Y0150747D01*
X0137405Y0150814D01*
X0137483Y0150878D01*
X0137564Y0150938D01*
X0137647Y0150995D01*
X0137733Y0151049D01*
X0137821Y0151100D01*
X0137910Y0151147D01*
X0138001Y0151191D01*
X0138094Y0151230D01*
X0138189Y0151267D01*
X0138284Y0151299D01*
X0138381Y0151328D01*
X0138480Y0151352D01*
X0138578Y0151373D01*
X0138678Y0151390D01*
X0138778Y0151403D01*
X0138879Y0151412D01*
X0138980Y0151417D01*
X0139081Y0151418D01*
X0139182Y0151415D01*
X0139283Y0151408D01*
X0139384Y0151397D01*
X0139484Y0151382D01*
X0139583Y0151363D01*
X0139682Y0151340D01*
X0139779Y0151314D01*
X0139876Y0151283D01*
X0139971Y0151249D01*
X0140064Y0151211D01*
X0140157Y0151169D01*
X0140247Y0151124D01*
X0140336Y0151075D01*
X0140422Y0151023D01*
X0140506Y0150967D01*
X0140589Y0150908D01*
X0140668Y0150846D01*
X0140746Y0150781D01*
X0140820Y0150713D01*
X0140892Y0150641D01*
X0140961Y0150568D01*
X0141027Y0150491D01*
X0141090Y0150412D01*
X0141150Y0150330D01*
X0141206Y0150246D01*
X0141259Y0150160D01*
X0141309Y0150072D01*
X0141355Y0149982D01*
X0141398Y0149891D01*
X0141437Y0149797D01*
X0141472Y0149702D01*
X0141503Y0149606D01*
X0141531Y0149509D01*
X0141555Y0149411D01*
X0141575Y0149312D01*
X0141591Y0149212D01*
X0141603Y0149111D01*
X0141611Y0149011D01*
X0141615Y0148910D01*
X0141615Y0148808D01*
X0141611Y0148707D01*
X0141603Y0148607D01*
X0141591Y0148506D01*
X0141575Y0148406D01*
X0141555Y0148307D01*
X0141531Y0148209D01*
X0141503Y0148112D01*
X0141472Y0148016D01*
X0141437Y0147921D01*
X0141398Y0147827D01*
X0141355Y0147736D01*
X0141309Y0147646D01*
X0141259Y0147558D01*
X0141206Y0147472D01*
X0141150Y0147388D01*
X0141090Y0147306D01*
X0141027Y0147227D01*
X0140961Y0147150D01*
X0140892Y0147077D01*
X0140820Y0147005D01*
X0140746Y0146937D01*
X0140668Y0146872D01*
X0140589Y0146810D01*
X0140506Y0146751D01*
X0140422Y0146695D01*
X0140335Y0146643D01*
X0140247Y0146594D01*
X0140157Y0146549D01*
X0140064Y0146507D01*
X0139971Y0146469D01*
X0139876Y0146435D01*
X0139779Y0146404D01*
X0139682Y0146378D01*
X0139583Y0146355D01*
X0139484Y0146336D01*
X0139384Y0146321D01*
X0139283Y0146310D01*
X0139182Y0146303D01*
X0139081Y0146300D01*
X0138980Y0146301D01*
X0138879Y0146306D01*
X0138778Y0146315D01*
X0138678Y0146328D01*
X0138578Y0146345D01*
X0138480Y0146366D01*
X0138381Y0146390D01*
X0138284Y0146419D01*
X0138189Y0146451D01*
X0138094Y0146488D01*
X0138001Y0146527D01*
X0137910Y0146571D01*
X0137821Y0146618D01*
X0137733Y0146669D01*
X0137647Y0146723D01*
X0137564Y0146780D01*
X0137483Y0146840D01*
X0137405Y0146904D01*
X0137329Y0146971D01*
X0137255Y0147041D01*
X0137185Y0147113D01*
X0137118Y0147188D01*
X0137053Y0147266D01*
X0136992Y0147347D01*
X0136934Y0147429D01*
X0136879Y0147514D01*
X0136827Y0147601D01*
X0136779Y0147690D01*
X0136735Y0147781D01*
X0136694Y0147874D01*
X0136657Y0147968D01*
X0136624Y0148063D01*
X0136594Y0148160D01*
X0136569Y0148258D01*
X0136547Y0148357D01*
X0136529Y0148456D01*
X0136515Y0148556D01*
X0136505Y0148657D01*
X0136499Y0148758D01*
X0136497Y0148859D01*
X0166614Y0148859D02*
X0166616Y0148947D01*
X0166622Y0149035D01*
X0166632Y0149123D01*
X0166646Y0149211D01*
X0166663Y0149297D01*
X0166685Y0149383D01*
X0166710Y0149467D01*
X0166740Y0149551D01*
X0166772Y0149633D01*
X0166809Y0149713D01*
X0166849Y0149792D01*
X0166893Y0149869D01*
X0166940Y0149944D01*
X0166990Y0150016D01*
X0167044Y0150087D01*
X0167100Y0150154D01*
X0167160Y0150220D01*
X0167222Y0150282D01*
X0167288Y0150342D01*
X0167355Y0150398D01*
X0167426Y0150452D01*
X0167498Y0150502D01*
X0167573Y0150549D01*
X0167650Y0150593D01*
X0167729Y0150633D01*
X0167809Y0150670D01*
X0167891Y0150702D01*
X0167975Y0150732D01*
X0168059Y0150757D01*
X0168145Y0150779D01*
X0168231Y0150796D01*
X0168319Y0150810D01*
X0168407Y0150820D01*
X0168495Y0150826D01*
X0168583Y0150828D01*
X0168671Y0150826D01*
X0168759Y0150820D01*
X0168847Y0150810D01*
X0168935Y0150796D01*
X0169021Y0150779D01*
X0169107Y0150757D01*
X0169191Y0150732D01*
X0169275Y0150702D01*
X0169357Y0150670D01*
X0169437Y0150633D01*
X0169516Y0150593D01*
X0169593Y0150549D01*
X0169668Y0150502D01*
X0169740Y0150452D01*
X0169811Y0150398D01*
X0169878Y0150342D01*
X0169944Y0150282D01*
X0170006Y0150220D01*
X0170066Y0150154D01*
X0170122Y0150087D01*
X0170176Y0150016D01*
X0170226Y0149944D01*
X0170273Y0149869D01*
X0170317Y0149792D01*
X0170357Y0149713D01*
X0170394Y0149633D01*
X0170426Y0149551D01*
X0170456Y0149467D01*
X0170481Y0149383D01*
X0170503Y0149297D01*
X0170520Y0149211D01*
X0170534Y0149123D01*
X0170544Y0149035D01*
X0170550Y0148947D01*
X0170552Y0148859D01*
X0170550Y0148771D01*
X0170544Y0148683D01*
X0170534Y0148595D01*
X0170520Y0148507D01*
X0170503Y0148421D01*
X0170481Y0148335D01*
X0170456Y0148251D01*
X0170426Y0148167D01*
X0170394Y0148085D01*
X0170357Y0148005D01*
X0170317Y0147926D01*
X0170273Y0147849D01*
X0170226Y0147774D01*
X0170176Y0147702D01*
X0170122Y0147631D01*
X0170066Y0147564D01*
X0170006Y0147498D01*
X0169944Y0147436D01*
X0169878Y0147376D01*
X0169811Y0147320D01*
X0169740Y0147266D01*
X0169668Y0147216D01*
X0169593Y0147169D01*
X0169516Y0147125D01*
X0169437Y0147085D01*
X0169357Y0147048D01*
X0169275Y0147016D01*
X0169191Y0146986D01*
X0169107Y0146961D01*
X0169021Y0146939D01*
X0168935Y0146922D01*
X0168847Y0146908D01*
X0168759Y0146898D01*
X0168671Y0146892D01*
X0168583Y0146890D01*
X0168495Y0146892D01*
X0168407Y0146898D01*
X0168319Y0146908D01*
X0168231Y0146922D01*
X0168145Y0146939D01*
X0168059Y0146961D01*
X0167975Y0146986D01*
X0167891Y0147016D01*
X0167809Y0147048D01*
X0167729Y0147085D01*
X0167650Y0147125D01*
X0167573Y0147169D01*
X0167498Y0147216D01*
X0167426Y0147266D01*
X0167355Y0147320D01*
X0167288Y0147376D01*
X0167222Y0147436D01*
X0167160Y0147498D01*
X0167100Y0147564D01*
X0167044Y0147631D01*
X0166990Y0147702D01*
X0166940Y0147774D01*
X0166893Y0147849D01*
X0166849Y0147926D01*
X0166809Y0148005D01*
X0166772Y0148085D01*
X0166740Y0148167D01*
X0166710Y0148251D01*
X0166685Y0148335D01*
X0166663Y0148421D01*
X0166646Y0148507D01*
X0166632Y0148595D01*
X0166622Y0148683D01*
X0166616Y0148771D01*
X0166614Y0148859D01*
X0133800Y0205237D02*
X0133802Y0205398D01*
X0133808Y0205558D01*
X0133818Y0205719D01*
X0133832Y0205879D01*
X0133850Y0206039D01*
X0133871Y0206198D01*
X0133897Y0206357D01*
X0133927Y0206515D01*
X0133960Y0206672D01*
X0133998Y0206829D01*
X0134039Y0206984D01*
X0134084Y0207138D01*
X0134133Y0207291D01*
X0134186Y0207443D01*
X0134242Y0207594D01*
X0134303Y0207743D01*
X0134366Y0207891D01*
X0134434Y0208037D01*
X0134505Y0208181D01*
X0134579Y0208323D01*
X0134657Y0208464D01*
X0134739Y0208602D01*
X0134824Y0208739D01*
X0134912Y0208873D01*
X0135004Y0209005D01*
X0135099Y0209135D01*
X0135197Y0209263D01*
X0135298Y0209388D01*
X0135402Y0209510D01*
X0135509Y0209630D01*
X0135619Y0209747D01*
X0135732Y0209862D01*
X0135848Y0209973D01*
X0135967Y0210082D01*
X0136088Y0210187D01*
X0136212Y0210290D01*
X0136338Y0210390D01*
X0136466Y0210486D01*
X0136597Y0210579D01*
X0136731Y0210669D01*
X0136866Y0210756D01*
X0137004Y0210839D01*
X0137143Y0210919D01*
X0137285Y0210995D01*
X0137428Y0211068D01*
X0137573Y0211137D01*
X0137720Y0211203D01*
X0137868Y0211265D01*
X0138018Y0211323D01*
X0138169Y0211378D01*
X0138322Y0211429D01*
X0138476Y0211476D01*
X0138631Y0211519D01*
X0138787Y0211558D01*
X0138943Y0211594D01*
X0139101Y0211625D01*
X0139259Y0211653D01*
X0139418Y0211677D01*
X0139578Y0211697D01*
X0139738Y0211713D01*
X0139898Y0211725D01*
X0140059Y0211733D01*
X0140220Y0211737D01*
X0140380Y0211737D01*
X0140541Y0211733D01*
X0140702Y0211725D01*
X0140862Y0211713D01*
X0141022Y0211697D01*
X0141182Y0211677D01*
X0141341Y0211653D01*
X0141499Y0211625D01*
X0141657Y0211594D01*
X0141813Y0211558D01*
X0141969Y0211519D01*
X0142124Y0211476D01*
X0142278Y0211429D01*
X0142431Y0211378D01*
X0142582Y0211323D01*
X0142732Y0211265D01*
X0142880Y0211203D01*
X0143027Y0211137D01*
X0143172Y0211068D01*
X0143315Y0210995D01*
X0143457Y0210919D01*
X0143596Y0210839D01*
X0143734Y0210756D01*
X0143869Y0210669D01*
X0144003Y0210579D01*
X0144134Y0210486D01*
X0144262Y0210390D01*
X0144388Y0210290D01*
X0144512Y0210187D01*
X0144633Y0210082D01*
X0144752Y0209973D01*
X0144868Y0209862D01*
X0144981Y0209747D01*
X0145091Y0209630D01*
X0145198Y0209510D01*
X0145302Y0209388D01*
X0145403Y0209263D01*
X0145501Y0209135D01*
X0145596Y0209005D01*
X0145688Y0208873D01*
X0145776Y0208739D01*
X0145861Y0208602D01*
X0145943Y0208464D01*
X0146021Y0208323D01*
X0146095Y0208181D01*
X0146166Y0208037D01*
X0146234Y0207891D01*
X0146297Y0207743D01*
X0146358Y0207594D01*
X0146414Y0207443D01*
X0146467Y0207291D01*
X0146516Y0207138D01*
X0146561Y0206984D01*
X0146602Y0206829D01*
X0146640Y0206672D01*
X0146673Y0206515D01*
X0146703Y0206357D01*
X0146729Y0206198D01*
X0146750Y0206039D01*
X0146768Y0205879D01*
X0146782Y0205719D01*
X0146792Y0205558D01*
X0146798Y0205398D01*
X0146800Y0205237D01*
X0146798Y0205076D01*
X0146792Y0204916D01*
X0146782Y0204755D01*
X0146768Y0204595D01*
X0146750Y0204435D01*
X0146729Y0204276D01*
X0146703Y0204117D01*
X0146673Y0203959D01*
X0146640Y0203802D01*
X0146602Y0203645D01*
X0146561Y0203490D01*
X0146516Y0203336D01*
X0146467Y0203183D01*
X0146414Y0203031D01*
X0146358Y0202880D01*
X0146297Y0202731D01*
X0146234Y0202583D01*
X0146166Y0202437D01*
X0146095Y0202293D01*
X0146021Y0202151D01*
X0145943Y0202010D01*
X0145861Y0201872D01*
X0145776Y0201735D01*
X0145688Y0201601D01*
X0145596Y0201469D01*
X0145501Y0201339D01*
X0145403Y0201211D01*
X0145302Y0201086D01*
X0145198Y0200964D01*
X0145091Y0200844D01*
X0144981Y0200727D01*
X0144868Y0200612D01*
X0144752Y0200501D01*
X0144633Y0200392D01*
X0144512Y0200287D01*
X0144388Y0200184D01*
X0144262Y0200084D01*
X0144134Y0199988D01*
X0144003Y0199895D01*
X0143869Y0199805D01*
X0143734Y0199718D01*
X0143596Y0199635D01*
X0143457Y0199555D01*
X0143315Y0199479D01*
X0143172Y0199406D01*
X0143027Y0199337D01*
X0142880Y0199271D01*
X0142732Y0199209D01*
X0142582Y0199151D01*
X0142431Y0199096D01*
X0142278Y0199045D01*
X0142124Y0198998D01*
X0141969Y0198955D01*
X0141813Y0198916D01*
X0141657Y0198880D01*
X0141499Y0198849D01*
X0141341Y0198821D01*
X0141182Y0198797D01*
X0141022Y0198777D01*
X0140862Y0198761D01*
X0140702Y0198749D01*
X0140541Y0198741D01*
X0140380Y0198737D01*
X0140220Y0198737D01*
X0140059Y0198741D01*
X0139898Y0198749D01*
X0139738Y0198761D01*
X0139578Y0198777D01*
X0139418Y0198797D01*
X0139259Y0198821D01*
X0139101Y0198849D01*
X0138943Y0198880D01*
X0138787Y0198916D01*
X0138631Y0198955D01*
X0138476Y0198998D01*
X0138322Y0199045D01*
X0138169Y0199096D01*
X0138018Y0199151D01*
X0137868Y0199209D01*
X0137720Y0199271D01*
X0137573Y0199337D01*
X0137428Y0199406D01*
X0137285Y0199479D01*
X0137143Y0199555D01*
X0137004Y0199635D01*
X0136866Y0199718D01*
X0136731Y0199805D01*
X0136597Y0199895D01*
X0136466Y0199988D01*
X0136338Y0200084D01*
X0136212Y0200184D01*
X0136088Y0200287D01*
X0135967Y0200392D01*
X0135848Y0200501D01*
X0135732Y0200612D01*
X0135619Y0200727D01*
X0135509Y0200844D01*
X0135402Y0200964D01*
X0135298Y0201086D01*
X0135197Y0201211D01*
X0135099Y0201339D01*
X0135004Y0201469D01*
X0134912Y0201601D01*
X0134824Y0201735D01*
X0134739Y0201872D01*
X0134657Y0202010D01*
X0134579Y0202151D01*
X0134505Y0202293D01*
X0134434Y0202437D01*
X0134366Y0202583D01*
X0134303Y0202731D01*
X0134242Y0202880D01*
X0134186Y0203031D01*
X0134133Y0203183D01*
X0134084Y0203336D01*
X0134039Y0203490D01*
X0133998Y0203645D01*
X0133960Y0203802D01*
X0133927Y0203959D01*
X0133897Y0204117D01*
X0133871Y0204276D01*
X0133850Y0204435D01*
X0133832Y0204595D01*
X0133818Y0204755D01*
X0133808Y0204916D01*
X0133802Y0205076D01*
X0133800Y0205237D01*
X0167257Y0207993D02*
X0167259Y0208154D01*
X0167265Y0208314D01*
X0167275Y0208475D01*
X0167289Y0208635D01*
X0167307Y0208795D01*
X0167328Y0208954D01*
X0167354Y0209113D01*
X0167384Y0209271D01*
X0167417Y0209428D01*
X0167455Y0209585D01*
X0167496Y0209740D01*
X0167541Y0209894D01*
X0167590Y0210047D01*
X0167643Y0210199D01*
X0167699Y0210350D01*
X0167760Y0210499D01*
X0167823Y0210647D01*
X0167891Y0210793D01*
X0167962Y0210937D01*
X0168036Y0211079D01*
X0168114Y0211220D01*
X0168196Y0211358D01*
X0168281Y0211495D01*
X0168369Y0211629D01*
X0168461Y0211761D01*
X0168556Y0211891D01*
X0168654Y0212019D01*
X0168755Y0212144D01*
X0168859Y0212266D01*
X0168966Y0212386D01*
X0169076Y0212503D01*
X0169189Y0212618D01*
X0169305Y0212729D01*
X0169424Y0212838D01*
X0169545Y0212943D01*
X0169669Y0213046D01*
X0169795Y0213146D01*
X0169923Y0213242D01*
X0170054Y0213335D01*
X0170188Y0213425D01*
X0170323Y0213512D01*
X0170461Y0213595D01*
X0170600Y0213675D01*
X0170742Y0213751D01*
X0170885Y0213824D01*
X0171030Y0213893D01*
X0171177Y0213959D01*
X0171325Y0214021D01*
X0171475Y0214079D01*
X0171626Y0214134D01*
X0171779Y0214185D01*
X0171933Y0214232D01*
X0172088Y0214275D01*
X0172244Y0214314D01*
X0172400Y0214350D01*
X0172558Y0214381D01*
X0172716Y0214409D01*
X0172875Y0214433D01*
X0173035Y0214453D01*
X0173195Y0214469D01*
X0173355Y0214481D01*
X0173516Y0214489D01*
X0173677Y0214493D01*
X0173837Y0214493D01*
X0173998Y0214489D01*
X0174159Y0214481D01*
X0174319Y0214469D01*
X0174479Y0214453D01*
X0174639Y0214433D01*
X0174798Y0214409D01*
X0174956Y0214381D01*
X0175114Y0214350D01*
X0175270Y0214314D01*
X0175426Y0214275D01*
X0175581Y0214232D01*
X0175735Y0214185D01*
X0175888Y0214134D01*
X0176039Y0214079D01*
X0176189Y0214021D01*
X0176337Y0213959D01*
X0176484Y0213893D01*
X0176629Y0213824D01*
X0176772Y0213751D01*
X0176914Y0213675D01*
X0177053Y0213595D01*
X0177191Y0213512D01*
X0177326Y0213425D01*
X0177460Y0213335D01*
X0177591Y0213242D01*
X0177719Y0213146D01*
X0177845Y0213046D01*
X0177969Y0212943D01*
X0178090Y0212838D01*
X0178209Y0212729D01*
X0178325Y0212618D01*
X0178438Y0212503D01*
X0178548Y0212386D01*
X0178655Y0212266D01*
X0178759Y0212144D01*
X0178860Y0212019D01*
X0178958Y0211891D01*
X0179053Y0211761D01*
X0179145Y0211629D01*
X0179233Y0211495D01*
X0179318Y0211358D01*
X0179400Y0211220D01*
X0179478Y0211079D01*
X0179552Y0210937D01*
X0179623Y0210793D01*
X0179691Y0210647D01*
X0179754Y0210499D01*
X0179815Y0210350D01*
X0179871Y0210199D01*
X0179924Y0210047D01*
X0179973Y0209894D01*
X0180018Y0209740D01*
X0180059Y0209585D01*
X0180097Y0209428D01*
X0180130Y0209271D01*
X0180160Y0209113D01*
X0180186Y0208954D01*
X0180207Y0208795D01*
X0180225Y0208635D01*
X0180239Y0208475D01*
X0180249Y0208314D01*
X0180255Y0208154D01*
X0180257Y0207993D01*
X0180255Y0207832D01*
X0180249Y0207672D01*
X0180239Y0207511D01*
X0180225Y0207351D01*
X0180207Y0207191D01*
X0180186Y0207032D01*
X0180160Y0206873D01*
X0180130Y0206715D01*
X0180097Y0206558D01*
X0180059Y0206401D01*
X0180018Y0206246D01*
X0179973Y0206092D01*
X0179924Y0205939D01*
X0179871Y0205787D01*
X0179815Y0205636D01*
X0179754Y0205487D01*
X0179691Y0205339D01*
X0179623Y0205193D01*
X0179552Y0205049D01*
X0179478Y0204907D01*
X0179400Y0204766D01*
X0179318Y0204628D01*
X0179233Y0204491D01*
X0179145Y0204357D01*
X0179053Y0204225D01*
X0178958Y0204095D01*
X0178860Y0203967D01*
X0178759Y0203842D01*
X0178655Y0203720D01*
X0178548Y0203600D01*
X0178438Y0203483D01*
X0178325Y0203368D01*
X0178209Y0203257D01*
X0178090Y0203148D01*
X0177969Y0203043D01*
X0177845Y0202940D01*
X0177719Y0202840D01*
X0177591Y0202744D01*
X0177460Y0202651D01*
X0177326Y0202561D01*
X0177191Y0202474D01*
X0177053Y0202391D01*
X0176914Y0202311D01*
X0176772Y0202235D01*
X0176629Y0202162D01*
X0176484Y0202093D01*
X0176337Y0202027D01*
X0176189Y0201965D01*
X0176039Y0201907D01*
X0175888Y0201852D01*
X0175735Y0201801D01*
X0175581Y0201754D01*
X0175426Y0201711D01*
X0175270Y0201672D01*
X0175114Y0201636D01*
X0174956Y0201605D01*
X0174798Y0201577D01*
X0174639Y0201553D01*
X0174479Y0201533D01*
X0174319Y0201517D01*
X0174159Y0201505D01*
X0173998Y0201497D01*
X0173837Y0201493D01*
X0173677Y0201493D01*
X0173516Y0201497D01*
X0173355Y0201505D01*
X0173195Y0201517D01*
X0173035Y0201533D01*
X0172875Y0201553D01*
X0172716Y0201577D01*
X0172558Y0201605D01*
X0172400Y0201636D01*
X0172244Y0201672D01*
X0172088Y0201711D01*
X0171933Y0201754D01*
X0171779Y0201801D01*
X0171626Y0201852D01*
X0171475Y0201907D01*
X0171325Y0201965D01*
X0171177Y0202027D01*
X0171030Y0202093D01*
X0170885Y0202162D01*
X0170742Y0202235D01*
X0170600Y0202311D01*
X0170461Y0202391D01*
X0170323Y0202474D01*
X0170188Y0202561D01*
X0170054Y0202651D01*
X0169923Y0202744D01*
X0169795Y0202840D01*
X0169669Y0202940D01*
X0169545Y0203043D01*
X0169424Y0203148D01*
X0169305Y0203257D01*
X0169189Y0203368D01*
X0169076Y0203483D01*
X0168966Y0203600D01*
X0168859Y0203720D01*
X0168755Y0203842D01*
X0168654Y0203967D01*
X0168556Y0204095D01*
X0168461Y0204225D01*
X0168369Y0204357D01*
X0168281Y0204491D01*
X0168196Y0204628D01*
X0168114Y0204766D01*
X0168036Y0204907D01*
X0167962Y0205049D01*
X0167891Y0205193D01*
X0167823Y0205339D01*
X0167760Y0205487D01*
X0167699Y0205636D01*
X0167643Y0205787D01*
X0167590Y0205939D01*
X0167541Y0206092D01*
X0167496Y0206246D01*
X0167455Y0206401D01*
X0167417Y0206558D01*
X0167384Y0206715D01*
X0167354Y0206873D01*
X0167328Y0207032D01*
X0167307Y0207191D01*
X0167289Y0207351D01*
X0167275Y0207511D01*
X0167265Y0207672D01*
X0167259Y0207832D01*
X0167257Y0207993D01*
X0337914Y0225709D02*
X0337916Y0225862D01*
X0337922Y0226016D01*
X0337932Y0226169D01*
X0337946Y0226321D01*
X0337964Y0226474D01*
X0337986Y0226625D01*
X0338011Y0226776D01*
X0338041Y0226927D01*
X0338075Y0227077D01*
X0338112Y0227225D01*
X0338153Y0227373D01*
X0338198Y0227519D01*
X0338247Y0227665D01*
X0338300Y0227809D01*
X0338356Y0227951D01*
X0338416Y0228092D01*
X0338480Y0228232D01*
X0338547Y0228370D01*
X0338618Y0228506D01*
X0338693Y0228640D01*
X0338770Y0228772D01*
X0338852Y0228902D01*
X0338936Y0229030D01*
X0339024Y0229156D01*
X0339115Y0229279D01*
X0339209Y0229400D01*
X0339307Y0229518D01*
X0339407Y0229634D01*
X0339511Y0229747D01*
X0339617Y0229858D01*
X0339726Y0229966D01*
X0339838Y0230071D01*
X0339952Y0230172D01*
X0340070Y0230271D01*
X0340189Y0230367D01*
X0340311Y0230460D01*
X0340436Y0230549D01*
X0340563Y0230636D01*
X0340692Y0230718D01*
X0340823Y0230798D01*
X0340956Y0230874D01*
X0341091Y0230947D01*
X0341228Y0231016D01*
X0341367Y0231081D01*
X0341507Y0231143D01*
X0341649Y0231201D01*
X0341792Y0231256D01*
X0341937Y0231307D01*
X0342083Y0231354D01*
X0342230Y0231397D01*
X0342378Y0231436D01*
X0342527Y0231472D01*
X0342677Y0231503D01*
X0342828Y0231531D01*
X0342979Y0231555D01*
X0343132Y0231575D01*
X0343284Y0231591D01*
X0343437Y0231603D01*
X0343590Y0231611D01*
X0343743Y0231615D01*
X0343897Y0231615D01*
X0344050Y0231611D01*
X0344203Y0231603D01*
X0344356Y0231591D01*
X0344508Y0231575D01*
X0344661Y0231555D01*
X0344812Y0231531D01*
X0344963Y0231503D01*
X0345113Y0231472D01*
X0345262Y0231436D01*
X0345410Y0231397D01*
X0345557Y0231354D01*
X0345703Y0231307D01*
X0345848Y0231256D01*
X0345991Y0231201D01*
X0346133Y0231143D01*
X0346273Y0231081D01*
X0346412Y0231016D01*
X0346549Y0230947D01*
X0346684Y0230874D01*
X0346817Y0230798D01*
X0346948Y0230718D01*
X0347077Y0230636D01*
X0347204Y0230549D01*
X0347329Y0230460D01*
X0347451Y0230367D01*
X0347570Y0230271D01*
X0347688Y0230172D01*
X0347802Y0230071D01*
X0347914Y0229966D01*
X0348023Y0229858D01*
X0348129Y0229747D01*
X0348233Y0229634D01*
X0348333Y0229518D01*
X0348431Y0229400D01*
X0348525Y0229279D01*
X0348616Y0229156D01*
X0348704Y0229030D01*
X0348788Y0228902D01*
X0348870Y0228772D01*
X0348947Y0228640D01*
X0349022Y0228506D01*
X0349093Y0228370D01*
X0349160Y0228232D01*
X0349224Y0228092D01*
X0349284Y0227951D01*
X0349340Y0227809D01*
X0349393Y0227665D01*
X0349442Y0227519D01*
X0349487Y0227373D01*
X0349528Y0227225D01*
X0349565Y0227077D01*
X0349599Y0226927D01*
X0349629Y0226776D01*
X0349654Y0226625D01*
X0349676Y0226474D01*
X0349694Y0226321D01*
X0349708Y0226169D01*
X0349718Y0226016D01*
X0349724Y0225862D01*
X0349726Y0225709D01*
X0349724Y0225556D01*
X0349718Y0225402D01*
X0349708Y0225249D01*
X0349694Y0225097D01*
X0349676Y0224944D01*
X0349654Y0224793D01*
X0349629Y0224642D01*
X0349599Y0224491D01*
X0349565Y0224341D01*
X0349528Y0224193D01*
X0349487Y0224045D01*
X0349442Y0223899D01*
X0349393Y0223753D01*
X0349340Y0223609D01*
X0349284Y0223467D01*
X0349224Y0223326D01*
X0349160Y0223186D01*
X0349093Y0223048D01*
X0349022Y0222912D01*
X0348947Y0222778D01*
X0348870Y0222646D01*
X0348788Y0222516D01*
X0348704Y0222388D01*
X0348616Y0222262D01*
X0348525Y0222139D01*
X0348431Y0222018D01*
X0348333Y0221900D01*
X0348233Y0221784D01*
X0348129Y0221671D01*
X0348023Y0221560D01*
X0347914Y0221452D01*
X0347802Y0221347D01*
X0347688Y0221246D01*
X0347570Y0221147D01*
X0347451Y0221051D01*
X0347329Y0220958D01*
X0347204Y0220869D01*
X0347077Y0220782D01*
X0346948Y0220700D01*
X0346817Y0220620D01*
X0346684Y0220544D01*
X0346549Y0220471D01*
X0346412Y0220402D01*
X0346273Y0220337D01*
X0346133Y0220275D01*
X0345991Y0220217D01*
X0345848Y0220162D01*
X0345703Y0220111D01*
X0345557Y0220064D01*
X0345410Y0220021D01*
X0345262Y0219982D01*
X0345113Y0219946D01*
X0344963Y0219915D01*
X0344812Y0219887D01*
X0344661Y0219863D01*
X0344508Y0219843D01*
X0344356Y0219827D01*
X0344203Y0219815D01*
X0344050Y0219807D01*
X0343897Y0219803D01*
X0343743Y0219803D01*
X0343590Y0219807D01*
X0343437Y0219815D01*
X0343284Y0219827D01*
X0343132Y0219843D01*
X0342979Y0219863D01*
X0342828Y0219887D01*
X0342677Y0219915D01*
X0342527Y0219946D01*
X0342378Y0219982D01*
X0342230Y0220021D01*
X0342083Y0220064D01*
X0341937Y0220111D01*
X0341792Y0220162D01*
X0341649Y0220217D01*
X0341507Y0220275D01*
X0341367Y0220337D01*
X0341228Y0220402D01*
X0341091Y0220471D01*
X0340956Y0220544D01*
X0340823Y0220620D01*
X0340692Y0220700D01*
X0340563Y0220782D01*
X0340436Y0220869D01*
X0340311Y0220958D01*
X0340189Y0221051D01*
X0340070Y0221147D01*
X0339952Y0221246D01*
X0339838Y0221347D01*
X0339726Y0221452D01*
X0339617Y0221560D01*
X0339511Y0221671D01*
X0339407Y0221784D01*
X0339307Y0221900D01*
X0339209Y0222018D01*
X0339115Y0222139D01*
X0339024Y0222262D01*
X0338936Y0222388D01*
X0338852Y0222516D01*
X0338770Y0222646D01*
X0338693Y0222778D01*
X0338618Y0222912D01*
X0338547Y0223048D01*
X0338480Y0223186D01*
X0338416Y0223326D01*
X0338356Y0223467D01*
X0338300Y0223609D01*
X0338247Y0223753D01*
X0338198Y0223899D01*
X0338153Y0224045D01*
X0338112Y0224193D01*
X0338075Y0224341D01*
X0338041Y0224491D01*
X0338011Y0224642D01*
X0337986Y0224793D01*
X0337964Y0224944D01*
X0337946Y0225097D01*
X0337932Y0225249D01*
X0337922Y0225402D01*
X0337916Y0225556D01*
X0337914Y0225709D01*
X0333977Y0068229D02*
X0333979Y0068382D01*
X0333985Y0068536D01*
X0333995Y0068689D01*
X0334009Y0068841D01*
X0334027Y0068994D01*
X0334049Y0069145D01*
X0334074Y0069296D01*
X0334104Y0069447D01*
X0334138Y0069597D01*
X0334175Y0069745D01*
X0334216Y0069893D01*
X0334261Y0070039D01*
X0334310Y0070185D01*
X0334363Y0070329D01*
X0334419Y0070471D01*
X0334479Y0070612D01*
X0334543Y0070752D01*
X0334610Y0070890D01*
X0334681Y0071026D01*
X0334756Y0071160D01*
X0334833Y0071292D01*
X0334915Y0071422D01*
X0334999Y0071550D01*
X0335087Y0071676D01*
X0335178Y0071799D01*
X0335272Y0071920D01*
X0335370Y0072038D01*
X0335470Y0072154D01*
X0335574Y0072267D01*
X0335680Y0072378D01*
X0335789Y0072486D01*
X0335901Y0072591D01*
X0336015Y0072692D01*
X0336133Y0072791D01*
X0336252Y0072887D01*
X0336374Y0072980D01*
X0336499Y0073069D01*
X0336626Y0073156D01*
X0336755Y0073238D01*
X0336886Y0073318D01*
X0337019Y0073394D01*
X0337154Y0073467D01*
X0337291Y0073536D01*
X0337430Y0073601D01*
X0337570Y0073663D01*
X0337712Y0073721D01*
X0337855Y0073776D01*
X0338000Y0073827D01*
X0338146Y0073874D01*
X0338293Y0073917D01*
X0338441Y0073956D01*
X0338590Y0073992D01*
X0338740Y0074023D01*
X0338891Y0074051D01*
X0339042Y0074075D01*
X0339195Y0074095D01*
X0339347Y0074111D01*
X0339500Y0074123D01*
X0339653Y0074131D01*
X0339806Y0074135D01*
X0339960Y0074135D01*
X0340113Y0074131D01*
X0340266Y0074123D01*
X0340419Y0074111D01*
X0340571Y0074095D01*
X0340724Y0074075D01*
X0340875Y0074051D01*
X0341026Y0074023D01*
X0341176Y0073992D01*
X0341325Y0073956D01*
X0341473Y0073917D01*
X0341620Y0073874D01*
X0341766Y0073827D01*
X0341911Y0073776D01*
X0342054Y0073721D01*
X0342196Y0073663D01*
X0342336Y0073601D01*
X0342475Y0073536D01*
X0342612Y0073467D01*
X0342747Y0073394D01*
X0342880Y0073318D01*
X0343011Y0073238D01*
X0343140Y0073156D01*
X0343267Y0073069D01*
X0343392Y0072980D01*
X0343514Y0072887D01*
X0343633Y0072791D01*
X0343751Y0072692D01*
X0343865Y0072591D01*
X0343977Y0072486D01*
X0344086Y0072378D01*
X0344192Y0072267D01*
X0344296Y0072154D01*
X0344396Y0072038D01*
X0344494Y0071920D01*
X0344588Y0071799D01*
X0344679Y0071676D01*
X0344767Y0071550D01*
X0344851Y0071422D01*
X0344933Y0071292D01*
X0345010Y0071160D01*
X0345085Y0071026D01*
X0345156Y0070890D01*
X0345223Y0070752D01*
X0345287Y0070612D01*
X0345347Y0070471D01*
X0345403Y0070329D01*
X0345456Y0070185D01*
X0345505Y0070039D01*
X0345550Y0069893D01*
X0345591Y0069745D01*
X0345628Y0069597D01*
X0345662Y0069447D01*
X0345692Y0069296D01*
X0345717Y0069145D01*
X0345739Y0068994D01*
X0345757Y0068841D01*
X0345771Y0068689D01*
X0345781Y0068536D01*
X0345787Y0068382D01*
X0345789Y0068229D01*
X0345787Y0068076D01*
X0345781Y0067922D01*
X0345771Y0067769D01*
X0345757Y0067617D01*
X0345739Y0067464D01*
X0345717Y0067313D01*
X0345692Y0067162D01*
X0345662Y0067011D01*
X0345628Y0066861D01*
X0345591Y0066713D01*
X0345550Y0066565D01*
X0345505Y0066419D01*
X0345456Y0066273D01*
X0345403Y0066129D01*
X0345347Y0065987D01*
X0345287Y0065846D01*
X0345223Y0065706D01*
X0345156Y0065568D01*
X0345085Y0065432D01*
X0345010Y0065298D01*
X0344933Y0065166D01*
X0344851Y0065036D01*
X0344767Y0064908D01*
X0344679Y0064782D01*
X0344588Y0064659D01*
X0344494Y0064538D01*
X0344396Y0064420D01*
X0344296Y0064304D01*
X0344192Y0064191D01*
X0344086Y0064080D01*
X0343977Y0063972D01*
X0343865Y0063867D01*
X0343751Y0063766D01*
X0343633Y0063667D01*
X0343514Y0063571D01*
X0343392Y0063478D01*
X0343267Y0063389D01*
X0343140Y0063302D01*
X0343011Y0063220D01*
X0342880Y0063140D01*
X0342747Y0063064D01*
X0342612Y0062991D01*
X0342475Y0062922D01*
X0342336Y0062857D01*
X0342196Y0062795D01*
X0342054Y0062737D01*
X0341911Y0062682D01*
X0341766Y0062631D01*
X0341620Y0062584D01*
X0341473Y0062541D01*
X0341325Y0062502D01*
X0341176Y0062466D01*
X0341026Y0062435D01*
X0340875Y0062407D01*
X0340724Y0062383D01*
X0340571Y0062363D01*
X0340419Y0062347D01*
X0340266Y0062335D01*
X0340113Y0062327D01*
X0339960Y0062323D01*
X0339806Y0062323D01*
X0339653Y0062327D01*
X0339500Y0062335D01*
X0339347Y0062347D01*
X0339195Y0062363D01*
X0339042Y0062383D01*
X0338891Y0062407D01*
X0338740Y0062435D01*
X0338590Y0062466D01*
X0338441Y0062502D01*
X0338293Y0062541D01*
X0338146Y0062584D01*
X0338000Y0062631D01*
X0337855Y0062682D01*
X0337712Y0062737D01*
X0337570Y0062795D01*
X0337430Y0062857D01*
X0337291Y0062922D01*
X0337154Y0062991D01*
X0337019Y0063064D01*
X0336886Y0063140D01*
X0336755Y0063220D01*
X0336626Y0063302D01*
X0336499Y0063389D01*
X0336374Y0063478D01*
X0336252Y0063571D01*
X0336133Y0063667D01*
X0336015Y0063766D01*
X0335901Y0063867D01*
X0335789Y0063972D01*
X0335680Y0064080D01*
X0335574Y0064191D01*
X0335470Y0064304D01*
X0335370Y0064420D01*
X0335272Y0064538D01*
X0335178Y0064659D01*
X0335087Y0064782D01*
X0334999Y0064908D01*
X0334915Y0065036D01*
X0334833Y0065166D01*
X0334756Y0065298D01*
X0334681Y0065432D01*
X0334610Y0065568D01*
X0334543Y0065706D01*
X0334479Y0065846D01*
X0334419Y0065987D01*
X0334363Y0066129D01*
X0334310Y0066273D01*
X0334261Y0066419D01*
X0334216Y0066565D01*
X0334175Y0066713D01*
X0334138Y0066861D01*
X0334104Y0067011D01*
X0334074Y0067162D01*
X0334049Y0067313D01*
X0334027Y0067464D01*
X0334009Y0067617D01*
X0333995Y0067769D01*
X0333985Y0067922D01*
X0333979Y0068076D01*
X0333977Y0068229D01*
M02*
