%
M48
M72
T01C0.02362
T02C0.02756
T03C0.02800
T04C0.03150
T05C0.03200
T06C0.03937
T07C0.04000
T08C0.04400
T09C0.05118
T10C0.05200
T11C0.11811
T12C0.13000
%
T01
X43032Y19804
X48938Y28859
X49725Y42245
X120198Y100906
X109961Y107993
X101694Y112717
X94607Y107206
X154450Y115080
X186339Y119410
X198544Y123741
X205237Y121379
X211930Y116654
X217835Y121772
X226497Y143820
X228859Y172954
X233583Y181221
X206812Y172954
X273347Y195001
X278859Y227678
X280040Y106812
X251694Y68623
X185946Y103662
T02
X165867Y45591
X145867Y45591
X35946Y173938
X26103Y173938
X253662Y208190
X253662Y218032
X278859Y213308
X278859Y203465
T03
X34017Y114922
X24017Y114922
T04
X74528Y99331
T05
X69883Y105828
X79883Y105828
X80158Y92284
X70158Y92284
X59883Y105828
X49883Y105828
X19489Y92560
X19489Y62560
X70158Y62284
X80158Y62284
X90158Y62284
X100158Y62284
X110158Y62284
X120158Y62284
X130158Y62284
X140158Y62284
X150158Y62284
X160158Y62284
X170158Y62284
X180158Y62284
X190158Y62284
X200158Y62284
X213898Y62284
X224922Y62284
X237875Y78859
X237875Y90276
X224922Y92284
X229213Y101300
X229213Y111930
X213898Y92284
X200158Y92284
X190158Y92284
X180158Y92284
X170158Y92284
X160158Y92284
X150158Y92284
X140158Y92284
X130158Y92284
X120158Y92284
X110158Y92284
X100158Y92284
X90158Y92284
X79883Y135828
X69883Y135828
X59883Y135828
X49883Y135828
X70001Y145670
X80001Y154725
X100001Y145670
X110001Y154725
X48820Y170119
X48820Y180119
X135985Y28269
X145985Y28269
X165985Y27875
X175985Y27875
X267875Y78859
X267875Y90276
X259213Y101300
X259213Y111930
X295355Y149725
X325355Y149725
X287954Y187127
X257954Y187127
T06
X222009Y158859
X212009Y158859
X212009Y148859
X222009Y148859
X222009Y138859
X212009Y138859
X212009Y128859
X222009Y128859
X168583Y148859
T07
X232757Y197993
X232757Y207993
X232757Y217993
X52759Y90163
X34959Y90163
X34959Y64563
X52759Y64563
T08
X81300Y195237
X81300Y205237
X81300Y215237
T09
X139056Y148859
T10
X41909Y201694
X22109Y201694
X67624Y40591
X87324Y40591
X107024Y40591
X313505Y45452
X313505Y25652
X313702Y88726
X313702Y108426
X313702Y128126
X313898Y168214
X313898Y187914
X313898Y207614
T11
X13111Y13111
X339883Y68229
X343820Y225709
T12
X173757Y207993
X140300Y205237
M30
